<svg width="24" height="24" viewBox="0 0 24 24" fill="none" xmlns="http://www.w3.org/2000/svg">
<path fill-rule="evenodd" clip-rule="evenodd" d="M11.5138 7.41068H11.6243C13.0762 7.41068 14.2546 8.62423 14.2546 10.1129V13.0901C14.2546 14.5787 13.0762 15.7869 11.6243 15.7869H6.63717C5.18523 15.7869 4.00684 14.5787 4.00684 13.0901V10.1129C4.00684 8.62423 5.18523 7.41068 6.63717 7.41068H6.74765C6.75817 6.76345 7.00542 6.15937 7.45258 5.70631C7.905 5.24786 8.48367 5.01593 9.13599 4.99975C10.4406 4.99975 11.498 6.07847 11.5138 7.41068ZM8.00438 6.28323C7.70979 6.58527 7.54671 6.9844 7.53618 7.41049H10.7242C10.7084 6.52594 10.0034 5.8086 9.13543 5.8086C8.73036 5.8086 8.3095 5.9758 8.00438 6.28323Z" fill="url(#paint0_linear_1252_4798)"/>
<g opacity="0.5" filter="url(#filter0_f_1252_4798)">
<path d="M7.77128 14.2613L10.4667 14.2613C11.4444 14.2613 12.0137 13.793 12.0137 12.9904L12.0137 10.2722C12.0137 9.45646 11.4444 8.9986 10.4667 8.9986L7.77128 8.9986C6.77782 8.9986 6.22465 9.45646 6.22465 10.2722L6.22465 12.9904C6.22465 13.793 6.77782 14.2613 7.77128 14.2613Z" fill="#678AFE"/>
</g>
<g filter="url(#filter1_bi_1252_4798)">
<path d="M16.6986 9.09026C16.7005 9.13789 16.6753 10.1082 16.6558 10.1518H15.7734C15.7563 10.1075 15.7473 8.98871 15.7467 8.94131C15.7467 7.76397 14.7889 6.80955 13.6075 6.80955C12.4261 6.80955 11.4684 7.76397 11.4684 8.94131C11.4765 8.98715 11.4765 10.1059 11.4684 10.1518H10.5647C10.5566 10.1059 10.5566 8.98715 10.5647 8.94131C10.6333 7.30291 11.9861 6.00988 13.6316 6.00988C15.2771 6.00988 16.6299 7.30291 16.6986 8.94131V9.09026Z" fill="#90A9FE" fill-opacity="0.45"/>
<path d="M16.681 9.09026H16.681V8.94168C16.6126 7.3129 15.2676 6.02743 13.6316 6.02743C11.9955 6.02743 10.6505 7.31309 10.5822 8.94205L10.5821 8.94439L10.5819 8.94436L10.5819 8.94441L10.5819 8.94447L10.5819 8.9448L10.5817 8.94597L10.5814 8.94988L10.5808 8.96268C10.5803 8.97323 10.5799 8.98749 10.5795 9.00498C10.5788 9.03994 10.5782 9.0875 10.5776 9.14349C10.5766 9.25547 10.5761 9.40099 10.5761 9.54653C10.5761 9.69207 10.5766 9.83759 10.5777 9.94957C10.5782 10.0056 10.5788 10.0531 10.5795 10.0881C10.5799 10.1056 10.5803 10.1198 10.5808 10.1304L10.581 10.1342H11.4521L11.4523 10.1304C11.4528 10.1198 11.4532 10.1056 11.4536 10.0881C11.4543 10.0531 11.4549 10.0056 11.4555 9.94957C11.4565 9.83759 11.457 9.69208 11.457 9.54653C11.457 9.40099 11.4565 9.25547 11.4554 9.14349C11.4549 9.0875 11.4543 9.03994 11.4536 9.00498C11.4532 8.98749 11.4528 8.97323 11.4523 8.96268L11.4517 8.94988L11.4514 8.94597L11.4512 8.9448L11.4512 8.94447C11.4512 8.94439 11.4512 8.94436 11.4512 8.94436L11.4506 8.94131H11.4509C11.4509 7.75422 12.4165 6.792 13.6075 6.792C14.7985 6.792 15.7641 7.75417 15.7642 8.9412M16.681 9.09026L15.7467 8.94131M16.681 9.09026L16.681 9.09097C16.682 9.11395 16.6762 9.36752 16.6677 9.62196C16.6634 9.74891 16.6585 9.87565 16.6535 9.97332C16.6509 10.0222 16.6484 10.0636 16.6458 10.0942C16.6446 10.1094 16.6433 10.1218 16.6421 10.1309C16.642 10.1321 16.6418 10.1332 16.6417 10.1342M16.681 9.09026L16.6417 10.1342M15.7642 8.9412C15.7642 8.94124 15.7642 8.94128 15.7642 8.94131H15.7467M15.7642 8.9412C15.7642 8.94117 15.7642 8.94113 15.7642 8.94109L15.7467 8.94131M15.7642 8.9412C15.7643 8.94542 15.7644 8.9574 15.7645 8.97583C15.7654 9.06526 15.7677 9.30642 15.7714 9.54745C15.7736 9.693 15.7764 9.83838 15.7796 9.95011C15.7813 10.006 15.783 10.0533 15.7849 10.088C15.7858 10.1054 15.7868 10.1194 15.7878 10.1297C15.7879 10.1313 15.7881 10.1328 15.7882 10.1342M15.7467 8.94131C15.7467 8.94538 15.7468 8.95735 15.747 8.97586C15.7489 9.17292 15.7578 10.1113 15.7734 10.1518M15.7882 10.1342H15.7734V10.1518M15.7882 10.1342H16.6417M15.7882 10.1342C15.7885 10.1373 15.7889 10.1398 15.7892 10.1419C15.7896 10.1446 15.7899 10.1456 15.7898 10.1456C15.7898 10.1456 15.7898 10.1456 15.7898 10.1454L15.7734 10.1518M15.7734 10.1518L16.6417 10.1342" stroke="url(#paint1_linear_1252_4798)" stroke-opacity="0.5" stroke-width="0.035085"/>
</g>
<g filter="url(#filter2_b_1252_4798)">
<path d="M7.23047 12.4099C7.23047 10.5344 8.71509 9.00548 10.5444 9.00548H16.8275C18.6568 9.00548 20.1414 10.5344 20.1414 12.4099V16.1609C20.1414 18.0363 18.6568 19.5585 16.8275 19.5585H10.5444C8.71509 19.5585 7.23047 18.0363 7.23047 16.1609V12.4099Z" fill="#90A9FE" fill-opacity="0.45"/>
<path d="M10.5444 8.91777C8.66438 8.91777 7.14276 10.4883 7.14276 12.4099V16.1609C7.14276 18.0827 8.6646 19.6462 10.5444 19.6462H16.8275C18.7073 19.6462 20.2291 18.0827 20.2291 16.1609V12.4099C20.2291 10.4883 18.7075 8.91777 16.8275 8.91777H10.5444Z" stroke="url(#paint2_linear_1252_4798)" stroke-width="0.175425" stroke-linecap="round" stroke-linejoin="round"/>
</g>
<mask id="path-7-inside-1_1252_4798" fill="white">
<path fill-rule="evenodd" clip-rule="evenodd" d="M11.1084 11.9779C11.3868 11.9779 11.6055 11.7469 11.6055 11.4683V10.68C11.6055 10.4014 11.3868 10.1704 11.1084 10.1704C10.8367 10.1704 10.6113 10.4014 10.6113 10.68V11.4683C10.6113 11.7469 10.8367 11.9779 11.1084 11.9779ZM16.2041 11.9779C16.4825 11.9779 16.7012 11.7469 16.7012 11.4683V10.68C16.7012 10.4014 16.4825 10.1704 16.2041 10.1704C15.9324 10.1704 15.707 10.4014 15.707 10.68V11.4683C15.707 11.7469 15.9324 11.9779 16.2041 11.9779Z"/>
</mask>
<path fill-rule="evenodd" clip-rule="evenodd" d="M11.1084 11.9779C11.3868 11.9779 11.6055 11.7469 11.6055 11.4683V10.68C11.6055 10.4014 11.3868 10.1704 11.1084 10.1704C10.8367 10.1704 10.6113 10.4014 10.6113 10.68V11.4683C10.6113 11.7469 10.8367 11.9779 11.1084 11.9779ZM16.2041 11.9779C16.4825 11.9779 16.7012 11.7469 16.7012 11.4683V10.68C16.7012 10.4014 16.4825 10.1704 16.2041 10.1704C15.9324 10.1704 15.707 10.4014 15.707 10.68V11.4683C15.707 11.7469 15.9324 11.9779 16.2041 11.9779Z" fill="url(#paint3_linear_1252_4798)"/>
<path d="M11.5704 11.4683C11.5704 11.7287 11.3663 11.9429 11.1084 11.9429V12.013C11.4073 12.013 11.6406 11.7651 11.6406 11.4683H11.5704ZM11.5704 10.68V11.4683H11.6406V10.68H11.5704ZM11.1084 10.2055C11.3663 10.2055 11.5704 10.4197 11.5704 10.68H11.6406C11.6406 10.3832 11.4073 10.1353 11.1084 10.1353V10.2055ZM10.6464 10.68C10.6464 10.42 10.8569 10.2055 11.1084 10.2055V10.1353C10.8165 10.1353 10.5762 10.3829 10.5762 10.68H10.6464ZM10.6464 11.4683V10.68H10.5762V11.4683H10.6464ZM11.1084 11.9429C10.8569 11.9429 10.6464 11.7284 10.6464 11.4683H10.5762C10.5762 11.7654 10.8165 12.013 11.1084 12.013V11.9429ZM16.6661 11.4683C16.6661 11.7287 16.462 11.9429 16.2041 11.9429V12.013C16.503 12.013 16.7363 11.7651 16.7363 11.4683H16.6661ZM16.6661 10.68V11.4683H16.7363V10.68H16.6661ZM16.2041 10.2055C16.462 10.2055 16.6661 10.4197 16.6661 10.68H16.7363C16.7363 10.3832 16.503 10.1353 16.2041 10.1353V10.2055ZM15.7421 10.68C15.7421 10.42 15.9526 10.2055 16.2041 10.2055V10.1353C15.9122 10.1353 15.6719 10.3829 15.6719 10.68H15.7421ZM15.7421 11.4683V10.68H15.6719V11.4683H15.7421ZM16.2041 11.9429C15.9526 11.9429 15.7421 11.7284 15.7421 11.4683H15.6719C15.6719 11.7654 15.9122 12.013 16.2041 12.013V11.9429Z" fill="url(#paint4_linear_1252_4798)" fill-opacity="0.5" mask="url(#path-7-inside-1_1252_4798)"/>
<defs>
<filter id="filter0_f_1252_4798" x="3.24239" y="6.01638" width="11.7535" height="11.2272" filterUnits="userSpaceOnUse" color-interpolation-filters="sRGB">
<feFlood flood-opacity="0" result="BackgroundImageFix"/>
<feBlend mode="normal" in="SourceGraphic" in2="BackgroundImageFix" result="shape"/>
<feGaussianBlur stdDeviation="1.49111" result="effect1_foregroundBlur_1252_4798"/>
</filter>
<filter id="filter1_bi_1252_4798" x="8.95859" y="4.40988" width="9.33965" height="7.34187" filterUnits="userSpaceOnUse" color-interpolation-filters="sRGB">
<feFlood flood-opacity="0" result="BackgroundImageFix"/>
<feGaussianBlur in="BackgroundImageFix" stdDeviation="0.8"/>
<feComposite in2="SourceAlpha" operator="in" result="effect1_backgroundBlur_1252_4798"/>
<feBlend mode="normal" in="SourceGraphic" in2="effect1_backgroundBlur_1252_4798" result="shape"/>
<feColorMatrix in="SourceAlpha" type="matrix" values="0 0 0 0 0 0 0 0 0 0 0 0 0 0 0 0 0 0 127 0" result="hardAlpha"/>
<feOffset dx="0.08" dy="0.04"/>
<feGaussianBlur stdDeviation="0.2"/>
<feComposite in2="hardAlpha" operator="arithmetic" k2="-1" k3="1"/>
<feColorMatrix type="matrix" values="0 0 0 0 1 0 0 0 0 1 0 0 0 0 1 0 0 0 0.6 0"/>
<feBlend mode="normal" in2="shape" result="effect2_innerShadow_1252_4798"/>
</filter>
<filter id="filter2_b_1252_4798" x="4.42331" y="6.19868" width="18.5245" height="16.1666" filterUnits="userSpaceOnUse" color-interpolation-filters="sRGB">
<feFlood flood-opacity="0" result="BackgroundImageFix"/>
<feGaussianBlur in="BackgroundImageFix" stdDeviation="1.31569"/>
<feComposite in2="SourceAlpha" operator="in" result="effect1_backgroundBlur_1252_4798"/>
<feBlend mode="normal" in="SourceGraphic" in2="effect1_backgroundBlur_1252_4798" result="shape"/>
</filter>
<linearGradient id="paint0_linear_1252_4798" x1="-49.4357" y1="15.7869" x2="67.784" y2="6.04428" gradientUnits="userSpaceOnUse">
<stop stop-color="#5D82FE"/>
<stop offset="1" stop-color="#90A9FE"/>
</linearGradient>
<linearGradient id="paint1_linear_1252_4798" x1="16.4356" y1="8.16843" x2="10.4784" y2="8.53633" gradientUnits="userSpaceOnUse">
<stop stop-color="white"/>
<stop offset="1" stop-color="white" stop-opacity="0"/>
</linearGradient>
<linearGradient id="paint2_linear_1252_4798" x1="9.28568" y1="10.2349" x2="15.6173" y2="19.8289" gradientUnits="userSpaceOnUse">
<stop stop-color="white" stop-opacity="0.25"/>
<stop offset="1" stop-color="white" stop-opacity="0"/>
</linearGradient>
<linearGradient id="paint3_linear_1252_4798" x1="16.2694" y1="10.4968" x2="9.55965" y2="11.2339" gradientUnits="userSpaceOnUse">
<stop stop-color="white"/>
<stop offset="1" stop-color="white" stop-opacity="0.2"/>
</linearGradient>
<linearGradient id="paint4_linear_1252_4798" x1="16.4403" y1="11.1124" x2="10.6239" y2="11.9288" gradientUnits="userSpaceOnUse">
<stop stop-color="white"/>
<stop offset="1" stop-color="white" stop-opacity="0"/>
</linearGradient>
</defs>
</svg>
