<svg width="40" height="40" viewBox="0 0 40 40" fill="none" xmlns="http://www.w3.org/2000/svg">
<path d="M0 4C0 1.79086 1.79086 0 4 0L36 0C38.2091 0 40 1.79086 40 4V36C40 38.2091 38.2091 40 36 40H4C1.79086 40 0 38.2091 0 36L0 4Z" fill="white"/>
<rect x="32.667" y="7.94067" width="26.7259" height="25.3333" rx="3.33333" transform="rotate(90 32.667 7.94067)" fill="url(#paint0_linear_1413_12926)"/>
<rect x="11.3066" y="23.9998" width="11.2561" height="2" rx="1" fill="white"/>
<rect x="11.3066" y="27.9998" width="5.95909" height="2" rx="1" fill="white"/>
<g filter="url(#filter0_bi_1413_12926)">
<path d="M18.377 6.66659C18.377 5.93021 18.9739 5.33325 19.7103 5.33325H27.4368C28.1732 5.33325 28.7701 5.93021 28.7701 6.66659V17.5486C28.7701 18.6672 27.4758 19.2886 26.603 18.5891L24.4074 16.8295C23.9201 16.4389 23.227 16.4389 22.7397 16.8295L20.5441 18.5891C19.6713 19.2886 18.377 18.6672 18.377 17.5486V6.66659Z" fill="#90A9FE" fill-opacity="0.45"/>
</g>
<defs>
<filter id="filter0_bi_1413_12926" x="15.7103" y="2.66659" width="15.7264" height="18.8846" filterUnits="userSpaceOnUse" color-interpolation-filters="sRGB">
<feFlood flood-opacity="0" result="BackgroundImageFix"/>
<feGaussianBlur in="BackgroundImageFix" stdDeviation="1.33333"/>
<feComposite in2="SourceAlpha" operator="in" result="effect1_backgroundBlur_1413_12926"/>
<feBlend mode="normal" in="SourceGraphic" in2="effect1_backgroundBlur_1413_12926" result="shape"/>
<feColorMatrix in="SourceAlpha" type="matrix" values="0 0 0 0 0 0 0 0 0 0 0 0 0 0 0 0 0 0 127 0" result="hardAlpha"/>
<feOffset dx="0.133333" dy="0.0666667"/>
<feGaussianBlur stdDeviation="0.333333"/>
<feComposite in2="hardAlpha" operator="arithmetic" k2="-1" k3="1"/>
<feColorMatrix type="matrix" values="0 0 0 0 1 0 0 0 0 1 0 0 0 0 1 0 0 0 0.6 0"/>
<feBlend mode="normal" in2="shape" result="effect2_innerShadow_1413_12926"/>
</filter>
<linearGradient id="paint0_linear_1413_12926" x1="34.4789" y1="15.6695" x2="58.2363" y2="13.2825" gradientUnits="userSpaceOnUse">
<stop stop-color="#5D82FE"/>
<stop offset="1" stop-color="#90A9FE"/>
</linearGradient>
</defs>
</svg>
