<svg width="103" height="103" viewBox="0 0 103 103" fill="none" xmlns="http://www.w3.org/2000/svg">
<path fill-rule="evenodd" clip-rule="evenodd" d="M33.5053 19.2896L50.7151 17.6699C58.2629 16.9596 64.6643 19.355 65.4535 26.9501L69.4339 69.2443C69.4756 69.72 69.4015 70.1986 69.2179 70.6386C68.9238 71.3558 68.3528 71.9215 67.6358 72.2057C66.9188 72.4898 66.1176 72.4682 65.416 72.1456L46.4966 64.8085L29.2535 75.549C27.9568 76.4194 26.2056 76.0845 25.3133 74.7956C25.0498 74.3888 24.887 73.9244 24.8386 73.4413L22.9505 53.3789C22.9434 53.3235 22.9372 53.2674 22.9319 53.2106L20.8554 31.1473C20.14 23.5452 25.9821 19.9976 33.5053 19.2896Z" fill="url(#paint0_linear_1413_13105)"/>
<g opacity="0.5" filter="url(#filter0_f_1413_13105)">
<path d="M53.2565 28.1909H37.9998C32.4658 28.1909 29.2437 31.4312 29.2437 36.9834V55.7881C29.2437 61.4313 32.4658 64.5988 37.9998 64.5988H53.2565C58.8797 64.5988 62.0108 61.4313 62.0108 55.7881V36.9834C62.0108 31.4312 58.8797 28.1909 53.2565 28.1909Z" fill="url(#paint1_linear_1413_13105)"/>
</g>
<g filter="url(#filter1_b_1413_13105)">
<path fill-rule="evenodd" clip-rule="evenodd" d="M46.7177 79.62L25.9011 84.7005C24.25 85.0654 22.6074 84.0538 22.1901 82.4151C22.0772 81.9119 22.0836 81.3893 22.2087 80.8889L34.0155 36.8255C36.2673 28.4218 42.9105 26.599 51.1742 28.8132L70.5867 34.0148C78.5983 36.1615 83.7522 40.9052 81.5905 48.9727L69.6337 93.5964C69.4207 94.3913 68.9006 95.0691 68.1879 95.4806C67.4751 95.8921 66.6281 96.0036 65.8332 95.7906C65.3283 95.6467 64.8633 95.3885 64.4741 95.0361L48.8747 80.1979C48.2991 79.654 47.4882 79.4367 46.7177 79.62Z" fill="#90A9FE" fill-opacity="0.45"/>
<path d="M25.9823 85.0681L25.9824 85.0682L25.9904 85.0662L46.8048 79.9862C46.8052 79.9861 46.8055 79.986 46.8058 79.9859C47.4522 79.8325 48.1324 80.0148 48.6155 80.4709C48.6157 80.4711 48.6159 80.4713 48.6161 80.4715L64.2147 95.3089L64.2146 95.309L64.2215 95.3152C64.6534 95.7063 65.1696 95.9929 65.73 96.1526L65.73 96.1527L65.7358 96.1542C66.6272 96.3931 67.5769 96.268 68.3761 95.8066C69.1753 95.3452 69.7584 94.5852 69.9973 93.6938L81.9541 49.0701C83.0625 44.9337 82.3004 41.6023 80.1947 39.0347C78.1049 36.4867 74.7282 34.7348 70.6841 33.6512L51.2716 28.4496C47.0994 27.3317 43.2791 27.2161 40.1966 28.4897C37.0937 29.7719 34.8022 32.4351 33.6519 36.7281L21.8451 80.7915L21.8436 80.7976C21.7041 81.3549 21.697 81.937 21.8228 82.4976L21.8226 82.4976L21.8253 82.508C22.2927 84.3436 24.1328 85.4768 25.9823 85.0681Z" stroke="url(#paint2_linear_1413_13105)" stroke-width="0.752865" stroke-linecap="round" stroke-linejoin="round"/>
</g>
<path d="M64.98 52.8639L46.3286 47.8662C45.3493 47.6038 44.7679 46.4882 45.0736 45.3476C45.3792 44.2069 46.4405 43.5314 47.4198 43.7938L66.0712 48.7915C67.0505 49.0539 67.6319 50.1695 67.3263 51.3101C67.0206 52.4508 65.9593 53.1263 64.98 52.8639Z" fill="url(#paint3_linear_1413_13105)" stroke="url(#paint4_linear_1413_13105)" stroke-width="0.301146"/>
<defs>
<filter id="filter0_f_1413_13105" x="17.9507" y="16.8979" width="55.353" height="58.9939" filterUnits="userSpaceOnUse" color-interpolation-filters="sRGB">
<feFlood flood-opacity="0" result="BackgroundImageFix"/>
<feBlend mode="normal" in="SourceGraphic" in2="BackgroundImageFix" result="shape"/>
<feGaussianBlur stdDeviation="5.64649" result="effect1_foregroundBlur_1413_13105"/>
</filter>
<filter id="filter1_b_1413_13105" x="3.28817" y="9.12753" width="97.6185" height="105.59" filterUnits="userSpaceOnUse" color-interpolation-filters="sRGB">
<feFlood flood-opacity="0" result="BackgroundImageFix"/>
<feGaussianBlur in="BackgroundImageFix" stdDeviation="9.03438"/>
<feComposite in2="SourceAlpha" operator="in" result="effect1_backgroundBlur_1413_13105"/>
<feBlend mode="normal" in="SourceGraphic" in2="effect1_backgroundBlur_1413_13105" result="shape"/>
</filter>
<linearGradient id="paint0_linear_1413_13105" x1="-207.473" y1="98.2098" x2="300.316" y2="14.3277" gradientUnits="userSpaceOnUse">
<stop stop-color="#5D82FE"/>
<stop offset="1" stop-color="#90A9FE"/>
</linearGradient>
<linearGradient id="paint1_linear_1413_13105" x1="-141.638" y1="64.5988" x2="233.433" y2="35.0658" gradientUnits="userSpaceOnUse">
<stop stop-color="#5D82FE"/>
<stop offset="1" stop-color="#90A9FE"/>
</linearGradient>
<linearGradient id="paint2_linear_1413_13105" x1="42.8809" y1="33.9364" x2="70.9974" y2="82.5505" gradientUnits="userSpaceOnUse">
<stop stop-color="white" stop-opacity="0.25"/>
<stop offset="1" stop-color="white" stop-opacity="0"/>
</linearGradient>
<linearGradient id="paint3_linear_1413_13105" x1="66.2468" y1="49.5271" x2="40.699" y2="47.0951" gradientUnits="userSpaceOnUse">
<stop stop-color="white"/>
<stop offset="1" stop-color="white" stop-opacity="0.2"/>
</linearGradient>
<linearGradient id="paint4_linear_1413_13105" x1="48.9651" y1="44.5968" x2="48.3443" y2="50.3883" gradientUnits="userSpaceOnUse">
<stop stop-color="white" stop-opacity="0.25"/>
<stop offset="1" stop-color="white" stop-opacity="0"/>
</linearGradient>
</defs>
</svg>
