<svg width="25" height="24" viewBox="0 0 25 24" fill="none" xmlns="http://www.w3.org/2000/svg">
<path d="M16.8247 8.91927C17.9015 9.24074 18.7526 9.8806 19.3752 10.8296C19.9797 11.7538 20.2504 12.7801 20.1121 13.8898C19.8865 15.7042 18.9241 16.9654 17.2939 17.6887C16.7917 17.9113 16.2623 18.0442 15.7089 18.0288C15.6067 18.0257 15.6127 18.0844 15.6127 18.1524C15.6127 18.5326 15.6097 18.9128 15.6157 19.293C15.6187 19.5125 15.5826 19.7041 15.3781 19.8185C15.1675 19.936 14.9871 19.8525 14.8066 19.7289C14.0186 19.1848 13.2276 18.647 12.4366 18.1029C12.3584 18.0473 12.2802 18.0257 12.187 18.0257C11.396 18.0164 10.605 18.0689 9.81696 18.0009C8.52669 17.8866 7.46801 17.2962 6.65895 16.2576C5.90103 15.2839 5.58222 14.1618 5.70854 12.9192C5.81983 11.8095 6.27699 10.8605 7.05295 10.0846C7.82591 9.30565 8.75828 8.86363 9.84103 8.76471C9.86509 8.76162 9.88915 8.75235 9.91321 8.74307C11.9133 8.74307 13.9164 8.74307 15.9164 8.74307C16.2172 8.79871 16.524 8.82962 16.8247 8.91927Z" fill="url(#paint0_linear_1252_4736)"/>
<g filter="url(#filter0_bi_1252_4736)">
<path d="M9.00853 4.12491C11.0086 4.12491 13.0117 4.12491 15.0118 4.12491C15.0358 4.13109 15.0599 4.14346 15.0839 4.14655C16.1667 4.24546 17.096 4.68749 17.872 5.46645C18.648 6.24541 19.1051 7.19129 19.2164 8.30099C19.3397 9.54362 19.0239 10.6657 18.263 11.6425C17.454 12.678 16.3983 13.2715 15.105 13.3859C14.317 13.457 13.526 13.4044 12.735 13.4106C12.6417 13.4106 12.5636 13.4322 12.4854 13.4879C11.6974 14.0319 10.9033 14.5698 10.1153 15.1138C9.93488 15.2374 9.75443 15.324 9.54389 15.2034C9.33937 15.0891 9.30328 14.8943 9.30629 14.6779C9.3123 14.2977 9.30629 13.9175 9.3093 13.5373C9.3093 13.4662 9.31531 13.4106 9.21305 13.4137C8.65965 13.426 8.1273 13.2962 7.62803 13.0737C5.9979 12.3472 5.03245 11.0861 4.80988 9.26851C4.67153 8.16189 4.94222 7.13255 5.54675 6.20831C6.16933 5.25934 7.0235 4.61949 8.09722 4.29801C8.39498 4.21146 8.70476 4.18055 9.00853 4.12491Z" fill="#90A9FE" fill-opacity="0.45"/>
</g>
<ellipse cx="8.52441" cy="8.73532" rx="1.125" ry="1.15261" fill="white"/>
<ellipse cx="11.8994" cy="8.73532" rx="1.125" ry="1.15261" fill="white"/>
<ellipse cx="15.2744" cy="8.73532" rx="1.125" ry="1.15261" fill="white"/>
<defs>
<filter id="filter0_bi_1252_4736" x="3.17441" y="2.52491" width="17.6678" height="14.3363" filterUnits="userSpaceOnUse" color-interpolation-filters="sRGB">
<feFlood flood-opacity="0" result="BackgroundImageFix"/>
<feGaussianBlur in="BackgroundImageFix" stdDeviation="0.8"/>
<feComposite in2="SourceAlpha" operator="in" result="effect1_backgroundBlur_1252_4736"/>
<feBlend mode="normal" in="SourceGraphic" in2="effect1_backgroundBlur_1252_4736" result="shape"/>
<feColorMatrix in="SourceAlpha" type="matrix" values="0 0 0 0 0 0 0 0 0 0 0 0 0 0 0 0 0 0 127 0" result="hardAlpha"/>
<feOffset dx="0.08" dy="0.04"/>
<feGaussianBlur stdDeviation="0.2"/>
<feComposite in2="hardAlpha" operator="arithmetic" k2="-1" k3="1"/>
<feColorMatrix type="matrix" values="0 0 0 0 1 0 0 0 0 1 0 0 0 0 1 0 0 0 0.6 0"/>
<feBlend mode="normal" in2="shape" result="effect2_innerShadow_1252_4736"/>
</filter>
<linearGradient id="paint0_linear_1252_4736" x1="6.66238" y1="12.1392" x2="19.4554" y2="10.556" gradientUnits="userSpaceOnUse">
<stop stop-color="#5D82FE"/>
<stop offset="1" stop-color="#90A9FE"/>
</linearGradient>
</defs>
</svg>
