<svg width="24" height="24" viewBox="0 0 24 24" fill="none" xmlns="http://www.w3.org/2000/svg">
<rect x="4.2002" y="5.49318" width="15.2343" height="15.2741" rx="7.61717" fill="url(#paint0_linear_1252_4720)"/>
<g filter="url(#filter0_bi_1252_4720)">
<path d="M17.5753 6.67749C17.8165 6.60841 17.9827 6.3874 17.9827 6.13595V1.91309C17.9827 1.73636 17.9 1.56987 17.7593 1.46346C17.6186 1.35701 17.4362 1.32296 17.2667 1.37154L13.0549 2.5781C12.8137 2.64718 12.6475 2.86819 12.6475 3.11964V10.2913C10.9168 9.03345 8.42353 10.3111 8.43559 12.4702C8.58202 16.0183 13.6249 16.0175 13.7709 12.4702V7.76731L17.5753 6.67749Z" fill="#90A9FE" fill-opacity="0.45"/>
</g>
<ellipse cx="11.8189" cy="13.1302" rx="1.20271" ry="1.20585" fill="white"/>
<defs>
<filter id="filter0_bi_1252_4720" x="6.83193" y="-0.253761" width="12.7541" height="16.9884" filterUnits="userSpaceOnUse" color-interpolation-filters="sRGB">
<feFlood flood-opacity="0" result="BackgroundImageFix"/>
<feGaussianBlur in="BackgroundImageFix" stdDeviation="0.801807"/>
<feComposite in2="SourceAlpha" operator="in" result="effect1_backgroundBlur_1252_4720"/>
<feBlend mode="normal" in="SourceGraphic" in2="effect1_backgroundBlur_1252_4720" result="shape"/>
<feColorMatrix in="SourceAlpha" type="matrix" values="0 0 0 0 0 0 0 0 0 0 0 0 0 0 0 0 0 0 127 0" result="hardAlpha"/>
<feOffset dx="0.0801807" dy="0.0400904"/>
<feGaussianBlur stdDeviation="0.200452"/>
<feComposite in2="hardAlpha" operator="arithmetic" k2="-1" k3="1"/>
<feColorMatrix type="matrix" values="0 0 0 0 1 0 0 0 0 1 0 0 0 0 1 0 0 0 0.6 0"/>
<feBlend mode="normal" in2="shape" result="effect2_innerShadow_1252_4720"/>
</filter>
<linearGradient id="paint0_linear_1252_4720" x1="5.23303" y1="10.1531" x2="18.7896" y2="8.86532" gradientUnits="userSpaceOnUse">
<stop stop-color="#5D82FE"/>
<stop offset="1" stop-color="#90A9FE"/>
</linearGradient>
</defs>
</svg>
