<svg width="24" height="24" viewBox="0 0 24 24" fill="none" xmlns="http://www.w3.org/2000/svg">
<rect width="24" height="24" fill="white"/>
<path d="M14.9153 12.7575L8.26892 6.09959C7.56928 5.38557 6.40685 5.36561 5.68427 6.06366C5.43241 6.29686 5.25974 6.60098 5.17847 6.9217L2.73668 16.0805C2.60696 17.0691 3.31887 17.9787 4.32149 18.1011C4.52069 18.1206 4.7259 18.1127 4.9225 18.0726L14.0583 15.6247C14.5197 15.4746 14.8956 15.1551 15.1212 14.7241C15.3465 14.2919 15.388 13.7975 15.2387 13.3404C15.173 13.1452 15.0782 12.9658 14.9153 12.7575Z" fill="url(#paint0_linear_1408_6422)"/>
<g filter="url(#filter0_f_1408_6422)">
<path d="M12.3287 13.3337L8.51809 9.51654C8.11697 9.10718 7.45052 9.09574 7.03625 9.49594C6.89185 9.62965 6.79285 9.804 6.74626 9.98788L5.34631 15.2388C5.27195 15.8056 5.6801 16.3271 6.25493 16.3973C6.36913 16.4085 6.48679 16.404 6.5995 16.381L11.8373 14.9775C12.1018 14.8915 12.3173 14.7083 12.4467 14.4612C12.5759 14.2134 12.5996 13.93 12.5141 13.6679C12.4764 13.556 12.422 13.4531 12.3287 13.3337Z" fill="url(#paint1_linear_1408_6422)"/>
</g>
<g filter="url(#filter1_b_1408_6422)">
<path d="M22.7672 15.9776L16.683 5.41846C16.047 4.29047 14.5992 3.87577 13.461 4.50694C13.0677 4.71429 12.7497 5.03693 12.5404 5.411L6.41446 16.0523C5.9207 17.2458 6.50652 18.6226 7.72 19.1119C7.9627 19.2032 8.22213 19.2621 8.48156 19.2778H20.7335C21.3612 19.2446 21.9386 18.9709 22.3655 18.5073C22.7923 18.042 23.0098 17.4374 22.9764 16.8153C22.9596 16.5491 22.9011 16.2928 22.7672 15.9776Z" fill="#FF6B6B" fill-opacity="0.36"/>
<path d="M22.8615 15.9375L22.8622 15.9372L22.856 15.9264L16.7723 5.36812C16.7722 5.36799 16.7722 5.36787 16.7721 5.36774C16.1086 4.19149 14.5996 3.75901 13.4123 4.41678C13.0011 4.63378 12.6695 4.97056 12.4513 5.36041C12.4512 5.3606 12.4511 5.36078 12.451 5.36096L6.32564 16.0011L6.32488 16.0007L6.31976 16.0131C5.80382 17.2602 6.41633 18.6967 7.68167 19.207L7.68166 19.207L7.68394 19.2079C7.93534 19.3024 8.20482 19.3637 8.47535 19.3801L8.47534 19.3803H8.48156H20.7335V19.3805L20.7389 19.3802C21.3936 19.3456 21.9961 19.0599 22.4409 18.5767L22.441 18.5766C22.8862 18.0912 23.1137 17.4597 23.0787 16.8098L23.0787 16.8089C23.0611 16.53 22.9995 16.2624 22.8615 15.9375Z" stroke="url(#paint2_linear_1408_6422)" stroke-width="0.204985" stroke-linecap="round" stroke-linejoin="round"/>
</g>
<g filter="url(#filter2_bd_1408_6422)">
<mask id="path-5-inside-1_1408_6422" fill="white">
<path fill-rule="evenodd" clip-rule="evenodd" d="M14.6046 13.1081C15.0063 13.1081 15.3327 12.7755 15.3327 12.3774V10.031C15.3327 9.63205 15.0063 9.30942 14.6046 9.30942C14.2029 9.30942 13.8682 9.63205 13.8682 10.031V12.3774C13.8682 12.7755 14.2029 13.1081 14.6046 13.1081ZM13.8682 15.2144C13.8682 15.6117 14.2029 15.9443 14.6046 15.9443C15.0063 15.9443 15.3327 15.6117 15.3327 15.2053C15.3327 14.808 15.0063 14.4837 14.6046 14.4837C14.2029 14.4837 13.8682 14.8155 13.8682 15.2144Z"/>
</mask>
<path fill-rule="evenodd" clip-rule="evenodd" d="M14.6046 13.1081C15.0063 13.1081 15.3327 12.7755 15.3327 12.3774V10.031C15.3327 9.63205 15.0063 9.30942 14.6046 9.30942C14.2029 9.30942 13.8682 9.63205 13.8682 10.031V12.3774C13.8682 12.7755 14.2029 13.1081 14.6046 13.1081ZM13.8682 15.2144C13.8682 15.6117 14.2029 15.9443 14.6046 15.9443C15.0063 15.9443 15.3327 15.6117 15.3327 15.2053C15.3327 14.808 15.0063 14.4837 14.6046 14.4837C14.2029 14.4837 13.8682 14.8155 13.8682 15.2144Z" fill="url(#paint3_linear_1408_6422)"/>
<path d="M15.2507 12.3774C15.2507 12.7309 14.9604 13.0261 14.6046 13.0261V13.1901C15.0523 13.1901 15.4147 12.8201 15.4147 12.3774H15.2507ZM15.2507 10.031V12.3774H15.4147V10.031H15.2507ZM14.6046 9.39141C14.9618 9.39141 15.2507 9.67809 15.2507 10.031H15.4147C15.4147 9.58602 15.0509 9.22742 14.6046 9.22742V9.39141ZM13.9502 10.031C13.9502 9.6793 14.2462 9.39141 14.6046 9.39141V9.22742C14.1596 9.22742 13.7862 9.58481 13.7862 10.031H13.9502ZM13.9502 12.3774V10.031H13.7862V12.3774H13.9502ZM14.6046 13.0261C14.2476 13.0261 13.9502 12.7296 13.9502 12.3774H13.7862C13.7862 12.8214 14.1582 13.1901 14.6046 13.1901V13.0261ZM14.6046 15.8623C14.2476 15.8623 13.9502 15.5658 13.9502 15.2144H13.7862C13.7862 15.6576 14.1583 16.0263 14.6046 16.0263V15.8623ZM15.2507 15.2053C15.2507 15.5677 14.9598 15.8623 14.6046 15.8623V16.0263C15.0528 16.0263 15.4147 15.6557 15.4147 15.2053H15.2507ZM14.6046 14.5657C14.9617 14.5657 15.2507 14.8539 15.2507 15.2053H15.4147C15.4147 14.7621 15.051 14.4017 14.6046 14.4017V14.5657ZM13.9502 15.2144C13.9502 14.8614 14.2476 14.5657 14.6046 14.5657V14.4017C14.1583 14.4017 13.7862 14.7695 13.7862 15.2144H13.9502Z" fill="url(#paint4_linear_1408_6422)" mask="url(#path-5-inside-1_1408_6422)"/>
</g>
<defs>
<filter id="filter0_f_1408_6422" x="1.44317" y="5.30781" width="15.016" height="14.9901" filterUnits="userSpaceOnUse" color-interpolation-filters="sRGB">
<feFlood flood-opacity="0" result="BackgroundImageFix"/>
<feBlend mode="normal" in="SourceGraphic" in2="BackgroundImageFix" result="shape"/>
<feGaussianBlur stdDeviation="1.94736" result="effect1_foregroundBlur_1408_6422"/>
</filter>
<filter id="filter1_b_1408_6422" x="1.11453" y="-0.913296" width="26.9897" height="25.316" filterUnits="userSpaceOnUse" color-interpolation-filters="sRGB">
<feFlood flood-opacity="0" result="BackgroundImageFix"/>
<feGaussianBlur in="BackgroundImageFix" stdDeviation="2.45983"/>
<feComposite in2="SourceAlpha" operator="in" result="effect1_backgroundBlur_1408_6422"/>
<feBlend mode="normal" in="SourceGraphic" in2="effect1_backgroundBlur_1408_6422" result="shape"/>
</filter>
<filter id="filter2_bd_1408_6422" x="10.7934" y="6.23464" width="7.61441" height="12.7844" filterUnits="userSpaceOnUse" color-interpolation-filters="sRGB">
<feFlood flood-opacity="0" result="BackgroundImageFix"/>
<feGaussianBlur in="BackgroundImageFix" stdDeviation="1.53739"/>
<feComposite in2="SourceAlpha" operator="in" result="effect1_backgroundBlur_1408_6422"/>
<feColorMatrix in="SourceAlpha" type="matrix" values="0 0 0 0 0 0 0 0 0 0 0 0 0 0 0 0 0 0 127 0" result="hardAlpha"/>
<feOffset dx="1.02493" dy="1.02493"/>
<feGaussianBlur stdDeviation="1.02493"/>
<feColorMatrix type="matrix" values="0 0 0 0 1 0 0 0 0 0.420833 0 0 0 0 0.420833 0 0 0 1 0"/>
<feBlend mode="normal" in2="effect1_backgroundBlur_1408_6422" result="effect2_dropShadow_1408_6422"/>
<feBlend mode="normal" in="SourceGraphic" in2="effect2_dropShadow_1408_6422" result="shape"/>
</filter>
<linearGradient id="paint0_linear_1408_6422" x1="9.10729" y1="11.7371" x2="0.129292" y2="20.2212" gradientUnits="userSpaceOnUse">
<stop stop-color="#FF6B6B"/>
<stop offset="1" stop-color="#FF2E2E"/>
</linearGradient>
<linearGradient id="paint1_linear_1408_6422" x1="7.49338" y1="9.23804" x2="9.21924" y2="15.679" gradientUnits="userSpaceOnUse">
<stop stop-color="#FF6B6B"/>
<stop offset="1" stop-color="#FF6B6B" stop-opacity="0"/>
</linearGradient>
<linearGradient id="paint2_linear_1408_6422" x1="8.90407" y1="5.96665" x2="18.2549" y2="18.8347" gradientUnits="userSpaceOnUse">
<stop stop-color="white" stop-opacity="0.25"/>
<stop offset="1" stop-color="white" stop-opacity="0"/>
</linearGradient>
<linearGradient id="paint3_linear_1408_6422" x1="14.6006" y1="9.68367" x2="13.2559" y2="9.55914" gradientUnits="userSpaceOnUse">
<stop stop-color="white" stop-opacity="0.75"/>
<stop offset="1" stop-color="white" stop-opacity="0.2"/>
</linearGradient>
<linearGradient id="paint4_linear_1408_6422" x1="14.1013" y1="10.0824" x2="16.3039" y2="10.6846" gradientUnits="userSpaceOnUse">
<stop stop-color="white" stop-opacity="0.25"/>
<stop offset="1" stop-color="white" stop-opacity="0"/>
</linearGradient>
</defs>
</svg>
