<svg width="25" height="24" viewBox="0 0 25 24" fill="none" xmlns="http://www.w3.org/2000/svg">
<g filter="url(#filter0_b_1252_4713)">
<path d="M12.0819 3.9679L5.74413 5.66611C3.43454 6.28497 2.47657 7.94404 3.09537 10.2534L4.7918 16.5846C5.4106 18.894 7.06976 19.8518 9.37935 19.2329L15.7172 17.5347C18.0267 16.9159 18.9787 15.2584 18.3599 12.949L16.6635 6.61786C16.0447 4.30848 14.3915 3.34905 12.0819 3.9679Z" fill="url(#paint0_linear_1252_4713)"/>
</g>
<g opacity="0.5" filter="url(#filter1_f_1252_4713)">
<path d="M15.204 12.2647L14.0531 7.90503C13.6356 6.32366 12.5908 5.61459 11.217 5.97727L6.56398 7.20563C5.16763 7.57425 4.62694 8.70189 5.04441 10.2833L6.19533 14.6429C6.61953 16.2498 7.63948 16.9376 9.03583 16.569L13.6888 15.3406C15.0627 14.9779 15.6282 13.8716 15.204 12.2647Z" fill="#7795FE"/>
</g>
<g filter="url(#filter2_b_1252_4713)">
<mask id="path-3-outside-1_1252_4713" maskUnits="userSpaceOnUse" x="6.28613" y="5.95508" width="16" height="16" fill="black">
<rect fill="white" x="6.28613" y="5.95508" width="16" height="16"/>
<path d="M17.5923 6.95508H11.0316C8.64073 6.95508 7.28613 8.30968 7.28613 10.7005V17.255C7.28613 19.6459 8.64073 21.0005 11.0316 21.0005H17.5923C19.9832 21.0005 21.3315 19.6459 21.3315 17.255V10.7005C21.3315 8.30968 19.9832 6.95508 17.5923 6.95508"/>
</mask>
<path d="M17.5923 6.95508H11.0316C8.64073 6.95508 7.28613 8.30968 7.28613 10.7005V17.255C7.28613 19.6459 8.64073 21.0005 11.0316 21.0005H17.5923C19.9832 21.0005 21.3315 19.6459 21.3315 17.255V10.7005C21.3315 8.30968 19.9832 6.95508 17.5923 6.95508" fill="#90A9FE" fill-opacity="0.45"/>
<path d="M17.5923 7.13133C17.6897 7.13133 17.7686 7.05242 17.7686 6.95508C17.7686 6.85774 17.6897 6.77883 17.5923 6.77883V7.13133ZM17.5923 6.77883C17.495 6.77883 17.4161 6.85774 17.4161 6.95508C17.4161 7.05242 17.495 7.13133 17.5923 7.13133V6.77883ZM17.5923 6.77883H11.0316V7.13133H17.5923V6.77883ZM11.0316 6.77883C9.80339 6.77883 8.81694 7.12733 8.13766 7.80661C7.45838 8.48589 7.10988 9.47233 7.10988 10.7005H7.46238C7.46238 9.53787 7.79118 8.65159 8.38692 8.05586C8.98265 7.46013 9.86892 7.13133 11.0316 7.13133V6.77883ZM7.10988 10.7005V17.255H7.46238V10.7005H7.10988ZM7.10988 17.255C7.10988 18.4832 7.45838 19.4697 8.13766 20.149C8.81694 20.8282 9.80339 21.1767 11.0316 21.1767V20.8242C9.86892 20.8242 8.98265 20.4954 8.38692 19.8997C7.79118 19.304 7.46238 18.4177 7.46238 17.255H7.10988ZM11.0316 21.1767H17.5923V20.8242H11.0316V21.1767ZM17.5923 21.1767C18.8205 21.1767 19.8055 20.8282 20.4833 20.1488C21.161 19.4694 21.5078 18.483 21.5078 17.255H21.1553C21.1553 18.4179 20.8279 19.3042 20.2337 19.8999C19.6396 20.4954 18.755 20.8242 17.5923 20.8242V21.1767ZM21.5078 17.255V10.7005H21.1553V17.255H21.5078ZM21.5078 10.7005C21.5078 9.47255 21.161 8.48611 20.4833 7.80676C19.8055 7.12734 18.8205 6.77883 17.5923 6.77883V7.13133C18.755 7.13133 19.6396 7.46012 20.2337 8.05571C20.8279 8.65136 21.1553 9.53765 21.1553 10.7005H21.5078Z" fill="url(#paint1_linear_1252_4713)" mask="url(#path-3-outside-1_1252_4713)"/>
</g>
<g filter="url(#filter3_b_1252_4713)">
<mask id="path-5-inside-2_1252_4713" fill="white">
<path fill-rule="evenodd" clip-rule="evenodd" d="M14.332 9.82646C14.0136 9.82646 13.7515 10.0886 13.7515 10.4132V17.5421C13.7515 17.8604 14.0136 18.1226 14.332 18.1226C14.6566 18.1226 14.9188 17.8604 14.9188 17.5421V10.4132C14.9188 10.0886 14.6566 9.82646 14.332 9.82646ZM11.0552 12.1305C10.7368 12.1305 10.4746 12.3927 10.4746 12.7173V17.5427C10.4746 17.861 10.7368 18.1232 11.0552 18.1232C11.3798 18.1232 11.6419 17.861 11.6419 17.5427V12.7173C11.6419 12.3927 11.3798 12.1305 11.0552 12.1305ZM16.9785 15.2635C16.9785 14.9389 17.2407 14.6767 17.5653 14.6767C17.8837 14.6767 18.1458 14.9389 18.1458 15.2635V17.542C18.1458 17.8603 17.8837 18.1225 17.5591 18.1225C17.2407 18.1225 16.9785 17.8603 16.9785 17.542V15.2635Z"/>
</mask>
<path fill-rule="evenodd" clip-rule="evenodd" d="M14.332 9.82646C14.0136 9.82646 13.7515 10.0886 13.7515 10.4132V17.5421C13.7515 17.8604 14.0136 18.1226 14.332 18.1226C14.6566 18.1226 14.9188 17.8604 14.9188 17.5421V10.4132C14.9188 10.0886 14.6566 9.82646 14.332 9.82646ZM11.0552 12.1305C10.7368 12.1305 10.4746 12.3927 10.4746 12.7173V17.5427C10.4746 17.861 10.7368 18.1232 11.0552 18.1232C11.3798 18.1232 11.6419 17.861 11.6419 17.5427V12.7173C11.6419 12.3927 11.3798 12.1305 11.0552 12.1305ZM16.9785 15.2635C16.9785 14.9389 17.2407 14.6767 17.5653 14.6767C17.8837 14.6767 18.1458 14.9389 18.1458 15.2635V17.542C18.1458 17.8603 17.8837 18.1225 17.5591 18.1225C17.2407 18.1225 16.9785 17.8603 16.9785 17.542V15.2635Z" fill="url(#paint2_linear_1252_4713)"/>
<path d="M13.822 10.4132C13.822 10.1271 14.0531 9.89696 14.332 9.89696V9.75596C13.9742 9.75596 13.681 10.0502 13.681 10.4132H13.822ZM13.822 17.5421V10.4132H13.681V17.5421H13.822ZM14.332 18.0521C14.0526 18.0521 13.822 17.8215 13.822 17.5421H13.681C13.681 17.8994 13.9747 18.1931 14.332 18.1931V18.0521ZM14.8483 17.5421C14.8483 17.821 14.6182 18.0521 14.332 18.0521V18.1931C14.6951 18.1931 14.9893 17.8999 14.9893 17.5421H14.8483ZM14.8483 10.4132V17.5421H14.9893V10.4132H14.8483ZM14.332 9.89696C14.6177 9.89696 14.8483 10.1276 14.8483 10.4132H14.9893C14.9893 10.0497 14.6955 9.75596 14.332 9.75596V9.89696ZM10.5451 12.7173C10.5451 12.4311 10.7762 12.201 11.0552 12.201V12.06C10.6974 12.06 10.4041 12.3543 10.4041 12.7173H10.5451ZM10.5451 17.5427V12.7173H10.4041V17.5427H10.5451ZM11.0552 18.0527C10.7757 18.0527 10.5451 17.8221 10.5451 17.5427H10.4041C10.4041 17.9 10.6979 18.1937 11.0552 18.1937V18.0527ZM11.5714 17.5427C11.5714 17.8216 11.3413 18.0527 11.0552 18.0527V18.1937C11.4182 18.1937 11.7124 17.9005 11.7124 17.5427H11.5714ZM11.5714 12.7173V17.5427H11.7124V12.7173H11.5714ZM11.0552 12.201C11.3408 12.201 11.5714 12.4316 11.5714 12.7173H11.7124C11.7124 12.3538 11.4187 12.06 11.0552 12.06V12.201ZM17.5653 14.6062C17.2018 14.6062 16.908 14.9 16.908 15.2635H17.049C17.049 14.9778 17.2796 14.7472 17.5653 14.7472V14.6062ZM18.2163 15.2635C18.2163 14.9004 17.9231 14.6062 17.5653 14.6062V14.7472C17.8442 14.7472 18.0753 14.9773 18.0753 15.2635H18.2163ZM18.2163 17.542V15.2635H18.0753V17.542H18.2163ZM17.5591 18.193C17.9221 18.193 18.2163 17.8998 18.2163 17.542H18.0753C18.0753 17.8209 17.8452 18.052 17.5591 18.052V18.193ZM16.908 17.542C16.908 17.8993 17.2018 18.193 17.5591 18.193V18.052C17.2796 18.052 17.049 17.8214 17.049 17.542H16.908ZM16.908 15.2635V17.542H17.049V15.2635H16.908Z" fill="url(#paint3_linear_1252_4713)" mask="url(#path-5-inside-2_1252_4713)"/>
</g>
<defs>
<filter id="filter0_b_1252_4713" x="0.619889" y="1.49291" width="20.2153" height="20.2152" filterUnits="userSpaceOnUse" color-interpolation-filters="sRGB">
<feFlood flood-opacity="0" result="BackgroundImageFix"/>
<feGaussianBlur in="BackgroundImageFix" stdDeviation="1.14562"/>
<feComposite in2="SourceAlpha" operator="in" result="effect1_backgroundBlur_1252_4713"/>
<feBlend mode="normal" in="SourceGraphic" in2="effect1_backgroundBlur_1252_4713" result="shape"/>
</filter>
<filter id="filter1_f_1252_4713" x="2.61598" y="3.59299" width="15.0171" height="15.3644" filterUnits="userSpaceOnUse" color-interpolation-filters="sRGB">
<feFlood flood-opacity="0" result="BackgroundImageFix"/>
<feBlend mode="normal" in="SourceGraphic" in2="BackgroundImageFix" result="shape"/>
<feGaussianBlur stdDeviation="1.14562" result="effect1_foregroundBlur_1252_4713"/>
</filter>
<filter id="filter2_b_1252_4713" x="4.46661" y="4.13509" width="19.6849" height="19.6854" filterUnits="userSpaceOnUse" color-interpolation-filters="sRGB">
<feFlood flood-opacity="0" result="BackgroundImageFix"/>
<feGaussianBlur in="BackgroundImageFix" stdDeviation="1.32187"/>
<feComposite in2="SourceAlpha" operator="in" result="effect1_backgroundBlur_1252_4713"/>
<feBlend mode="normal" in="SourceGraphic" in2="effect1_backgroundBlur_1252_4713" result="shape"/>
</filter>
<filter id="filter3_b_1252_4713" x="7.83087" y="7.18272" width="12.9584" height="13.5842" filterUnits="userSpaceOnUse" color-interpolation-filters="sRGB">
<feFlood flood-opacity="0" result="BackgroundImageFix"/>
<feGaussianBlur in="BackgroundImageFix" stdDeviation="1.32187"/>
<feComposite in2="SourceAlpha" operator="in" result="effect1_backgroundBlur_1252_4713"/>
<feBlend mode="normal" in="SourceGraphic" in2="effect1_backgroundBlur_1252_4713" result="shape"/>
</filter>
<linearGradient id="paint0_linear_1252_4713" x1="-64.9968" y1="39.1619" x2="86.4511" y2="-15.962" gradientUnits="userSpaceOnUse">
<stop stop-color="#5D82FE"/>
<stop offset="1" stop-color="#90A9FE"/>
</linearGradient>
<linearGradient id="paint1_linear_1252_4713" x1="9.52193" y1="8.59139" x2="18.4814" y2="19.6879" gradientUnits="userSpaceOnUse">
<stop stop-color="white" stop-opacity="0.25"/>
<stop offset="1" stop-color="white" stop-opacity="0"/>
</linearGradient>
<linearGradient id="paint2_linear_1252_4713" x1="8.48892" y1="15.9845" x2="12.0833" y2="23.3676" gradientUnits="userSpaceOnUse">
<stop stop-color="white"/>
<stop offset="1" stop-color="white" stop-opacity="0.2"/>
</linearGradient>
<linearGradient id="paint3_linear_1252_4713" x1="11.6957" y1="10.793" x2="17.0604" y2="16.9364" gradientUnits="userSpaceOnUse">
<stop stop-color="white" stop-opacity="0.25"/>
<stop offset="1" stop-color="white" stop-opacity="0"/>
</linearGradient>
</defs>
</svg>
