<svg width="24" height="24" viewBox="0 0 24 24" fill="none" xmlns="http://www.w3.org/2000/svg">
<path d="M13.8486 4.01582C13.0874 3.61978 12.1996 3.55151 11.3908 3.82334L6.05524 5.253C5.21314 5.42354 4.47848 5.92652 4.01724 6.65014C3.62119 7.41139 3.55291 8.2991 3.82627 9.11365L5.25592 14.4492C5.42646 15.2913 5.92944 16.0259 6.65306 16.4872C7.41431 16.8832 8.30204 16.9515 9.11659 16.6781L14.4522 15.2484C15.2885 15.0794 16.0289 14.5749 16.4902 13.8513C16.8805 13.0916 16.9545 12.2023 16.6811 11.3878L15.2515 6.05227C15.0752 5.21171 14.5722 4.47706 13.8486 4.01582Z" fill="url(#paint0_linear_1252_4743)"/>
<g opacity="0.5" filter="url(#filter0_f_1252_4743)">
<path d="M11.1562 5.51928L7.13252 6.64164C5.67302 7.04875 5.03285 8.03721 5.392 9.32478L6.6084 13.6856C6.97344 14.9943 8.02811 15.4918 9.48761 15.0847L13.5113 13.9624C14.9943 13.5487 15.6152 12.5838 15.2502 11.2751L14.0338 6.91427C13.6746 5.6267 12.6392 5.10561 11.1562 5.51928Z" fill="#7795FE"/>
</g>
<g filter="url(#filter1_b_1252_4743)">
<mask id="path-3-outside-1_1252_4743" maskUnits="userSpaceOnUse" x="6.25488" y="5.78215" width="15" height="15" fill="black">
<rect fill="white" x="6.25488" y="5.78215" width="15" height="15"/>
<path d="M19.2183 7.68234C18.5305 7.05236 17.6177 6.73094 16.692 6.7888H10.6879C9.75575 6.73094 8.84292 7.05236 8.15508 7.68234C7.5251 8.37017 7.20368 9.28299 7.26153 10.2151V16.2192C7.20368 17.1513 7.5251 18.0641 8.15508 18.7519C8.84292 19.3819 9.75575 19.7033 10.6879 19.6455H16.692C17.6177 19.7033 18.5369 19.3819 19.2248 18.7519C19.8483 18.0641 20.1762 17.1513 20.1183 16.2192V10.2151C20.1697 9.28299 19.8483 8.37017 19.2183 7.68234Z"/>
</mask>
<path d="M19.2183 7.68234C18.5305 7.05236 17.6177 6.73094 16.692 6.7888H10.6879C9.75575 6.73094 8.84292 7.05236 8.15508 7.68234C7.5251 8.37017 7.20368 9.28299 7.26153 10.2151V16.2192C7.20368 17.1513 7.5251 18.0641 8.15508 18.7519C8.84292 19.3819 9.75575 19.7033 10.6879 19.6455H16.692C17.6177 19.7033 18.5369 19.3819 19.2248 18.7519C19.8483 18.0641 20.1762 17.1513 20.1183 16.2192V10.2151C20.1697 9.28299 19.8483 8.37017 19.2183 7.68234Z" fill="#90A9FE" fill-opacity="0.45"/>
<path d="M19.0999 7.8117C19.1713 7.87714 19.2823 7.87227 19.3477 7.80082C19.4131 7.72937 19.4083 7.61841 19.3368 7.55297L19.0999 7.8117ZM16.692 6.7888V6.96457L16.7029 6.96388L16.692 6.7888ZM10.6879 6.7888L10.677 6.96422H10.6879V6.7888ZM8.15508 7.68234L8.0366 7.55297C8.03281 7.55644 8.02918 7.56007 8.02571 7.56385L8.15508 7.68234ZM7.26153 10.2151H7.4373L7.43662 10.2042L7.26153 10.2151ZM7.26153 16.2192L7.43696 16.2301V16.2192H7.26153ZM8.15508 18.7519L8.02571 18.8704C8.02918 18.8742 8.03281 18.8778 8.0366 18.8813L8.15508 18.7519ZM10.6879 19.6455V19.4697L10.677 19.4704L10.6879 19.6455ZM16.692 19.6455L16.7029 19.47H16.692V19.6455ZM19.2248 18.7519L19.3432 18.8813C19.3473 18.8776 19.3511 18.8738 19.3547 18.8698L19.2248 18.7519ZM20.1183 16.2192H19.9425L19.9432 16.23L20.1183 16.2192ZM20.1183 10.2151L19.9429 10.2054V10.2151H20.1183ZM19.3477 7.56385C19.2823 7.49241 19.1713 7.48754 19.0999 7.55297C19.0284 7.61841 19.0235 7.72938 19.089 7.80082L19.3477 7.56385ZM19.3368 7.55297C18.6138 6.89081 17.6543 6.55289 16.681 6.61372L16.7029 6.96388C17.581 6.909 18.4472 7.21391 19.0999 7.8117L19.3368 7.55297ZM16.692 6.61337H10.6879V6.96422H16.692V6.61337ZM10.6987 6.61371C9.71927 6.55292 8.7597 6.8907 8.0366 7.55297L8.27356 7.8117C8.92613 7.21403 9.79222 6.90897 10.677 6.96389L10.6987 6.61371ZM8.02571 7.56385C7.36343 8.28695 7.02565 9.24652 7.08645 10.226L7.43662 10.2042C7.3817 9.31947 7.68676 8.45339 8.28444 7.80082L8.02571 7.56385ZM7.08611 10.2151V16.2192H7.43696V10.2151H7.08611ZM7.08645 16.2083C7.02565 17.1878 7.36343 18.1473 8.02571 18.8704L8.28444 18.6334C7.68676 17.9809 7.3817 17.1148 7.43662 16.23L7.08645 16.2083ZM8.0366 18.8813C8.7597 19.5436 9.71927 19.8814 10.6987 19.8206L10.677 19.4704C9.79222 19.5253 8.92613 19.2202 8.27356 18.6226L8.0366 18.8813ZM10.6879 19.8209H16.692V19.47H10.6879V19.8209ZM16.681 19.8206C17.654 19.8814 18.6201 19.5437 19.3432 18.8813L19.1063 18.6226C18.4538 19.2202 17.5813 19.5253 16.7029 19.4704L16.681 19.8206ZM19.3547 18.8698C20.0095 18.1475 20.3542 17.1885 20.2934 16.2083L19.9432 16.23C19.9981 17.1141 19.6872 17.9807 19.0948 18.6341L19.3547 18.8698ZM20.2937 16.2192V10.2151H19.9429V16.2192H20.2937ZM20.2935 10.2248C20.3475 9.24617 20.01 8.28697 19.3477 7.56385L19.089 7.80082C19.6866 8.45337 19.992 9.31982 19.9432 10.2054L20.2935 10.2248Z" fill="url(#paint1_linear_1252_4743)" mask="url(#path-3-outside-1_1252_4743)"/>
</g>
<mask id="path-5-inside-2_1252_4743" fill="white">
<path d="M17.359 11.996L13.0327 16.3351C12.8077 16.5537 12.512 16.6758 12.2034 16.6758H10.6928C10.6092 16.6758 10.532 16.6437 10.4742 16.5859C10.4163 16.528 10.3906 16.4509 10.3906 16.3673L10.4292 14.8438C10.4356 14.5416 10.5578 14.2588 10.7699 14.0467L13.8362 10.9803C13.8877 10.9289 13.9777 10.9289 14.0291 10.9803L15.1026 12.0474C15.1733 12.1182 15.2762 12.1632 15.3855 12.1632C15.6233 12.1632 15.8098 11.9703 15.8098 11.7389C15.8098 11.6232 15.7648 11.5203 15.694 11.4432C15.6748 11.4175 14.6526 10.4018 14.6526 10.4018C14.5884 10.3375 14.5884 10.2282 14.6526 10.1639L15.0833 9.72682C15.4819 9.32826 16.1247 9.32826 16.5233 9.72682L17.359 10.5625C17.7511 10.9546 17.7511 11.5975 17.359 11.996Z"/>
</mask>
<path d="M17.359 11.996L13.0327 16.3351C12.8077 16.5537 12.512 16.6758 12.2034 16.6758H10.6928C10.6092 16.6758 10.532 16.6437 10.4742 16.5859C10.4163 16.528 10.3906 16.4509 10.3906 16.3673L10.4292 14.8438C10.4356 14.5416 10.5578 14.2588 10.7699 14.0467L13.8362 10.9803C13.8877 10.9289 13.9777 10.9289 14.0291 10.9803L15.1026 12.0474C15.1733 12.1182 15.2762 12.1632 15.3855 12.1632C15.6233 12.1632 15.8098 11.9703 15.8098 11.7389C15.8098 11.6232 15.7648 11.5203 15.694 11.4432C15.6748 11.4175 14.6526 10.4018 14.6526 10.4018C14.5884 10.3375 14.5884 10.2282 14.6526 10.1639L15.0833 9.72682C15.4819 9.32826 16.1247 9.32826 16.5233 9.72682L17.359 10.5625C17.7511 10.9546 17.7511 11.5975 17.359 11.996Z" fill="url(#paint2_linear_1252_4743)"/>
<path d="M13.0327 16.3351L13.0571 16.3603L13.0575 16.3599L13.0327 16.3351ZM10.3906 16.3673L10.3555 16.3664V16.3673H10.3906ZM10.4292 14.8438L10.4643 14.8447L10.4643 14.8445L10.4292 14.8438ZM10.7699 14.0467L10.7947 14.0715L10.7699 14.0467ZM13.8362 10.9803L13.8114 10.9555L13.8362 10.9803ZM14.0291 10.9803L14.0043 11.0052L14.0044 11.0052L14.0291 10.9803ZM15.1026 12.0474L15.1274 12.0226L15.1274 12.0226L15.1026 12.0474ZM15.694 11.4432L15.6658 11.4643L15.6682 11.4669L15.694 11.4432ZM14.6526 10.4018L14.6278 10.4266L14.6279 10.4267L14.6526 10.4018ZM14.6526 10.1639L14.6775 10.1888L14.6776 10.1886L14.6526 10.1639ZM15.0833 9.72682L15.0585 9.70201L15.0584 9.70219L15.0833 9.72682ZM16.5233 9.72682L16.4985 9.75163L16.5233 9.72682ZM17.359 10.5625L17.3838 10.5377L17.359 10.5625ZM17.3342 11.9712L13.0078 16.3104L13.0575 16.3599L17.3838 12.0208L17.3342 11.9712ZM13.0082 16.31C12.7896 16.5224 12.5026 16.6408 12.2034 16.6408V16.7109C12.5214 16.7109 12.8258 16.5851 13.0571 16.3603L13.0082 16.31ZM12.2034 16.6408H10.6928V16.7109H12.2034V16.6408ZM10.6928 16.6408C10.6184 16.6408 10.5502 16.6123 10.499 16.561L10.4494 16.6107C10.5139 16.6751 10.5999 16.7109 10.6928 16.7109V16.6408ZM10.499 16.561C10.449 16.5111 10.4257 16.4436 10.4257 16.3673H10.3555C10.3555 16.4581 10.3836 16.5449 10.4494 16.6107L10.499 16.561ZM10.4257 16.3682L10.4643 14.8447L10.3941 14.8429L10.3556 16.3664L10.4257 16.3682ZM10.4643 14.8445C10.4705 14.5515 10.5889 14.2773 10.7947 14.0715L10.7451 14.0219C10.5266 14.2403 10.4007 14.5318 10.3941 14.843L10.4643 14.8445ZM10.7947 14.0715L13.861 11.0052L13.8114 10.9555L10.7451 14.0219L10.7947 14.0715ZM13.861 11.0052C13.8988 10.9674 13.9666 10.9674 14.0043 11.0052L14.0539 10.9555C13.9888 10.8904 13.8766 10.8904 13.8114 10.9555L13.861 11.0052ZM14.0044 11.0052L15.0779 12.0723L15.1274 12.0226L14.0538 10.9555L14.0044 11.0052ZM15.0778 12.0723C15.155 12.1495 15.2668 12.1982 15.3855 12.1982V12.1281C15.2856 12.1281 15.1917 12.0868 15.1274 12.0226L15.0778 12.0723ZM15.3855 12.1982C15.6431 12.1982 15.8448 11.9893 15.8448 11.7389H15.7747C15.7747 11.9513 15.6036 12.1281 15.3855 12.1281V12.1982ZM15.8448 11.7389C15.8448 11.6138 15.7961 11.5026 15.7199 11.4195L15.6682 11.4669C15.7334 11.538 15.7747 11.6326 15.7747 11.7389H15.8448ZM15.7221 11.4221C15.7192 11.4183 15.7119 11.4107 15.7044 11.4029C15.6957 11.3939 15.6837 11.3816 15.6688 11.3664C15.6389 11.3361 15.5973 11.2943 15.548 11.2448C15.4495 11.146 15.3199 11.0166 15.1909 10.888C15.0619 10.7594 14.9335 10.6316 14.8374 10.536C14.7893 10.4882 14.7493 10.4484 14.7213 10.4206C14.7073 10.4067 14.6964 10.3958 14.6889 10.3883C14.6851 10.3846 14.6822 10.3817 14.6803 10.3798C14.6793 10.3789 14.6786 10.3781 14.6781 10.3776C14.6779 10.3774 14.6777 10.3772 14.6776 10.3771C14.6775 10.377 14.6775 10.377 14.6774 10.377C14.6774 10.3769 14.6774 10.3769 14.6774 10.3769C14.6774 10.3769 14.6774 10.3769 14.6526 10.4018C14.6279 10.4267 14.6279 10.4267 14.6279 10.4267C14.6279 10.4267 14.6279 10.4267 14.628 10.4267C14.628 10.4268 14.628 10.4268 14.6281 10.4269C14.6282 10.427 14.6284 10.4272 14.6287 10.4274C14.6291 10.4279 14.6299 10.4286 14.6308 10.4296C14.6328 10.4315 14.6357 10.4344 14.6394 10.4381C14.6469 10.4455 14.6579 10.4565 14.6719 10.4704C14.6999 10.4982 14.7399 10.538 14.7879 10.5858C14.884 10.6814 15.0124 10.8091 15.1413 10.9377C15.2703 11.0663 15.3998 11.1956 15.4983 11.2944C15.5476 11.3438 15.5891 11.3855 15.6188 11.4157C15.6336 11.4308 15.6455 11.4429 15.6539 11.4516C15.6635 11.4615 15.6665 11.4649 15.666 11.4642L15.7221 11.4221ZM14.6775 10.377C14.6269 10.3264 14.6269 10.2393 14.6775 10.1888L14.6278 10.1391C14.5499 10.2171 14.5499 10.3486 14.6278 10.4266L14.6775 10.377ZM14.6776 10.1886L15.1083 9.75144L15.0584 9.70219L14.6277 10.1393L14.6776 10.1886ZM15.1082 9.75163C15.493 9.36677 16.1136 9.36677 16.4985 9.75163L16.5481 9.70201C16.1359 9.28975 15.4708 9.28975 15.0585 9.70201L15.1082 9.75163ZM16.4985 9.75163L17.3342 10.5873L17.3838 10.5377L16.5481 9.70201L16.4985 9.75163ZM17.3342 10.5873C17.7125 10.9656 17.7128 11.5864 17.334 11.9714L17.384 12.0206C17.7895 11.6085 17.7898 10.9436 17.3838 10.5377L17.3342 10.5873Z" fill="url(#paint3_linear_1252_4743)" fill-opacity="0.5" mask="url(#path-5-inside-2_1252_4743)"/>
<defs>
<filter id="filter0_f_1252_4743" x="2.1363" y="2.22245" width="16.3739" height="16.1584" filterUnits="userSpaceOnUse" color-interpolation-filters="sRGB">
<feFlood flood-opacity="0" result="BackgroundImageFix"/>
<feBlend mode="normal" in="SourceGraphic" in2="BackgroundImageFix" result="shape"/>
<feGaussianBlur stdDeviation="1.57882" result="effect1_foregroundBlur_1252_4743"/>
</filter>
<filter id="filter1_b_1252_4743" x="2.86891" y="2.39653" width="21.6411" height="21.6412" filterUnits="userSpaceOnUse" color-interpolation-filters="sRGB">
<feFlood flood-opacity="0" result="BackgroundImageFix"/>
<feGaussianBlur in="BackgroundImageFix" stdDeviation="2.1051"/>
<feComposite in2="SourceAlpha" operator="in" result="effect1_backgroundBlur_1252_4743"/>
<feBlend mode="normal" in="SourceGraphic" in2="effect1_backgroundBlur_1252_4743" result="shape"/>
</filter>
<linearGradient id="paint0_linear_1252_4743" x1="-53.5764" y1="33.483" x2="74.0837" y2="-12.9815" gradientUnits="userSpaceOnUse">
<stop stop-color="#5D82FE"/>
<stop offset="1" stop-color="#90A9FE"/>
</linearGradient>
<linearGradient id="paint1_linear_1252_4743" x1="9.30357" y1="8.28152" x2="17.5132" y2="18.4494" gradientUnits="userSpaceOnUse">
<stop stop-color="white" stop-opacity="0.25"/>
<stop offset="1" stop-color="white" stop-opacity="0"/>
</linearGradient>
<linearGradient id="paint2_linear_1252_4743" x1="17.1382" y1="10.7367" x2="9.04852" y2="11.001" gradientUnits="userSpaceOnUse">
<stop stop-color="white"/>
<stop offset="1" stop-color="white" stop-opacity="0.2"/>
</linearGradient>
<linearGradient id="paint3_linear_1252_4743" x1="11.173" y1="11.8592" x2="17.3398" y2="11.8933" gradientUnits="userSpaceOnUse">
<stop stop-color="white"/>
<stop offset="1" stop-color="white" stop-opacity="0"/>
</linearGradient>
</defs>
</svg>
