<svg width="25" height="24" viewBox="0 0 25 24" fill="none" xmlns="http://www.w3.org/2000/svg">
<g filter="url(#filter0_b_1252_4716)">
<path d="M14.7754 6.20105C14.1079 6.19422 13.4473 6.18057 12.7867 6.18057V6.05087C12.7798 5.02695 11.9245 4.18733 10.8745 4.1805H10.1861C9.97755 4.1805 9.80371 4.01667 9.80371 3.81189C9.80371 3.53202 9.57425 3.29993 9.2822 3.29993C8.99711 3.29993 8.76069 3.53202 8.76069 3.81189C8.76069 4.57642 9.40041 5.20443 10.1861 5.20443H10.8745C11.3474 5.20443 11.7437 5.58669 11.7437 6.0577V6.17374C10.7981 6.17374 9.86629 6.1874 8.95539 6.20105C6.53559 6.20105 4.77637 7.92124 4.77637 10.2967V13.348C4.77637 15.7236 6.53559 17.4437 8.94844 17.4437C9.91496 17.4642 10.8954 17.4711 11.8689 17.4711C12.8424 17.4711 13.8089 17.4642 14.7754 17.4437C17.1883 17.4437 18.9475 15.7236 18.9475 13.348V10.2967C18.9475 7.92124 17.1883 6.20105 14.7754 6.20105Z" fill="url(#paint0_linear_1252_4716)"/>
</g>
<g filter="url(#filter1_bi_1252_4716)">
<mask id="path-2-outside-1_1252_4716" maskUnits="userSpaceOnUse" x="6.51074" y="8.10493" width="16" height="13" fill="black">
<rect fill="white" x="6.51074" y="8.10493" width="16" height="13"/>
<path fill-rule="evenodd" clip-rule="evenodd" d="M16.6883 9.1235C16.908 9.12651 17.1282 9.12953 17.3492 9.13179C19.7233 9.13179 21.4542 10.8243 21.4542 13.1617V16.1639C21.4542 18.5012 19.7233 20.1938 17.3492 20.1938C16.3982 20.2139 15.4472 20.2206 14.4893 20.2206C13.5315 20.2206 12.5668 20.2139 11.6158 20.1938C9.2417 20.1938 7.51074 18.5012 7.51074 16.1639V13.1617C7.51074 10.8243 9.2417 9.13179 11.6226 9.13179C12.5189 9.11836 13.4357 9.10493 14.3662 9.10493C14.7083 9.10493 15.0503 9.10493 15.3924 9.11164C15.8237 9.11164 16.255 9.11756 16.6883 9.1235ZM13.6822 15.1633H12.9638V15.8752C12.9638 16.1506 12.7312 16.379 12.4507 16.379C12.1634 16.379 11.9376 16.1506 11.9376 15.8752V15.1633H11.2123C10.9318 15.1633 10.6992 14.9416 10.6992 14.6595C10.6992 14.3842 10.9318 14.1558 11.2123 14.1558H11.9376V13.4506C11.9376 13.1752 12.1634 12.9468 12.4507 12.9468C12.7312 12.9468 12.9638 13.1752 12.9638 13.4506V14.1558H13.6822C13.9627 14.1558 14.1954 14.3842 14.1954 14.6595C14.1954 14.9416 13.9627 15.1633 13.6822 15.1633ZM16.5912 14.0287H16.6596C16.9401 14.0287 17.1728 13.807 17.1728 13.5249C17.1728 13.2495 16.9401 13.0212 16.6596 13.0212H16.5912C16.3039 13.0212 16.0781 13.2495 16.0781 13.5249C16.0781 13.807 16.3039 14.0287 16.5912 14.0287ZM17.7604 16.3386H17.8289C18.1094 16.3386 18.342 16.117 18.342 15.8349C18.342 15.5595 18.1094 15.3311 17.8289 15.3311H17.7604C17.4731 15.3311 17.2473 15.5595 17.2473 15.8349C17.2473 16.117 17.4731 16.3386 17.7604 16.3386Z"/>
</mask>
<path fill-rule="evenodd" clip-rule="evenodd" d="M16.6883 9.1235C16.908 9.12651 17.1282 9.12953 17.3492 9.13179C19.7233 9.13179 21.4542 10.8243 21.4542 13.1617V16.1639C21.4542 18.5012 19.7233 20.1938 17.3492 20.1938C16.3982 20.2139 15.4472 20.2206 14.4893 20.2206C13.5315 20.2206 12.5668 20.2139 11.6158 20.1938C9.2417 20.1938 7.51074 18.5012 7.51074 16.1639V13.1617C7.51074 10.8243 9.2417 9.13179 11.6226 9.13179C12.5189 9.11836 13.4357 9.10493 14.3662 9.10493C14.7083 9.10493 15.0503 9.10493 15.3924 9.11164C15.8237 9.11164 16.255 9.11756 16.6883 9.1235ZM13.6822 15.1633H12.9638V15.8752C12.9638 16.1506 12.7312 16.379 12.4507 16.379C12.1634 16.379 11.9376 16.1506 11.9376 15.8752V15.1633H11.2123C10.9318 15.1633 10.6992 14.9416 10.6992 14.6595C10.6992 14.3842 10.9318 14.1558 11.2123 14.1558H11.9376V13.4506C11.9376 13.1752 12.1634 12.9468 12.4507 12.9468C12.7312 12.9468 12.9638 13.1752 12.9638 13.4506V14.1558H13.6822C13.9627 14.1558 14.1954 14.3842 14.1954 14.6595C14.1954 14.9416 13.9627 15.1633 13.6822 15.1633ZM16.5912 14.0287H16.6596C16.9401 14.0287 17.1728 13.807 17.1728 13.5249C17.1728 13.2495 16.9401 13.0212 16.6596 13.0212H16.5912C16.3039 13.0212 16.0781 13.2495 16.0781 13.5249C16.0781 13.807 16.3039 14.0287 16.5912 14.0287ZM17.7604 16.3386H17.8289C18.1094 16.3386 18.342 16.117 18.342 15.8349C18.342 15.5595 18.1094 15.3311 17.8289 15.3311H17.7604C17.4731 15.3311 17.2473 15.5595 17.2473 15.8349C17.2473 16.117 17.4731 16.3386 17.7604 16.3386Z" fill="#90A9FE" fill-opacity="0.45"/>
<path d="M17.3492 9.13179L17.3473 9.31107H17.3492V9.13179ZM16.6883 9.1235L16.6859 9.30276L16.6883 9.1235ZM17.3492 20.1938V20.0145L17.3454 20.0145L17.3492 20.1938ZM11.6158 20.1938L11.6196 20.0145H11.6158V20.1938ZM11.6226 9.13179V9.31109L11.6253 9.31105L11.6226 9.13179ZM15.3924 9.11164L15.3889 9.29092H15.3924V9.11164ZM12.9638 15.1633V14.984C12.8648 14.984 12.7846 15.0643 12.7846 15.1633H12.9638ZM11.9376 15.1633H12.1168C12.1168 15.0643 12.0366 14.984 11.9376 14.984V15.1633ZM11.9376 14.1558V14.3351C12.0366 14.3351 12.1168 14.2548 12.1168 14.1558H11.9376ZM12.9638 14.1558H12.7846C12.7846 14.2548 12.8648 14.3351 12.9638 14.3351V14.1558ZM17.351 8.95253C17.1304 8.95027 16.9105 8.94726 16.6908 8.94424L16.6859 9.30276C16.9055 9.30577 17.126 9.30879 17.3473 9.31106L17.351 8.95253ZM21.6335 13.1617C21.6335 10.722 19.8189 8.95252 17.3492 8.95252V9.31107C19.6276 9.31107 21.2749 10.9267 21.2749 13.1617H21.6335ZM21.6335 16.1639V13.1617H21.2749V16.1639H21.6335ZM17.3492 20.3731C19.8189 20.3731 21.6335 18.6035 21.6335 16.1639H21.2749C21.2749 18.3989 19.6276 20.0145 17.3492 20.0145V20.3731ZM14.4893 20.3999C15.448 20.3999 16.4003 20.3932 17.353 20.373L17.3454 20.0145C16.396 20.0347 15.4464 20.0414 14.4893 20.0414V20.3999ZM11.612 20.373C12.5647 20.3932 13.5307 20.3999 14.4893 20.3999V20.0414C13.5323 20.0414 12.5689 20.0347 11.6196 20.0145L11.612 20.373ZM7.33147 16.1639C7.33147 18.6035 9.14603 20.3731 11.6158 20.3731V20.0145C9.33738 20.0145 7.69002 18.3989 7.69002 16.1639H7.33147ZM7.33147 13.1617V16.1639H7.69002V13.1617H7.33147ZM11.6226 8.95252C9.14623 8.95252 7.33147 10.7218 7.33147 13.1617H7.69002C7.69002 10.9268 9.33718 9.31107 11.6226 9.31107V8.95252ZM14.3662 8.92565C13.4342 8.92565 12.5161 8.93911 11.6199 8.95254L11.6253 9.31105C12.5217 9.29761 13.4372 9.2842 14.3662 9.2842V8.92565ZM15.396 8.9324C15.0518 8.92565 14.708 8.92565 14.3662 8.92565V9.2842C14.7086 9.2842 15.0489 9.28421 15.3889 9.29088L15.396 8.9324ZM16.6908 8.94424C16.2577 8.9383 15.8252 8.93237 15.3924 8.93237V9.29092C15.8223 9.29092 16.2524 9.29681 16.6859 9.30276L16.6908 8.94424ZM12.9638 15.3425H13.6822V14.984H12.9638V15.3425ZM13.1431 15.8752V15.1633H12.7846V15.8752H13.1431ZM12.4507 16.5582C12.8271 16.5582 13.1431 16.2527 13.1431 15.8752H12.7846C12.7846 16.0485 12.6353 16.1997 12.4507 16.1997V16.5582ZM11.7583 15.8752C11.7583 16.2512 12.0659 16.5582 12.4507 16.5582V16.1997C12.2608 16.1997 12.1168 16.05 12.1168 15.8752H11.7583ZM11.7583 15.1633V15.8752H12.1168V15.1633H11.7583ZM11.2123 15.3425H11.9376V14.984H11.2123V15.3425ZM10.5199 14.6595C10.5199 15.0453 10.8375 15.3425 11.2123 15.3425V14.984C11.0261 14.984 10.8785 14.838 10.8785 14.6595H10.5199ZM11.2123 13.9765C10.836 13.9765 10.5199 14.282 10.5199 14.6595H10.8785C10.8785 14.4863 11.0277 14.3351 11.2123 14.3351V13.9765ZM11.9376 13.9765H11.2123V14.3351H11.9376V13.9765ZM11.7583 13.4506V14.1558H12.1168V13.4506H11.7583ZM12.4507 12.7676C12.0659 12.7676 11.7583 13.0746 11.7583 13.4506H12.1168C12.1168 13.2758 12.2608 13.1261 12.4507 13.1261V12.7676ZM13.1431 13.4506C13.1431 13.0731 12.8271 12.7676 12.4507 12.7676V13.1261C12.6353 13.1261 12.7846 13.2773 12.7846 13.4506H13.1431ZM13.1431 14.1558V13.4506H12.7846V14.1558H13.1431ZM13.6822 13.9765H12.9638V14.3351H13.6822V13.9765ZM14.3746 14.6595C14.3746 14.282 14.0586 13.9765 13.6822 13.9765V14.3351C13.8669 14.3351 14.0161 14.4863 14.0161 14.6595H14.3746ZM13.6822 15.3425C14.057 15.3425 14.3746 15.0453 14.3746 14.6595H14.0161C14.0161 14.838 13.8684 14.984 13.6822 14.984V15.3425ZM16.6596 13.8494H16.5912V14.2079H16.6596V13.8494ZM16.9935 13.5249C16.9935 13.7034 16.8459 13.8494 16.6596 13.8494V14.2079C17.0344 14.2079 17.352 13.9107 17.352 13.5249H16.9935ZM16.6596 13.2005C16.8443 13.2005 16.9935 13.3517 16.9935 13.5249H17.352C17.352 13.1474 17.036 12.8419 16.6596 12.8419V13.2005ZM16.5912 13.2005H16.6596V12.8419H16.5912V13.2005ZM16.2574 13.5249C16.2574 13.3501 16.4013 13.2005 16.5912 13.2005V12.8419C16.2064 12.8419 15.8988 13.149 15.8988 13.5249H16.2574ZM16.5912 13.8494C16.3997 13.8494 16.2574 13.7049 16.2574 13.5249H15.8988C15.8988 13.9091 16.208 14.2079 16.5912 14.2079V13.8494ZM17.8289 16.1593H17.7604V16.5179H17.8289V16.1593ZM18.1627 15.8349C18.1627 16.0133 18.0151 16.1593 17.8289 16.1593V16.5179C18.2037 16.5179 18.5213 16.2206 18.5213 15.8349H18.1627ZM17.8289 15.5104C18.0135 15.5104 18.1627 15.6616 18.1627 15.8349H18.5213C18.5213 15.4574 18.2052 15.1519 17.8289 15.1519V15.5104ZM17.7604 15.5104H17.8289V15.1519H17.7604V15.5104ZM17.4266 15.8349C17.4266 15.6601 17.5705 15.5104 17.7604 15.5104V15.1519C17.3756 15.1519 17.068 15.4589 17.068 15.8349H17.4266ZM17.7604 16.1593C17.569 16.1593 17.4266 16.0148 17.4266 15.8349H17.068C17.068 16.2191 17.3772 16.5179 17.7604 16.5179V16.1593Z" fill="url(#paint1_linear_1252_4716)" mask="url(#path-2-outside-1_1252_4716)"/>
</g>
<g filter="url(#filter2_b_1252_4716)">
<mask id="path-4-inside-2_1252_4716" fill="white">
<path fill-rule="evenodd" clip-rule="evenodd" d="M16.5834 14.0322H16.6519C16.9324 14.0322 17.165 13.8106 17.165 13.5285C17.165 13.2531 16.9324 13.0247 16.6519 13.0247H16.5834C16.2961 13.0247 16.0703 13.2531 16.0703 13.5285C16.0703 13.8106 16.2961 14.0322 16.5834 14.0322ZM17.7534 16.343H17.8218C18.1023 16.343 18.3349 16.1213 18.3349 15.8393C18.3349 15.5639 18.1023 15.3355 17.8218 15.3355H17.7534C17.466 15.3355 17.2402 15.5639 17.2402 15.8393C17.2402 16.1213 17.466 16.343 17.7534 16.343Z"/>
</mask>
<path fill-rule="evenodd" clip-rule="evenodd" d="M16.5834 14.0322H16.6519C16.9324 14.0322 17.165 13.8106 17.165 13.5285C17.165 13.2531 16.9324 13.0247 16.6519 13.0247H16.5834C16.2961 13.0247 16.0703 13.2531 16.0703 13.5285C16.0703 13.8106 16.2961 14.0322 16.5834 14.0322ZM17.7534 16.343H17.8218C18.1023 16.343 18.3349 16.1213 18.3349 15.8393C18.3349 15.5639 18.1023 15.3355 17.8218 15.3355H17.7534C17.466 15.3355 17.2402 15.5639 17.2402 15.8393C17.2402 16.1213 17.466 16.343 17.7534 16.343Z" fill="url(#paint2_linear_1252_4716)"/>
<path d="M16.6519 13.9605H16.5834V14.1039H16.6519V13.9605ZM17.0933 13.5285C17.0933 13.7691 16.8947 13.9605 16.6519 13.9605V14.1039C16.9701 14.1039 17.2367 13.852 17.2367 13.5285H17.0933ZM16.6519 13.0964C16.894 13.0964 17.0933 13.2939 17.0933 13.5285H17.2367C17.2367 13.2122 16.9707 12.953 16.6519 12.953V13.0964ZM16.5834 13.0964H16.6519V12.953H16.5834V13.0964ZM16.142 13.5285C16.142 13.2933 16.3351 13.0964 16.5834 13.0964V12.953C16.2571 12.953 15.9986 13.2129 15.9986 13.5285H16.142ZM16.5834 13.9605C16.3344 13.9605 16.142 13.7697 16.142 13.5285H15.9986C15.9986 13.8514 16.2577 14.1039 16.5834 14.1039V13.9605ZM17.8218 16.2713H17.7534V16.4147H17.8218V16.2713ZM18.2632 15.8393C18.2632 16.0799 18.0646 16.2713 17.8218 16.2713V16.4147C18.14 16.4147 18.4066 16.1628 18.4066 15.8393H18.2632ZM17.8218 15.4072C18.0639 15.4072 18.2632 15.6047 18.2632 15.8393H18.4066C18.4066 15.523 18.1406 15.2638 17.8218 15.2638V15.4072ZM17.7534 15.4072H17.8218V15.2638H17.7534V15.4072ZM17.3119 15.8393C17.3119 15.6041 17.505 15.4072 17.7534 15.4072V15.2638C17.427 15.2638 17.1685 15.5236 17.1685 15.8393H17.3119ZM17.7534 16.2713C17.5044 16.2713 17.3119 16.0805 17.3119 15.8393H17.1685C17.1685 16.1622 17.4277 16.4147 17.7534 16.4147V16.2713Z" fill="url(#paint3_linear_1252_4716)" mask="url(#path-4-inside-2_1252_4716)"/>
</g>
<g filter="url(#filter3_b_1252_4716)">
<mask id="path-6-inside-3_1252_4716" fill="white">
<path d="M13.6773 15.1672H12.959V15.8791C12.959 16.1545 12.7263 16.3829 12.4458 16.3829C12.1585 16.3829 11.9327 16.1545 11.9327 15.8791V15.1672H11.2075C10.927 15.1672 10.6943 14.9455 10.6943 14.6634C10.6943 14.3881 10.927 14.1597 11.2075 14.1597H11.9327V13.4545C11.9327 13.1791 12.1585 12.9508 12.4458 12.9508C12.7263 12.9508 12.959 13.1791 12.959 13.4545V14.1597H13.6773C13.9578 14.1597 14.1905 14.3881 14.1905 14.6634C14.1905 14.9455 13.9578 15.1672 13.6773 15.1672Z"/>
</mask>
<path d="M13.6773 15.1672H12.959V15.8791C12.959 16.1545 12.7263 16.3829 12.4458 16.3829C12.1585 16.3829 11.9327 16.1545 11.9327 15.8791V15.1672H11.2075C10.927 15.1672 10.6943 14.9455 10.6943 14.6634C10.6943 14.3881 10.927 14.1597 11.2075 14.1597H11.9327V13.4545C11.9327 13.1791 12.1585 12.9508 12.4458 12.9508C12.7263 12.9508 12.959 13.1791 12.959 13.4545V14.1597H13.6773C13.9578 14.1597 14.1905 14.3881 14.1905 14.6634C14.1905 14.9455 13.9578 15.1672 13.6773 15.1672Z" fill="url(#paint4_linear_1252_4716)"/>
<path d="M12.959 15.1672V15.0955H12.8872V15.1672H12.959ZM11.9327 15.1672H12.0044V15.0955H11.9327V15.1672ZM11.9327 14.1597V14.2314H12.0044V14.1597H11.9327ZM12.959 14.1597H12.8872V14.2314H12.959V14.1597ZM13.6773 15.0955H12.959V15.2389H13.6773V15.0955ZM12.8872 15.1672V15.8791H13.0307V15.1672H12.8872ZM12.8872 15.8791C12.8872 16.1137 12.688 16.3111 12.4458 16.3111V16.4546C12.7647 16.4546 13.0307 16.1953 13.0307 15.8791H12.8872ZM12.4458 16.3111C12.1974 16.3111 12.0044 16.1143 12.0044 15.8791H11.861C11.861 16.1947 12.1195 16.4546 12.4458 16.4546V16.3111ZM12.0044 15.8791V15.1672H11.861V15.8791H12.0044ZM11.9327 15.0955H11.2075V15.2389H11.9327V15.0955ZM11.2075 15.0955C10.9647 15.0955 10.766 14.9041 10.766 14.6634H10.6226C10.6226 14.987 10.8892 15.2389 11.2075 15.2389V15.0955ZM10.766 14.6634C10.766 14.4289 10.9653 14.2314 11.2075 14.2314V14.088C10.8886 14.088 10.6226 14.3472 10.6226 14.6634H10.766ZM11.2075 14.2314H11.9327V14.088H11.2075V14.2314ZM12.0044 14.1597V13.4545H11.861V14.1597H12.0044ZM12.0044 13.4545C12.0044 13.2193 12.1974 13.0225 12.4458 13.0225V12.879C12.1195 12.879 11.861 13.1389 11.861 13.4545H12.0044ZM12.4458 13.0225C12.688 13.0225 12.8872 13.22 12.8872 13.4545H13.0307C13.0307 13.1383 12.7647 12.879 12.4458 12.879V13.0225ZM12.8872 13.4545V14.1597H13.0307V13.4545H12.8872ZM12.959 14.2314H13.6773V14.088H12.959V14.2314ZM13.6773 14.2314C13.9195 14.2314 14.1188 14.4289 14.1188 14.6634H14.2622C14.2622 14.3472 13.9962 14.088 13.6773 14.088V14.2314ZM14.1188 14.6634C14.1188 14.9041 13.9201 15.0955 13.6773 15.0955V15.2389C13.9956 15.2389 14.2622 14.987 14.2622 14.6634H14.1188Z" fill="url(#paint5_linear_1252_4716)" mask="url(#path-6-inside-3_1252_4716)"/>
</g>
<defs>
<filter id="filter0_b_1252_4716" x="2.44581" y="0.969374" width="18.832" height="18.8322" filterUnits="userSpaceOnUse" color-interpolation-filters="sRGB">
<feFlood flood-opacity="0" result="BackgroundImageFix"/>
<feGaussianBlur in="BackgroundImageFix" stdDeviation="1.16528"/>
<feComposite in2="SourceAlpha" operator="in" result="effect1_backgroundBlur_1252_4716"/>
<feBlend mode="normal" in="SourceGraphic" in2="effect1_backgroundBlur_1252_4716" result="shape"/>
</filter>
<filter id="filter1_bi_1252_4716" x="5.46343" y="7.05803" width="18.038" height="15.2095" filterUnits="userSpaceOnUse" color-interpolation-filters="sRGB">
<feFlood flood-opacity="0" result="BackgroundImageFix"/>
<feGaussianBlur in="BackgroundImageFix" stdDeviation="0.933815"/>
<feComposite in2="SourceAlpha" operator="in" result="effect1_backgroundBlur_1252_4716"/>
<feBlend mode="normal" in="SourceGraphic" in2="effect1_backgroundBlur_1252_4716" result="shape"/>
<feColorMatrix in="SourceAlpha" type="matrix" values="0 0 0 0 0 0 0 0 0 0 0 0 0 0 0 0 0 0 127 0" result="hardAlpha"/>
<feOffset dx="0.0933814" dy="0.0466907"/>
<feGaussianBlur stdDeviation="0.233454"/>
<feComposite in2="hardAlpha" operator="arithmetic" k2="-1" k3="1"/>
<feColorMatrix type="matrix" values="0 0 0 0 1 0 0 0 0 1 0 0 0 0 1 0 0 0 0.6 0"/>
<feBlend mode="normal" in2="shape" result="effect2_innerShadow_1252_4716"/>
</filter>
<filter id="filter2_b_1252_4716" x="13.3812" y="10.3356" width="7.64285" height="8.69645" filterUnits="userSpaceOnUse" color-interpolation-filters="sRGB">
<feFlood flood-opacity="0" result="BackgroundImageFix"/>
<feGaussianBlur in="BackgroundImageFix" stdDeviation="1.34455"/>
<feComposite in2="SourceAlpha" operator="in" result="effect1_backgroundBlur_1252_4716"/>
<feBlend mode="normal" in="SourceGraphic" in2="effect1_backgroundBlur_1252_4716" result="shape"/>
</filter>
<filter id="filter3_b_1252_4716" x="8.00524" y="10.2617" width="8.87429" height="8.8103" filterUnits="userSpaceOnUse" color-interpolation-filters="sRGB">
<feFlood flood-opacity="0" result="BackgroundImageFix"/>
<feGaussianBlur in="BackgroundImageFix" stdDeviation="1.34455"/>
<feComposite in2="SourceAlpha" operator="in" result="effect1_backgroundBlur_1252_4716"/>
<feBlend mode="normal" in="SourceGraphic" in2="effect1_backgroundBlur_1252_4716" result="shape"/>
</filter>
<linearGradient id="paint0_linear_1252_4716" x1="-69.1264" y1="17.471" x2="92.8503" y2="3.29993" gradientUnits="userSpaceOnUse">
<stop stop-color="#5D82FE"/>
<stop offset="1" stop-color="#90A9FE"/>
</linearGradient>
<linearGradient id="paint1_linear_1252_4716" x1="9.73032" y1="10.3999" x2="16.3326" y2="20.6572" gradientUnits="userSpaceOnUse">
<stop stop-color="white" stop-opacity="0.25"/>
<stop offset="1" stop-color="white" stop-opacity="0"/>
</linearGradient>
<linearGradient id="paint2_linear_1252_4716" x1="18.1744" y1="13.6239" x2="15.6504" y2="13.6801" gradientUnits="userSpaceOnUse">
<stop stop-color="white"/>
<stop offset="1" stop-color="white" stop-opacity="0.2"/>
</linearGradient>
<linearGradient id="paint3_linear_1252_4716" x1="16.4308" y1="13.4113" x2="18.5659" y2="15.216" gradientUnits="userSpaceOnUse">
<stop stop-color="white" stop-opacity="0.25"/>
<stop offset="1" stop-color="white" stop-opacity="0"/>
</linearGradient>
<linearGradient id="paint4_linear_1252_4716" x1="13.9426" y1="13.5705" x2="10.0484" y2="13.6999" gradientUnits="userSpaceOnUse">
<stop stop-color="white"/>
<stop offset="1" stop-color="white" stop-opacity="0.2"/>
</linearGradient>
<linearGradient id="paint5_linear_1252_4716" x1="11.2509" y1="13.3506" x2="13.4313" y2="16.1015" gradientUnits="userSpaceOnUse">
<stop stop-color="white" stop-opacity="0.25"/>
<stop offset="1" stop-color="white" stop-opacity="0"/>
</linearGradient>
</defs>
</svg>
