<svg width="24" height="24" viewBox="0 0 24 24" fill="none" xmlns="http://www.w3.org/2000/svg">
<g filter="url(#filter0_b_1252_4749)">
<path d="M21.148 11.6915C20.9334 11.4402 20.6749 11.2307 20.3919 11.0609C19.7712 10.6822 19.0424 10.5254 18.3157 10.6072C18.2939 10.552 18.261 10.495 18.232 10.4416C18.2036 10.3874 18.1629 10.2721 18.1172 10.1959L17.9925 10.0173C17.9325 9.91417 17.8603 9.82204 17.7803 9.73072C17.7764 9.71681 17.7686 9.69932 17.7558 9.68003L17.7293 9.66415C17.5184 9.41494 17.2744 9.20142 16.997 9.02333L16.9477 8.99372C16.8221 8.91836 16.6919 8.85179 16.5548 8.79454L16.501 8.76224C16.356 8.69898 16.203 8.6499 16.046 8.61669C14.0442 8.16004 12.3576 9.61835 11.9116 11.5101C11.7117 12.4936 11.7324 13.507 11.9702 14.4727C12.3383 15.8404 12.8471 17.1584 13.4915 18.4113L13.5647 18.5535L13.7175 18.5531C15.1254 18.5257 16.5225 18.3516 17.8918 18.0327C18.8598 17.7909 19.7661 17.3277 20.5356 16.686C21.9866 15.3974 22.4803 13.2232 21.148 11.6915Z" fill="url(#paint0_linear_1252_4749)"/>
</g>
<g opacity="0.5" filter="url(#filter1_f_1252_4749)">
<path d="M18.2052 12.3683C18.0699 12.2097 17.9067 12.0775 17.7281 11.9703C17.3365 11.7314 16.8766 11.6324 16.4179 11.684C16.4042 11.6492 16.3834 11.6132 16.3651 11.5795C16.3472 11.5453 16.3216 11.4726 16.2927 11.4244L16.214 11.3118C16.1761 11.2467 16.1306 11.1885 16.0801 11.1309C16.0776 11.1221 16.0727 11.1111 16.0646 11.0989L16.0479 11.0889C15.9148 10.9316 15.7609 10.7969 15.5858 10.6845L15.5547 10.6658C15.4754 10.6183 15.3933 10.5763 15.3068 10.5402L15.2728 10.5198C15.1813 10.4799 15.0848 10.4489 14.9857 10.4279C13.7225 10.1398 12.6582 11.06 12.3767 12.2538C12.2506 12.8744 12.2636 13.5139 12.4137 14.1233C12.646 14.9864 12.9671 15.8181 13.3737 16.6087L13.4199 16.6985L13.5163 16.6982C14.4047 16.6809 15.2864 16.5711 16.1504 16.3698C16.7613 16.2172 17.3333 15.9249 17.8188 15.52C18.7345 14.7068 19.046 13.3348 18.2052 12.3683Z" fill="#678AFE"/>
</g>
<g filter="url(#filter2_b_1252_4749)">
<path d="M19.8899 7.1051C19.8378 7.05392 19.7768 7.01281 19.7112 6.98091C19.5672 6.9096 19.4038 6.88921 19.2453 6.9213C19.2395 6.90958 19.2311 6.89767 19.2237 6.88648C19.2164 6.87509 19.2052 6.8505 19.1937 6.8346L19.1628 6.79771C19.1475 6.77617 19.1298 6.75728 19.1105 6.73873C19.1093 6.73574 19.1073 6.73204 19.1041 6.72805L19.098 6.72506C19.0467 6.67429 18.9888 6.63201 18.9243 6.59819L18.9129 6.59263C18.8838 6.57847 18.8538 6.56634 18.8225 6.5564L18.81 6.55033C18.7769 6.53921 18.7423 6.53137 18.7071 6.52711C18.2575 6.4654 17.9145 6.81917 17.853 7.2443C17.828 7.46471 17.8522 7.68742 17.9233 7.8954C18.0309 8.18937 18.1685 8.46967 18.3346 8.73301L18.3535 8.76289L18.3872 8.75984C18.6966 8.7265 19.0008 8.66107 19.296 8.56431C19.5045 8.49228 19.695 8.37273 19.852 8.21653C20.1464 7.9047 20.2129 7.41645 19.8899 7.1051Z" fill="url(#paint1_linear_1252_4749)"/>
</g>
<g filter="url(#filter3_b_1252_4749)">
<mask id="path-4-outside-1_1252_4749" maskUnits="userSpaceOnUse" x="-0.160763" y="2.88904" width="19.4794" height="18.6646" fill="black">
<rect fill="white" x="-0.160763" y="2.88904" width="19.4794" height="18.6646"/>
<path d="M12.8454 4.77669C12.3689 4.7035 11.8836 4.71856 11.4091 4.80067C10.3627 4.97403 9.40821 5.49545 8.68332 6.2784C8.60667 6.23823 8.51602 6.20668 8.43315 6.17533C8.35002 6.14247 8.19529 6.05386 8.07209 6.01323L7.76424 5.93485C7.59954 5.87816 7.43198 5.84521 7.25657 5.82058C7.23906 5.8089 7.21377 5.79701 7.18122 5.78793L7.13686 5.79561C6.66632 5.72138 6.19334 5.71804 5.71716 5.78574L5.63445 5.80005C5.42392 5.83649 5.21661 5.88708 5.01066 5.95447L4.92043 5.97009C4.69993 6.03845 4.48421 6.12999 4.27917 6.24292C1.63267 7.64651 1.15964 10.8648 2.46995 13.3796C3.18658 14.6565 4.17534 15.7562 5.35845 16.5962C7.06857 17.7562 8.8869 18.727 10.7928 19.4969L11.0093 19.5841L11.1776 19.438C12.7066 18.066 14.0839 16.5421 15.2925 14.8847C16.1313 13.6948 16.6909 12.3194 16.9292 10.8772C17.304 8.07087 15.7769 5.19869 12.8454 4.77669Z"/>
</mask>
<path d="M12.8454 4.77669C12.3689 4.7035 11.8836 4.71856 11.4091 4.80067C10.3627 4.97403 9.40821 5.49545 8.68332 6.2784C8.60667 6.23823 8.51602 6.20668 8.43315 6.17533C8.35002 6.14247 8.19529 6.05386 8.07209 6.01323L7.76424 5.93485C7.59954 5.87816 7.43198 5.84521 7.25657 5.82058C7.23906 5.8089 7.21377 5.79701 7.18122 5.78793L7.13686 5.79561C6.66632 5.72138 6.19334 5.71804 5.71716 5.78574L5.63445 5.80005C5.42392 5.83649 5.21661 5.88708 5.01066 5.95447L4.92043 5.97009C4.69993 6.03845 4.48421 6.12999 4.27917 6.24292C1.63267 7.64651 1.15964 10.8648 2.46995 13.3796C3.18658 14.6565 4.17534 15.7562 5.35845 16.5962C7.06857 17.7562 8.8869 18.727 10.7928 19.4969L11.0093 19.5841L11.1776 19.438C12.7066 18.066 14.0839 16.5421 15.2925 14.8847C16.1313 13.6948 16.6909 12.3194 16.9292 10.8772C17.304 8.07087 15.7769 5.19869 12.8454 4.77669Z" fill="#90A9FE" fill-opacity="0.45"/>
<path d="M11.4091 4.80067L11.4378 4.97374L11.4391 4.97353L11.4091 4.80067ZM8.68332 6.2784L8.60189 6.43378C8.67207 6.47056 8.75821 6.45573 8.81204 6.39758L8.68332 6.2784ZM8.43315 6.17533L8.36866 6.33849L8.37108 6.3394L8.43315 6.17533ZM8.07209 6.01323L8.12717 5.84623L8.11537 5.84322L8.07209 6.01323ZM7.76424 5.93485L7.70715 6.10072C7.7117 6.10229 7.7163 6.10367 7.72096 6.10485L7.76424 5.93485ZM7.25657 5.82058L7.15921 5.9665C7.18113 5.98114 7.20608 5.99064 7.23218 5.9943L7.25657 5.82058ZM7.18122 5.78793L7.22837 5.61896C7.20329 5.61196 7.17696 5.61063 7.15131 5.61507L7.18122 5.78793ZM7.13686 5.79561L7.10952 5.96889C7.1285 5.97188 7.14784 5.97174 7.16677 5.96846L7.13686 5.79561ZM5.71716 5.78574L5.69246 5.61198L5.68725 5.61288L5.71716 5.78574ZM5.63445 5.80005L5.60454 5.6272L5.63445 5.80005ZM5.01066 5.95447L5.04057 6.12733C5.04892 6.12588 5.05716 6.12384 5.06521 6.1212L5.01066 5.95447ZM4.92043 5.97009L4.89051 5.79723C4.88306 5.79852 4.8757 5.80029 4.86848 5.80253L4.92043 5.97009ZM4.27917 6.24292L4.36138 6.39792L4.3638 6.39658L4.27917 6.24292ZM2.46995 13.3796L2.31431 13.4607L2.31697 13.4654L2.46995 13.3796ZM5.35845 16.5962L5.25687 16.7393L5.25997 16.7414L5.35845 16.5962ZM10.7928 19.4969L10.7271 19.6595L10.7272 19.6596L10.7928 19.4969ZM11.0093 19.5841L10.9437 19.7468C11.0048 19.7714 11.0745 19.7598 11.1242 19.7166L11.0093 19.5841ZM11.1776 19.438L11.2926 19.5706L11.2948 19.5686L11.1776 19.438ZM15.2925 14.8847L15.4343 14.9881L15.4359 14.9858L15.2925 14.8847ZM16.9292 10.8772L17.1024 10.9058L17.1031 10.9004L16.9292 10.8772ZM12.8454 4.77669L12.8188 4.95009L12.8204 4.95033L12.8454 4.77669ZM12.8721 4.6033C12.3743 4.52685 11.8698 4.54292 11.3792 4.62782L11.4391 4.97353C11.8974 4.8942 12.3635 4.88015 12.8188 4.95008L12.8721 4.6033ZM11.3805 4.62761C10.2947 4.80747 9.30533 5.34836 8.55459 6.15922L8.81204 6.39758C9.5111 5.64255 10.4306 5.14059 11.4378 4.97374L11.3805 4.62761ZM8.76475 6.12302C8.6759 6.07646 8.57081 6.03985 8.49522 6.01125L8.37108 6.3394C8.46123 6.37351 8.53743 6.4 8.60189 6.43378L8.76475 6.12302ZM8.49763 6.01218C8.46431 5.99901 8.41555 5.97403 8.34433 5.93942C8.27993 5.90811 8.20099 5.87102 8.12704 5.84663L8.01714 6.17982C8.06638 6.19606 8.12641 6.22359 8.19096 6.25497C8.24869 6.28303 8.31886 6.31878 8.36867 6.33847L8.49763 6.01218ZM8.11537 5.84322L7.80752 5.76485L7.72096 6.10485L8.02881 6.18323L8.11537 5.84322ZM7.82133 5.76897C7.64189 5.70721 7.46214 5.6723 7.28096 5.64686L7.23218 5.9943C7.40183 6.01812 7.5572 6.04911 7.70715 6.10072L7.82133 5.76897ZM7.35394 5.67466C7.31844 5.65097 7.27553 5.63212 7.22837 5.61896L7.13408 5.9569C7.14266 5.9593 7.14912 5.96174 7.15354 5.9637C7.1581 5.96571 7.15981 5.96691 7.15921 5.9665L7.35394 5.67466ZM7.15131 5.61507L7.10695 5.62275L7.16677 5.96846L7.21114 5.96078L7.15131 5.61507ZM7.1642 5.62232C6.67628 5.54535 6.18576 5.54193 5.69247 5.61206L5.74186 5.95942C6.20092 5.89416 6.65636 5.8974 7.10952 5.96889L7.1642 5.62232ZM5.68725 5.61288L5.60454 5.6272L5.66437 5.97291L5.74708 5.95859L5.68725 5.61288ZM5.60454 5.6272C5.38611 5.665 5.17054 5.71758 4.9561 5.78775L5.06521 6.1212C5.26268 6.05658 5.46173 6.00798 5.66437 5.97291L5.60454 5.6272ZM4.98074 5.78162L4.89051 5.79723L4.95034 6.14295L5.04057 6.12733L4.98074 5.78162ZM4.86848 5.80253C4.63664 5.87441 4.40998 5.97061 4.19454 6.08926L4.3638 6.39658C4.55845 6.28938 4.76321 6.20249 4.97237 6.13765L4.86848 5.80253ZM4.19698 6.08795C1.4418 7.54917 0.972926 10.8861 2.31438 13.4606L2.62553 13.2985C1.34636 10.8435 1.82353 7.74386 4.36137 6.3979L4.19698 6.08795ZM2.31697 13.4654C3.04624 14.7649 4.05252 15.8842 5.25689 16.7392L5.46 16.4531C4.29816 15.6283 3.32692 14.5481 2.62293 13.2937L2.31697 13.4654ZM5.25997 16.7414C6.98029 17.9083 8.80961 18.885 10.7271 19.6595L10.8585 19.3342C8.9642 18.5691 7.15684 17.6041 5.45692 16.451L5.25997 16.7414ZM10.7272 19.6596L10.9437 19.7468L11.0748 19.4214L10.8584 19.3342L10.7272 19.6596ZM11.1242 19.7166L11.2926 19.5705L11.0626 19.3055L10.8943 19.4516L11.1242 19.7166ZM11.2948 19.5686C12.8329 18.1884 14.2184 16.6554 15.4343 14.9881L15.1508 14.7814C13.9494 16.4288 12.5804 17.9436 11.0604 19.3075L11.2948 19.5686ZM15.4359 14.9858C16.2901 13.774 16.8598 12.3737 17.1023 10.9058L16.7562 10.8486C16.5221 12.2651 15.9725 13.6157 15.1491 14.7836L15.4359 14.9858ZM17.1031 10.9004C17.4865 8.02894 15.9247 5.04272 12.8704 4.60306L12.8204 4.95033C15.6291 5.35465 17.1214 8.11279 16.7554 10.854L17.1031 10.9004Z" fill="url(#paint2_linear_1252_4749)" mask="url(#path-4-outside-1_1252_4749)"/>
</g>
<path d="M13.6922 9.27964L13.6923 9.27963L13.6918 9.27676L13.6877 9.25345C13.5944 8.71392 13.1789 8.28354 12.6508 8.18369L12.6508 8.18368L12.6502 8.18358C12.3343 8.12949 12.1215 7.83036 12.1691 7.51513C12.2242 7.19846 12.516 6.98753 12.8227 7.03667C13.8421 7.23444 14.6343 8.06613 14.7919 9.10884L14.7919 9.10884L14.792 9.10958L14.8073 9.19781C14.8369 9.49909 14.63 9.77436 14.3423 9.83326C14.1828 9.84493 14.0225 9.79985 13.9036 9.69761C13.7833 9.5941 13.7069 9.44541 13.6922 9.27964Z" fill="url(#paint3_linear_1252_4749)" stroke="url(#paint4_linear_1252_4749)" stroke-width="0.0701699"/>
<defs>
<filter id="filter0_b_1252_4749" x="9.49487" y="6.25179" width="14.7114" height="14.5823" filterUnits="userSpaceOnUse" color-interpolation-filters="sRGB">
<feFlood flood-opacity="0" result="BackgroundImageFix"/>
<feGaussianBlur in="BackgroundImageFix" stdDeviation="1.14026"/>
<feComposite in2="SourceAlpha" operator="in" result="effect1_backgroundBlur_1252_4749"/>
<feBlend mode="normal" in="SourceGraphic" in2="effect1_backgroundBlur_1252_4749" result="shape"/>
</filter>
<filter id="filter1_f_1252_4749" x="9.13337" y="7.21703" width="12.7206" height="12.6391" filterUnits="userSpaceOnUse" color-interpolation-filters="sRGB">
<feFlood flood-opacity="0" result="BackgroundImageFix"/>
<feBlend mode="normal" in="SourceGraphic" in2="BackgroundImageFix" result="shape"/>
<feGaussianBlur stdDeviation="1.57882" result="effect1_foregroundBlur_1252_4749"/>
</filter>
<filter id="filter2_b_1252_4749" x="15.5632" y="4.23957" width="6.82179" height="6.80385" filterUnits="userSpaceOnUse" color-interpolation-filters="sRGB">
<feFlood flood-opacity="0" result="BackgroundImageFix"/>
<feGaussianBlur in="BackgroundImageFix" stdDeviation="1.14026"/>
<feComposite in2="SourceAlpha" operator="in" result="effect1_backgroundBlur_1252_4749"/>
<feBlend mode="normal" in="SourceGraphic" in2="effect1_backgroundBlur_1252_4749" result="shape"/>
</filter>
<filter id="filter3_b_1252_4749" x="-2.6184" y="0.343909" width="23.9888" height="23.6258" filterUnits="userSpaceOnUse" color-interpolation-filters="sRGB">
<feFlood flood-opacity="0" result="BackgroundImageFix"/>
<feGaussianBlur in="BackgroundImageFix" stdDeviation="2.1051"/>
<feComposite in2="SourceAlpha" operator="in" result="effect1_backgroundBlur_1252_4749"/>
<feBlend mode="normal" in="SourceGraphic" in2="effect1_backgroundBlur_1252_4749" result="shape"/>
</filter>
<linearGradient id="paint0_linear_1252_4749" x1="-37.7091" y1="-12.2197" x2="70.3896" y2="39.8264" gradientUnits="userSpaceOnUse">
<stop stop-color="#5D82FE"/>
<stop offset="1" stop-color="#90A9FE"/>
</linearGradient>
<linearGradient id="paint1_linear_1252_4749" x1="6.46838" y1="2.98252" x2="31.2765" y2="12.344" gradientUnits="userSpaceOnUse">
<stop stop-color="#5D82FE"/>
<stop offset="1" stop-color="#90A9FE"/>
</linearGradient>
<linearGradient id="paint2_linear_1252_4749" x1="3.67703" y1="7.85293" x2="14.7126" y2="18.0333" gradientUnits="userSpaceOnUse">
<stop stop-color="white" stop-opacity="0.25"/>
<stop offset="1" stop-color="white" stop-opacity="0"/>
</linearGradient>
<linearGradient id="paint3_linear_1252_4749" x1="14.3377" y1="7.27901" x2="11.6991" y2="7.80461" gradientUnits="userSpaceOnUse">
<stop stop-color="white"/>
<stop offset="1" stop-color="white" stop-opacity="0.2"/>
</linearGradient>
<linearGradient id="paint4_linear_1252_4749" x1="12.4727" y1="7.39919" x2="14.8064" y2="8.97323" gradientUnits="userSpaceOnUse">
<stop stop-color="white" stop-opacity="0.25"/>
<stop offset="1" stop-color="white" stop-opacity="0"/>
</linearGradient>
</defs>
</svg>
