<svg width="24" height="24" viewBox="0 0 24 24" fill="none" xmlns="http://www.w3.org/2000/svg">
<path d="M19.3829 20.5508H8.69442C8.24804 20.5508 8.02451 20.0111 8.34013 19.6955L10.1975 17.8381V10.8643H19.3829C20.0286 10.8643 20.552 11.3877 20.552 12.0334V19.3817C20.552 20.0274 20.0286 20.5508 19.3829 20.5508Z" fill="url(#paint0_linear_1252_4722)"/>
<path d="M17.4255 17.8685L15.9341 13.9166C15.9324 13.912 15.9306 13.9075 15.9287 13.903C15.8371 13.6801 15.6217 13.5363 15.3808 13.5363C15.3806 13.5363 15.381 13.5363 15.3808 13.5363C15.1397 13.5365 14.9249 13.6808 14.8335 13.904C14.832 13.9078 14.8305 13.9116 14.829 13.9154L13.324 17.8672C13.2255 18.1258 13.3553 18.4152 13.6138 18.5137C13.8726 18.6123 14.1619 18.4824 14.2604 18.2238L14.5123 17.5623H16.2388L16.488 18.2224C16.5637 18.423 16.7543 18.5466 16.9568 18.5466C17.0156 18.5466 17.0754 18.5362 17.1336 18.5142C17.3925 18.4165 17.5232 18.1274 17.4255 17.8685ZM14.894 16.5602L15.3796 15.2853L15.8607 16.5602H14.894Z" fill="white"/>
<g filter="url(#filter0_bi_1252_4722)">
<path d="M3.4502 14.7055V4.61821C3.4502 3.97256 3.9736 3.44916 4.61925 3.44916H13.9717C14.6174 3.44916 15.1408 3.97256 15.1408 4.61821V11.6994C15.1408 12.345 14.6174 12.8684 13.9717 12.8684H6.8116L4.28116 15.0826C3.9572 15.366 3.4502 15.1359 3.4502 14.7055Z" fill="#90A9FE" fill-opacity="0.45"/>
</g>
<path d="M11.3012 9.82896C10.8841 9.82896 10.4881 9.73781 10.1311 9.57558C10.6476 9.00912 10.9973 8.28805 11.1015 7.49085H11.3012C11.5779 7.49085 11.8022 7.26653 11.8022 6.98983C11.8022 6.71313 11.5779 6.4888 11.3012 6.4888H9.79814V5.98778C9.79814 5.71108 9.57381 5.48676 9.29711 5.48676C9.02041 5.48676 8.79609 5.71108 8.79609 5.98778V6.4888H7.29302C7.01632 6.4888 6.79199 6.71313 6.79199 6.98983C6.79199 7.26653 7.01632 7.49085 7.29302 7.49085H7.49269C7.597 8.28805 7.94662 9.00912 8.46314 9.57558C8.10608 9.73781 7.7101 9.82896 7.29302 9.82896C7.01632 9.82896 6.79199 10.0533 6.79199 10.33C6.79199 10.6067 7.01632 10.831 7.29302 10.831C8.02692 10.831 8.71329 10.624 9.29711 10.2655C9.88094 10.624 10.5673 10.831 11.3012 10.831C11.5779 10.831 11.8022 10.6067 11.8022 10.33C11.8022 10.0533 11.5779 9.82896 11.3012 9.82896ZM8.50723 7.49085H10.087C9.98258 8.07428 9.70017 8.59678 9.29708 8.99887C8.89402 8.59678 8.61161 8.07428 8.50723 7.49085Z" fill="white"/>
<defs>
<filter id="filter0_bi_1252_4722" x="1.398" y="1.39696" width="15.7948" height="15.8627" filterUnits="userSpaceOnUse" color-interpolation-filters="sRGB">
<feFlood flood-opacity="0" result="BackgroundImageFix"/>
<feGaussianBlur in="BackgroundImageFix" stdDeviation="1.0261"/>
<feComposite in2="SourceAlpha" operator="in" result="effect1_backgroundBlur_1252_4722"/>
<feBlend mode="normal" in="SourceGraphic" in2="effect1_backgroundBlur_1252_4722" result="shape"/>
<feColorMatrix in="SourceAlpha" type="matrix" values="0 0 0 0 0 0 0 0 0 0 0 0 0 0 0 0 0 0 127 0" result="hardAlpha"/>
<feOffset dx="0.10261" dy="0.0513049"/>
<feGaussianBlur stdDeviation="0.256524"/>
<feComposite in2="hardAlpha" operator="arithmetic" k2="-1" k3="1"/>
<feColorMatrix type="matrix" values="0 0 0 0 1 0 0 0 0 1 0 0 0 0 1 0 0 0 0.6 0"/>
<feBlend mode="normal" in2="shape" result="effect2_innerShadow_1252_4722"/>
</filter>
<linearGradient id="paint0_linear_1252_4722" x1="9.03032" y1="13.8195" x2="19.9665" y2="12.4905" gradientUnits="userSpaceOnUse">
<stop stop-color="#5D82FE"/>
<stop offset="1" stop-color="#90A9FE"/>
</linearGradient>
</defs>
</svg>
