<svg width="24" height="24" viewBox="0 0 24 24" fill="none" xmlns="http://www.w3.org/2000/svg">
<path d="M16.7681 8.80501C17.9448 9.15632 18.8749 9.85557 19.5553 10.8926C20.2159 11.9026 20.5117 13.0241 20.3605 14.2368C20.114 16.2197 19.0623 17.5979 17.2808 18.3884C16.7319 18.6316 16.1535 18.7768 15.5487 18.7599C15.437 18.7566 15.4435 18.8207 15.4435 18.8951C15.4435 19.3106 15.4402 19.7261 15.4468 20.1415C15.4501 20.3814 15.4107 20.5908 15.1872 20.7158C14.9571 20.8442 14.7599 20.753 14.5627 20.6178C13.7016 20.0233 12.8371 19.4355 11.9727 18.841C11.8873 18.7802 11.8018 18.7566 11.6999 18.7566C10.8355 18.7464 9.97107 18.8039 9.10994 18.7295C7.69992 18.6046 6.54298 17.9594 5.65884 16.8244C4.83057 15.7603 4.48218 14.5341 4.62022 13.1761C4.74183 11.9634 5.24142 10.9264 6.0894 10.0785C6.9341 9.22726 7.953 8.74421 9.13623 8.63611C9.16253 8.63273 9.18882 8.6226 9.21512 8.61246C11.4008 8.61246 13.5898 8.61246 15.7755 8.61246C16.1042 8.67327 16.4394 8.70705 16.7681 8.80501Z" fill="url(#paint0_linear_1252_4733)"/>
<g filter="url(#filter0_bi_1252_4733)">
<path d="M8.22669 3.5658C10.4124 3.5658 12.6014 3.5658 14.7871 3.5658C14.8134 3.57255 14.8397 3.58606 14.866 3.58944C16.0492 3.69754 17.0648 4.18059 17.9128 5.03184C18.7608 5.8831 19.2604 6.91676 19.382 8.12946C19.5167 9.48741 19.1716 10.7136 18.3401 11.7811C17.4559 12.9127 16.3023 13.5613 14.889 13.6863C14.0278 13.7639 13.1634 13.7065 12.299 13.7133C12.1971 13.7133 12.1116 13.7369 12.0262 13.7977C11.1651 14.3923 10.2974 14.98 9.43622 15.5745C9.23902 15.7097 9.04181 15.8042 8.81174 15.6725C8.58824 15.5475 8.5488 15.3347 8.55208 15.0983C8.55866 14.6828 8.55208 14.2673 8.55537 13.8518C8.55537 13.7741 8.56194 13.7133 8.45019 13.7167C7.84543 13.7302 7.26367 13.5883 6.71807 13.3451C4.93664 12.5512 3.88159 11.173 3.63837 9.18677C3.48718 7.97745 3.78299 6.85258 4.44363 5.84256C5.12399 4.80552 6.05743 4.10627 7.2308 3.75496C7.55619 3.66038 7.89473 3.6266 8.22669 3.5658Z" fill="#90A9FE" fill-opacity="0.45"/>
</g>
<ellipse cx="7.69718" cy="8.60375" rx="1.22941" ry="1.25958" fill="white"/>
<ellipse cx="11.3876" cy="8.60379" rx="1.22941" ry="1.25958" fill="white"/>
<ellipse cx="15.0751" cy="8.60422" rx="1.22941" ry="1.25958" fill="white"/>
<defs>
<filter id="filter0_bi_1252_4733" x="1.58361" y="1.5498" width="19.8425" height="16.2019" filterUnits="userSpaceOnUse" color-interpolation-filters="sRGB">
<feFlood flood-opacity="0" result="BackgroundImageFix"/>
<feGaussianBlur in="BackgroundImageFix" stdDeviation="1.008"/>
<feComposite in2="SourceAlpha" operator="in" result="effect1_backgroundBlur_1252_4733"/>
<feBlend mode="normal" in="SourceGraphic" in2="effect1_backgroundBlur_1252_4733" result="shape"/>
<feColorMatrix in="SourceAlpha" type="matrix" values="0 0 0 0 0 0 0 0 0 0 0 0 0 0 0 0 0 0 127 0" result="hardAlpha"/>
<feOffset dx="0.1008" dy="0.0503999"/>
<feGaussianBlur stdDeviation="0.251999"/>
<feComposite in2="hardAlpha" operator="arithmetic" k2="-1" k3="1"/>
<feColorMatrix type="matrix" values="0 0 0 0 1 0 0 0 0 1 0 0 0 0 1 0 0 0 0.6 0"/>
<feBlend mode="normal" in2="shape" result="effect2_innerShadow_1252_4733"/>
</filter>
<linearGradient id="paint0_linear_1252_4733" x1="5.66258" y1="12.3238" x2="19.6429" y2="10.5936" gradientUnits="userSpaceOnUse">
<stop stop-color="#5D82FE"/>
<stop offset="1" stop-color="#90A9FE"/>
</linearGradient>
</defs>
</svg>
