<svg width="32" height="32" viewBox="0 0 32 32" fill="none" xmlns="http://www.w3.org/2000/svg">
<g filter="url(#filter0_b_1252_4710)">
<path d="M22.3594 11.74C23.9283 12.2084 25.1685 13.1407 26.0757 14.5235C26.9565 15.8702 27.3509 17.3655 27.1493 18.9824C26.8207 21.6263 25.4183 23.4639 23.0431 24.5178C22.3112 24.8421 21.5399 25.0358 20.7336 25.0133C20.5846 25.0087 20.5933 25.0943 20.5933 25.1934C20.5933 25.7474 20.589 26.3014 20.5977 26.8554C20.6021 27.1752 20.5495 27.4544 20.2515 27.6211C19.9447 27.7922 19.6818 27.6706 19.4189 27.4904C18.2707 26.6977 17.1181 25.914 15.9656 25.1213C15.8516 25.0403 15.7377 25.0087 15.6018 25.0087C14.4493 24.9952 13.2967 25.0718 12.1485 24.9727C10.2685 24.8061 8.72592 23.9458 7.54707 22.4325C6.44272 21.0137 5.97819 19.3788 6.16225 17.5682C6.32439 15.9512 6.99051 14.5685 8.12116 13.438C9.24742 12.303 10.606 11.6589 12.1836 11.5148C12.2187 11.5103 12.2537 11.4968 12.2888 11.4833C15.203 11.4833 18.1217 11.4833 21.036 11.4833C21.4742 11.5643 21.9212 11.6094 22.3594 11.74Z" fill="url(#paint0_linear_1252_4710)"/>
</g>
<g filter="url(#filter1_b_1252_4710)">
<path d="M10.9702 4.75439C13.8845 4.75439 16.8031 4.75439 19.7174 4.75439C19.7525 4.7634 19.7875 4.78142 19.8226 4.78592C21.4002 4.93005 22.7544 5.57412 23.885 6.70912C25.0157 7.84413 25.6818 9.22235 25.8439 10.8393C26.0236 12.6499 25.5635 14.2848 24.4547 15.7081C23.2759 17.2169 21.7377 18.0817 19.8533 18.2483C18.7051 18.3519 17.5525 18.2754 16.4 18.2844C16.2641 18.2844 16.1502 18.3159 16.0362 18.397C14.8881 19.1897 13.7311 19.9734 12.5829 20.7661C12.32 20.9462 12.0571 21.0723 11.7503 20.8967C11.4523 20.73 11.3997 20.4463 11.4041 20.131C11.4128 19.577 11.4041 19.023 11.4085 18.469C11.4085 18.3654 11.4172 18.2844 11.2682 18.2889C10.4619 18.3069 9.6862 18.1177 8.95873 17.7934C6.58349 16.735 5.17676 14.8974 4.85246 12.249C4.65087 10.6366 5.04529 9.13677 5.92614 7.79008C6.83329 6.40736 8.07787 5.47503 9.64237 5.00662C10.0762 4.88051 10.5276 4.83547 10.9702 4.75439Z" fill="#FFAC95" fill-opacity="0.4"/>
<path d="M10.9486 4.63644C10.9557 4.63513 10.963 4.63448 10.9702 4.63448H10.9873H11.0044H11.0215H11.0385H11.0556H11.0727H11.0898H11.1068H11.1239H11.141H11.1581H11.1751H11.1922H11.2093H11.2264H11.2435H11.2605H11.2776H11.2947H11.3118H11.3288H11.3459H11.363H11.3801H11.3972H11.4142H11.4313H11.4484H11.4655H11.4825H11.4996H11.5167H11.5338H11.5509H11.5679H11.585H11.6021H11.6192H11.6363H11.6533H11.6704H11.6875H11.7046H11.7217H11.7387H11.7558H11.7729H11.79H11.8071H11.8241H11.8412H11.8583H11.8754H11.8925H11.9095H11.9266H11.9437H11.9608H11.9779H11.9949H12.012H12.0291H12.0462H12.0633H12.0803H12.0974H12.1145H12.1316H12.1487H12.1658H12.1828H12.1999H12.217H12.2341H12.2512H12.2682H12.2853H12.3024H12.3195H12.3366H12.3537H12.3707H12.3878H12.4049H12.422H12.4391H12.4562H12.4732H12.4903H12.5074H12.5245H12.5416H12.5587H12.5757H12.5928H12.6099H12.627H12.6441H12.6612H12.6782H12.6953H12.7124H12.7295H12.7466H12.7637H12.7807H12.7978H12.8149H12.832H12.8491H12.8662H12.8833H12.9003H12.9174H12.9345H12.9516H12.9687H12.9858H13.0028H13.0199H13.037H13.0541H13.0712H13.0883H13.1054H13.1224H13.1395H13.1566H13.1737H13.1908H13.2079H13.225H13.242H13.2591H13.2762H13.2933H13.3104H13.3275H13.3446H13.3616H13.3787H13.3958H13.4129H13.43H13.4471H13.4642H13.4812H13.4983H13.5154H13.5325H13.5496H13.5667H13.5838H13.6008H13.6179H13.635H13.6521H13.6692H13.6863H13.7034H13.7205H13.7375H13.7546H13.7717H13.7888H13.8059H13.823H13.8401H13.8572H13.8742H13.8913H13.9084H13.9255H13.9426H13.9597H13.9768H13.9938H14.0109H14.028H14.0451H14.0622H14.0793H14.0964H14.1135H14.1305H14.1476H14.1647H14.1818H14.1989H14.216H14.2331H14.2502H14.2673H14.2843H14.3014H14.3185H14.3356H14.3527H14.3698H14.3869H14.404H14.421H14.4381H14.4552H14.4723H14.4894H14.5065H14.5236H14.5407H14.5577H14.5748H14.5919H14.609H14.6261H14.6432H14.6603H14.6774H14.6945H14.7115H14.7286H14.7457H14.7628H14.7799H14.797H14.8141H14.8312H14.8482H14.8653H14.8824H14.8995H14.9166H14.9337H14.9508H14.9679H14.985H15.002H15.0191H15.0362H15.0533H15.0704H15.0875H15.1046H15.1217H15.1388H15.1558H15.1729H15.19H15.2071H15.2242H15.2413H15.2584H15.2755H15.2926H15.3096H15.3267H15.3438H15.3609H15.378H15.3951H15.4122H15.4293H15.4463H15.4634H15.4805H15.4976H15.5147H15.5318H15.5489H15.566H15.5831H15.6001H15.6172H15.6343H15.6514H15.6685H15.6856H15.7027H15.7198H15.7369H15.7539H15.771H15.7881H15.8052H15.8223H15.8394H15.8565H15.8736H15.8906H15.9077H15.9248H15.9419H15.959H15.9761H15.9932H16.0103H16.0274H16.0444H16.0615H16.0786H16.0957H16.1128H16.1299H16.147H16.1641H16.1812H16.1982H16.2153H16.2324H16.2495H16.2666H16.2837H16.3008H16.3179H16.3349H16.352H16.3691H16.3862H16.4033H16.4204H16.4375H16.4546H16.4716H16.4887H16.5058H16.5229H16.54H16.5571H16.5742H16.5913H16.6083H16.6254H16.6425H16.6596H16.6767H16.6938H16.7109H16.728H16.745H16.7621H16.7792H16.7963H16.8134H16.8305H16.8476H16.8647H16.8817H16.8988H16.9159H16.933H16.9501H16.9672H16.9843H17.0014H17.0184H17.0355H17.0526H17.0697H17.0868H17.1039H17.121H17.138H17.1551H17.1722H17.1893H17.2064H17.2235H17.2406H17.2576H17.2747H17.2918H17.3089H17.326H17.3431H17.3602H17.3773H17.3943H17.4114H17.4285H17.4456H17.4627H17.4798H17.4969H17.5139H17.531H17.5481H17.5652H17.5823H17.5994H17.6164H17.6335H17.6506H17.6677H17.6848H17.7019H17.719H17.736H17.7531H17.7702H17.7873H17.8044H17.8215H17.8385H17.8556H17.8727H17.8898H17.9069H17.924H17.9411H17.9581H17.9752H17.9923H18.0094H18.0265H18.0436H18.0606H18.0777H18.0948H18.1119H18.129H18.1461H18.1631H18.1802H18.1973H18.2144H18.2315H18.2486H18.2656H18.2827H18.2998H18.3169H18.334H18.3511H18.3681H18.3852H18.4023H18.4194H18.4365H18.4535H18.4706H18.4877H18.5048H18.5219H18.539H18.556H18.5731H18.5902H18.6073H18.6244H18.6414H18.6585H18.6756H18.6927H18.7098H18.7269H18.7439H18.761H18.7781H18.7952H18.8123H18.8293H18.8464H18.8635H18.8806H18.8977H18.9147H18.9318H18.9489H18.966H18.9831H19.0001H19.0172H19.0343H19.0514H19.0685H19.0855H19.1026H19.1197H19.1368H19.1539H19.1709H19.188H19.2051H19.2222H19.2392H19.2563H19.2734H19.2905H19.3076H19.3246H19.3417H19.3588H19.3759H19.3929H19.41H19.4271H19.4442H19.4613H19.4783H19.4954H19.5125H19.5296H19.5466H19.5637H19.5808H19.5979H19.6149H19.632H19.6491H19.6662H19.6833H19.7003H19.7174C19.7275 4.63448 19.7375 4.63574 19.7472 4.63825C19.7674 4.64343 19.7884 4.65102 19.8024 4.65606C19.8052 4.65709 19.8078 4.65801 19.8099 4.65878C19.825 4.66409 19.8323 4.66606 19.8365 4.66678C21.4414 4.81406 22.8206 5.4707 23.97 6.62449C25.1197 7.77868 25.7983 9.18242 25.9633 10.8273L25.9633 10.8274C26.1459 12.6679 25.6774 14.3336 24.5493 15.7818L24.5492 15.7819C23.3509 17.3157 21.7828 18.1981 19.8639 18.3678L10.9486 4.63644ZM10.9486 4.63644C10.8185 4.66028 10.6847 4.68131 10.5491 4.70262C10.2374 4.75161 9.91642 4.80208 9.6089 4.89147L9.6089 4.89146L9.60798 4.89174C8.01605 5.36837 6.74829 6.3183 5.82587 7.7243L5.82578 7.72444C4.93074 9.09282 4.52809 10.6208 4.73345 12.2638C5.063 14.9547 6.49707 16.8278 8.9099 17.903C9.65046 18.2331 10.4437 18.4272 11.2709 18.4088L11.2719 18.4087C11.2783 18.4085 11.2837 18.4086 11.2881 18.4088C11.2884 18.4152 11.2886 18.4227 11.2886 18.4319L11.2885 18.4681C11.2885 18.4682 11.2885 18.4683 11.2885 18.4684C11.2866 18.7088 11.2872 18.9467 11.2877 19.184C11.2885 19.4988 11.2892 19.8124 11.2842 20.1291L11.2842 20.1293C11.2796 20.4548 11.3328 20.8003 11.6912 21.0011C11.8716 21.1042 12.0451 21.1203 12.2104 21.0816C12.3701 21.0441 12.5168 20.9568 12.6507 20.865L12.6511 20.8647C13.2249 20.4686 13.8009 20.0746 14.3773 19.6805L14.3773 19.6805L14.3774 19.6804C14.9536 19.2864 15.5301 18.8921 16.1044 18.4957L16.1044 18.4957L16.1058 18.4947C16.1972 18.4296 16.2862 18.4043 16.4 18.4043L16.4009 18.4043C16.766 18.4014 17.134 18.4073 17.5035 18.4133C18.2879 18.4259 19.0793 18.4386 19.8638 18.3678L19.8533 18.2483C19.0749 18.3186 18.2946 18.306 17.5136 18.2934C17.1425 18.2874 16.7712 18.2815 16.4 18.2844M10.9486 4.63644L16.4 18.2844M16.4 18.2844C16.2641 18.2844 16.1502 18.3159 16.0362 18.397L16.4 18.2844Z" stroke="url(#paint1_linear_1252_4710)" stroke-width="0.239838" stroke-linecap="round" stroke-linejoin="round"/>
</g>
<ellipse cx="10.2642" cy="11.4719" rx="1.63921" ry="1.67944" fill="white"/>
<ellipse cx="15.1841" cy="11.4717" rx="1.63921" ry="1.67944" fill="white"/>
<ellipse cx="20.1021" cy="11.4723" rx="1.63921" ry="1.67944" fill="white"/>
<defs>
<filter id="filter0_b_1252_4710" x="3.00516" y="8.36539" width="27.3139" height="22.4558" filterUnits="userSpaceOnUse" color-interpolation-filters="sRGB">
<feFlood flood-opacity="0" result="BackgroundImageFix"/>
<feGaussianBlur in="BackgroundImageFix" stdDeviation="1.55895"/>
<feComposite in2="SourceAlpha" operator="in" result="effect1_backgroundBlur_1252_4710"/>
<feBlend mode="normal" in="SourceGraphic" in2="effect1_backgroundBlur_1252_4710" result="shape"/>
</filter>
<filter id="filter1_b_1252_4710" x="0.962981" y="0.916991" width="28.7567" height="23.9013" filterUnits="userSpaceOnUse" color-interpolation-filters="sRGB">
<feFlood flood-opacity="0" result="BackgroundImageFix"/>
<feGaussianBlur in="BackgroundImageFix" stdDeviation="1.79878"/>
<feComposite in2="SourceAlpha" operator="in" result="effect1_backgroundBlur_1252_4710"/>
<feBlend mode="normal" in="SourceGraphic" in2="effect1_backgroundBlur_1252_4710" result="shape"/>
</filter>
<linearGradient id="paint0_linear_1252_4710" x1="18.2138" y1="20.6795" x2="1.84794" y2="31.0202" gradientUnits="userSpaceOnUse">
<stop stop-color="#FFA78F"/>
<stop offset="1" stop-color="#F23E2C"/>
</linearGradient>
<linearGradient id="paint1_linear_1252_4710" x1="8.15653" y1="6.64481" x2="17.6507" y2="21.9214" gradientUnits="userSpaceOnUse">
<stop stop-color="white" stop-opacity="0.25"/>
<stop offset="1" stop-color="white" stop-opacity="0"/>
</linearGradient>
</defs>
</svg>
