<svg width="24" height="24" viewBox="0 0 24 24" fill="none" xmlns="http://www.w3.org/2000/svg">
<path d="M19.0169 9.22479H15.857C15.5795 9.22479 15.4424 9.03667 15.3956 8.95459C15.3487 8.8725 15.2551 8.65702 15.3889 8.41075L16.5024 6.35855C16.7465 5.91049 16.7732 5.38033 16.5726 4.90833C16.3719 4.43632 15.9774 4.09429 15.4892 3.96773L14.7034 3.76593C14.5128 3.71805 14.3088 3.77962 14.1751 3.93011L9.91169 8.78015C9.48702 9.26242 9.24627 9.87808 9.22621 10.5245H5.69513C5.03306 10.5245 4.49805 10.9076 4.49805 11.3796V18.21C4.49805 18.682 5.03306 19.0651 5.69513 19.0651H11.6772C11.7508 19.0719 11.8244 19.0754 11.9013 19.0754H17.2246C18.4251 19.0754 19.4884 18.2476 19.8061 17.0642L20.9496 11.7011C20.9831 11.5506 20.9998 11.4001 20.9998 11.2462C20.9931 10.1312 20.107 9.22479 19.0169 9.22479Z" fill="url(#paint0_linear_1557_7443)"/>
<g filter="url(#filter0_bi_1557_7443)">
<rect x="3" y="8.75598" width="4.12019" height="11.494" rx="1.2" fill="#90A9FE" fill-opacity="0.45"/>
</g>
<defs>
<filter id="filter0_bi_1557_7443" x="1.4" y="7.15598" width="7.32012" height="14.694" filterUnits="userSpaceOnUse" color-interpolation-filters="sRGB">
<feFlood flood-opacity="0" result="BackgroundImageFix"/>
<feGaussianBlur in="BackgroundImageFix" stdDeviation="0.8"/>
<feComposite in2="SourceAlpha" operator="in" result="effect1_backgroundBlur_1557_7443"/>
<feBlend mode="normal" in="SourceGraphic" in2="effect1_backgroundBlur_1557_7443" result="shape"/>
<feColorMatrix in="SourceAlpha" type="matrix" values="0 0 0 0 0 0 0 0 0 0 0 0 0 0 0 0 0 0 127 0" result="hardAlpha"/>
<feOffset dx="0.08" dy="0.04"/>
<feGaussianBlur stdDeviation="0.2"/>
<feComposite in2="hardAlpha" operator="arithmetic" k2="-1" k3="1"/>
<feColorMatrix type="matrix" values="0 0 0 0 1 0 0 0 0 1 0 0 0 0 1 0 0 0 0.6 0"/>
<feBlend mode="normal" in2="shape" result="effect2_innerShadow_1557_7443"/>
</filter>
<linearGradient id="paint0_linear_1557_7443" x1="5.61681" y1="8.42554" x2="20.2796" y2="6.92189" gradientUnits="userSpaceOnUse">
<stop stop-color="#5D82FE"/>
<stop offset="1" stop-color="#90A9FE"/>
</linearGradient>
</defs>
</svg>
