<svg width="32" height="32" viewBox="0 0 32 32" fill="none" xmlns="http://www.w3.org/2000/svg">
<path d="M13.5726 22.2813C9.0793 22.2813 5.46193 18.6181 5.4655 14.1742C5.46311 9.7631 9.0495 6.06636 13.5719 6.06781C18.6117 6.06785 21.6811 10.2992 21.679 14.1749C21.679 18.5699 18.1134 22.2799 13.5726 22.2813Z" fill="url(#paint0_linear_1252_4707)"/>
<g filter="url(#filter0_bi_1252_4707)">
<path d="M18.0729 28.0757C12.8639 28.0757 8.6702 23.8289 8.67434 18.6771C8.67158 13.5632 12.8293 9.27755 18.0722 9.27922C23.9148 9.27927 27.4732 14.1848 27.4708 18.6778C27.4708 23.773 23.3371 28.074 18.0729 28.0757Z" fill="#72DC60" fill-opacity="0.33"/>
</g>
<path d="M18.0703 12.6489C17.6003 12.6489 17.2196 13.0296 17.2196 13.4996L17.2199 14.5229C16.2345 14.8768 15.5182 15.7984 15.5181 16.9025C15.5181 17.584 15.7837 18.2256 16.266 18.708C16.7478 19.1897 17.3893 19.4553 18.0709 19.4553C18.5403 19.4547 18.9221 19.8366 18.9216 20.306C18.9216 20.776 18.5408 21.1567 18.0709 21.1567C17.8429 21.1567 17.6296 21.068 17.4692 20.9076C17.1367 20.5751 16.5985 20.5751 16.266 20.9076C15.9335 21.2402 15.9335 21.7783 16.266 22.1109C16.539 22.3838 16.8664 22.5783 17.2201 22.7035L17.2201 23.709C17.2201 24.1789 17.6009 24.5597 18.0709 24.5597C18.5408 24.5597 18.9216 24.179 18.9216 23.709L18.9216 22.6861C20.067 22.2746 20.6238 21.286 20.623 20.3061C20.623 19.016 19.6466 17.9906 18.4025 17.821C18.3005 17.7778 18.1885 17.754 18.0709 17.754C17.6016 17.754 17.2202 17.3749 17.2202 16.9033C17.2213 16.4345 17.6015 16.0531 18.0715 16.0532C18.2983 16.052 18.5116 16.1407 18.6725 16.3017C19.0051 16.6342 19.5432 16.6342 19.8758 16.3017C20.2083 15.9691 20.2083 15.431 19.8758 15.0984C19.6023 14.8249 19.2748 14.6303 18.9214 14.5051L18.9211 13.4998C18.921 13.0296 18.5397 12.6483 18.0703 12.6489Z" fill="white"/>
<defs>
<filter id="filter0_bi_1252_4707" x="5.4748" y="6.07922" width="25.1959" height="25.1964" filterUnits="userSpaceOnUse" color-interpolation-filters="sRGB">
<feFlood flood-opacity="0" result="BackgroundImageFix"/>
<feGaussianBlur in="BackgroundImageFix" stdDeviation="1.6"/>
<feComposite in2="SourceAlpha" operator="in" result="effect1_backgroundBlur_1252_4707"/>
<feBlend mode="normal" in="SourceGraphic" in2="effect1_backgroundBlur_1252_4707" result="shape"/>
<feColorMatrix in="SourceAlpha" type="matrix" values="0 0 0 0 0 0 0 0 0 0 0 0 0 0 0 0 0 0 127 0" result="hardAlpha"/>
<feOffset dx="0.16" dy="0.08"/>
<feGaussianBlur stdDeviation="0.4"/>
<feComposite in2="hardAlpha" operator="arithmetic" k2="-1" k3="1"/>
<feColorMatrix type="matrix" values="0 0 0 0 1 0 0 0 0 1 0 0 0 0 1 0 0 0 0.6 0"/>
<feBlend mode="normal" in2="shape" result="effect2_innerShadow_1252_4707"/>
</filter>
<linearGradient id="paint0_linear_1252_4707" x1="13.5752" y1="2.71293" x2="14.9479" y2="20.2431" gradientUnits="userSpaceOnUse">
<stop stop-color="#9BF763"/>
<stop offset="1" stop-color="#40D27B"/>
</linearGradient>
</defs>
</svg>
