<svg width="24" height="24" viewBox="0 0 24 24" fill="none" xmlns="http://www.w3.org/2000/svg">
<rect width="24" height="24" fill="none"/>
<path d="M12.3562 13.9848C12.0662 13.3787 11.9888 12.9 12.1833 12.1742L12.2494 11.9274C12.5028 10.9816 12.4484 10.3139 12.1384 9.57765C11.6626 8.43578 10.5874 7.53632 9.3852 7.2142L9.33408 7.2005C8.15718 6.88515 6.82182 7.11063 5.83642 7.81979C5.17072 8.30767 4.75745 8.87817 4.497 9.8502L4.43087 10.097C4.23639 10.8228 3.94271 11.202 3.37581 11.5785C2.95856 11.856 2.73124 12.2954 2.59587 12.8006C2.46034 13.3064 2.49798 13.8299 2.72678 14.3086C3.0365 14.8919 3.57066 15.3544 4.184 15.5743C5.06434 15.9212 5.96198 16.2035 6.88329 16.4504C7.80401 16.6971 8.72958 16.8752 9.65899 17.0413C10.2995 17.1574 10.9934 17.0239 11.5533 16.6736C11.9902 16.3733 12.2851 15.9389 12.4206 15.4331C12.556 14.9279 12.5788 14.4337 12.3562 13.9848Z" fill="url(#paint0_linear_1408_6421)"/>
<path d="M7.8429 17.5154C7.57052 17.3762 5.81004 16.9045 5.5046 16.8888C5.24233 16.8797 4.93969 16.9408 4.86171 17.2318C4.80167 17.5133 4.89856 17.8019 5.08208 18.0177L5.08135 18.0181C5.31174 18.3231 5.61481 18.559 5.95877 18.7067C6.14245 18.784 6.3369 18.8349 6.54119 18.8628C6.91234 18.9067 7.29277 18.8539 7.6448 18.705L7.64439 18.7042C7.91118 18.6092 8.13939 18.4077 8.22814 18.1339C8.30612 17.8429 8.0746 17.6386 7.8429 17.5154Z" fill="url(#paint1_linear_1408_6421)"/>
<g opacity="0.5" filter="url(#filter0_f_1408_6421)">
<path d="M10.3475 13.0583C10.2387 12.6795 10.2253 12.373 10.3539 11.8928L10.3977 11.7295C10.5654 11.1038 10.5722 10.6735 10.4603 10.2114C10.2891 9.49436 9.81945 8.96406 9.26074 8.81435L9.23698 8.80798C8.69001 8.66142 8.04069 8.87334 7.53484 9.38166C7.19266 9.73077 6.96707 10.121 6.79476 10.7641L6.75101 10.9274C6.62234 11.4076 6.46331 11.6679 6.17384 11.94C5.96077 12.1404 5.8305 12.4365 5.74094 12.7708C5.65127 13.1054 5.6435 13.443 5.72929 13.7421C5.84862 14.1051 6.08115 14.3787 6.36347 14.4911C6.76714 14.6727 7.18227 14.8116 7.61045 14.9263C8.03836 15.041 8.47195 15.111 8.90798 15.1729C9.2084 15.2167 9.54659 15.096 9.83142 14.8413C10.055 14.6251 10.2173 14.3289 10.307 13.9942C10.3966 13.66 10.4318 13.3384 10.3475 13.0583Z" fill="#7795FE"/>
</g>
<g filter="url(#filter1_b_1408_6421)">
<mask id="path-4-outside-1_1408_6421" maskUnits="userSpaceOnUse" x="4.39532" y="1.50872" width="18.7499" height="17.9776" fill="black">
<rect fill="white" x="4.39532" y="1.50872" width="18.7499" height="17.9776"/>
<path d="M20.9262 10.7929C20.1629 10.2067 19.754 9.64558 19.532 8.59255L19.4565 8.23451C19.1673 6.86228 18.6651 6.04472 17.792 5.30533C16.4443 4.15534 14.4882 3.70334 12.7441 4.07099L12.6699 4.08662C10.9625 4.44655 9.4031 5.59989 8.60414 7.14417C8.0701 8.19869 7.91199 9.19513 8.20925 10.6054L8.28472 10.9634C8.50669 12.0164 8.37735 12.691 7.8973 13.5393C7.54422 14.164 7.53865 14.8726 7.69315 15.6055C7.84784 16.3394 8.23516 16.9836 8.83757 17.4466C9.61115 17.9909 10.5931 18.2355 11.5189 18.1188C12.8681 17.9914 14.1975 17.7703 15.5341 17.4885C16.8699 17.2069 18.1675 16.8347 19.4621 16.4445C20.3554 16.1777 21.1551 15.5575 21.6431 14.7473C22.0065 14.0807 22.1017 13.3347 21.947 12.6009C21.7925 11.8679 21.5014 11.222 20.9262 10.7929Z"/>
</mask>
<path d="M20.9262 10.7929C20.1629 10.2067 19.754 9.64558 19.532 8.59255L19.4565 8.23451C19.1673 6.86228 18.6651 6.04472 17.792 5.30533C16.4443 4.15534 14.4882 3.70334 12.7441 4.07099L12.6699 4.08662C10.9625 4.44655 9.4031 5.59989 8.60414 7.14417C8.0701 8.19869 7.91199 9.19513 8.20925 10.6054L8.28472 10.9634C8.50669 12.0164 8.37735 12.691 7.8973 13.5393C7.54422 14.164 7.53865 14.8726 7.69315 15.6055C7.84784 16.3394 8.23516 16.9836 8.83757 17.4466C9.61115 17.9909 10.5931 18.2355 11.5189 18.1188C12.8681 17.9914 14.1975 17.7703 15.5341 17.4885C16.8699 17.2069 18.1675 16.8347 19.4621 16.4445C20.3554 16.1777 21.1551 15.5575 21.6431 14.7473C22.0065 14.0807 22.1017 13.3347 21.947 12.6009C21.7925 11.8679 21.5014 11.222 20.9262 10.7929Z" fill="#90A9FE" fill-opacity="0.45"/>
<path d="M20.7984 10.9593C20.8903 11.0299 21.022 11.0126 21.0926 10.9207C21.1632 10.8288 21.1459 10.697 21.054 10.6264L20.7984 10.9593ZM17.792 5.30533L17.6558 5.46496L17.6564 5.46546L17.792 5.30533ZM8.60414 7.14417L8.41775 7.04774L8.41693 7.04936L8.60414 7.14417ZM7.8973 13.5393L7.71467 13.4359L7.71461 13.436L7.8973 13.5393ZM8.83757 17.4466L8.70957 17.6132L8.71682 17.6183L8.83757 17.4466ZM11.5189 18.1188L11.4992 17.9098L11.4927 17.9106L11.5189 18.1188ZM19.4621 16.4445L19.402 16.2434L19.4015 16.2435L19.4621 16.4445ZM21.6431 14.7473L21.8231 14.8557L21.8274 14.8477L21.6431 14.7473ZM21.0517 10.6247C20.9588 10.5554 20.8273 10.5745 20.758 10.6674C20.6887 10.7603 20.7078 10.8918 20.8007 10.9611L21.0517 10.6247ZM21.054 10.6264C20.6837 10.342 20.41 10.0718 20.2018 9.75306C19.994 9.43474 19.8444 9.05705 19.7373 8.54927L19.3267 8.63584C19.4416 9.18108 19.6075 9.61048 19.8504 9.98253C20.093 10.3541 20.4055 10.6575 20.7984 10.9593L21.054 10.6264ZM19.7373 8.54927L19.6619 8.19122L19.2512 8.27779L19.3267 8.63584L19.7373 8.54927ZM19.6619 8.19122C19.3638 6.77741 18.8393 5.91726 17.9277 5.14519L17.6564 5.46546C18.4909 6.17218 18.9707 6.94716 19.2512 8.27779L19.6619 8.19122ZM17.9283 5.14569C16.528 3.95086 14.5046 3.48543 12.7008 3.86565L12.7874 4.27633C14.4719 3.92125 16.3607 4.35983 17.6558 5.46496L17.9283 5.14569ZM12.7008 3.86565L12.6266 3.88129L12.7132 4.29196L12.7874 4.27633L12.7008 3.86565ZM12.6266 3.88129C10.86 4.25369 9.24678 5.44535 8.41776 7.04775L8.79053 7.2406C9.55942 5.75443 11.0649 4.63941 12.7132 4.29196L12.6266 3.88129ZM8.41693 7.04936C7.86036 8.14836 7.69723 9.19374 8.00391 10.6486L8.41459 10.5621C8.12674 9.19652 8.27984 8.24902 8.79135 7.23898L8.41693 7.04936ZM8.00391 10.6486L8.07939 11.0067L8.49006 10.9201L8.41459 10.5621L8.00391 10.6486ZM8.07939 11.0067C8.18675 11.516 8.2065 11.9211 8.14702 12.2952C8.08756 12.6692 7.94678 13.0258 7.71467 13.4359L8.07993 13.6426C8.32788 13.2045 8.49179 12.7997 8.56152 12.3611C8.63124 11.9225 8.60467 11.4638 8.49006 10.9201L8.07939 11.0067ZM7.71461 13.436C7.32613 14.1234 7.32807 14.891 7.48782 15.6488L7.89849 15.5622C7.74922 14.8541 7.76231 14.2047 8.08 13.6425L7.71461 13.436ZM7.48782 15.6488C7.65224 16.4289 8.06545 17.1178 8.70968 17.613L8.96546 17.2802C8.40488 16.8493 8.04344 16.2499 7.89849 15.5622L7.48782 15.6488ZM8.71682 17.6183C9.5328 18.1924 10.5671 18.4503 11.5452 18.327L11.4927 17.9106C10.6191 18.0207 9.6895 17.7894 8.95832 17.275L8.71682 17.6183ZM11.5387 18.3277C12.8976 18.1994 14.235 17.9768 15.5774 17.6939L15.4908 17.2832C14.1599 17.5637 12.8386 17.7834 11.4992 17.9099L11.5387 18.3277ZM15.5774 17.6939C16.9223 17.4104 18.2269 17.0359 19.5227 16.6454L19.4015 16.2435C18.1081 16.6334 16.8175 17.0035 15.4908 17.2832L15.5774 17.6939ZM19.5222 16.6455C20.4659 16.3637 21.3081 15.7102 21.8229 14.8556L21.4634 14.639C21.0021 15.4048 20.2449 15.9916 19.402 16.2434L19.5222 16.6455ZM21.8274 14.8477C22.2159 14.135 22.3168 13.3378 22.1524 12.5576L21.7417 12.6442C21.8866 13.3317 21.7972 14.0263 21.4589 14.6469L21.8274 14.8477ZM22.1524 12.5576C21.9926 11.7998 21.6846 11.0968 21.0517 10.6247L20.8007 10.9611C21.3183 11.3472 21.5924 11.9361 21.7417 12.6442L22.1524 12.5576Z" fill="url(#paint2_linear_1408_6421)" mask="url(#path-4-outside-1_1408_6421)"/>
</g>
<g filter="url(#filter2_b_1408_6421)">
<mask id="path-6-outside-2_1408_6421" maskUnits="userSpaceOnUse" x="12.1121" y="16.8164" width="7.67452" height="5.35781" fill="black">
<rect fill="white" x="12.1121" y="16.8164" width="7.67452" height="5.35781"/>
<path d="M17.4493 18.2273C17.0112 18.2261 14.4571 18.7645 14.0568 18.9424C13.716 19.1007 13.3691 19.3749 13.4581 19.7971C13.5638 20.1955 13.8746 20.5013 14.2488 20.6579L14.2481 20.6589C14.74 20.8992 15.28 21.0041 15.815 20.9698C16.0996 20.9495 16.381 20.8885 16.66 20.7917C17.1624 20.6073 17.6141 20.2934 17.9672 19.875L17.9662 19.8743C18.2453 19.58 18.4062 19.1748 18.3421 18.7676C18.2531 18.3453 17.825 18.2345 17.4493 18.2273Z"/>
</mask>
<path d="M17.4493 18.2273C17.0112 18.2261 14.4571 18.7645 14.0568 18.9424C13.716 19.1007 13.3691 19.3749 13.4581 19.7971C13.5638 20.1955 13.8746 20.5013 14.2488 20.6579L14.2481 20.6589C14.74 20.8992 15.28 21.0041 15.815 20.9698C16.0996 20.9495 16.381 20.8885 16.66 20.7917C17.1624 20.6073 17.6141 20.2934 17.9672 19.875L17.9662 19.8743C18.2453 19.58 18.4062 19.1748 18.3421 18.7676C18.2531 18.3453 17.825 18.2345 17.4493 18.2273Z" fill="#90A9FE" fill-opacity="0.45"/>
<path d="M17.4487 18.4371C17.5646 18.4374 17.6588 18.3437 17.6591 18.2278C17.6594 18.1119 17.5657 18.0177 17.4498 18.0174L17.4487 18.4371ZM14.0568 18.9424L13.9716 18.7506L13.9685 18.752L14.0568 18.9424ZM13.4581 19.7971L13.2524 19.8404L13.2552 19.8509L13.4581 19.7971ZM14.2488 20.6579L14.4253 20.7713C14.4588 20.7191 14.4676 20.6548 14.4491 20.5956C14.4307 20.5363 14.387 20.4883 14.3298 20.4643L14.2488 20.6579ZM14.2481 20.6589L14.0715 20.5455C14.0392 20.5959 14.0299 20.6578 14.046 20.7154C14.0621 20.7731 14.1022 20.8212 14.156 20.8475L14.2481 20.6589ZM15.815 20.9698L15.8284 21.1793L15.8299 21.1792L15.815 20.9698ZM16.66 20.7917L16.7287 20.99L16.7323 20.9887L16.66 20.7917ZM17.9672 19.875L18.1276 20.0103C18.1662 19.9645 18.1834 19.9044 18.1749 19.8451C18.1664 19.7858 18.1329 19.733 18.0829 19.6999L17.9672 19.875ZM17.9662 19.8743L17.8139 19.7299C17.7712 19.7749 17.7506 19.8365 17.7577 19.8982C17.7647 19.9598 17.7987 20.0152 17.8505 20.0494L17.9662 19.8743ZM18.3421 18.7676L18.5497 18.7349L18.5475 18.7243L18.3421 18.7676ZM17.4533 18.0175C17.3374 18.0152 17.2417 18.1074 17.2395 18.2232C17.2372 18.3391 17.3294 18.4349 17.4452 18.4371L17.4533 18.0175ZM17.4498 18.0174C17.3184 18.0171 17.0574 18.0545 16.755 18.1067C16.4445 18.1604 16.069 18.2336 15.6956 18.3123C15.3222 18.3911 14.9491 18.4756 14.6434 18.5518C14.3457 18.6261 14.0917 18.6972 13.9716 18.7506L14.1421 19.1341C14.2221 19.0986 14.4375 19.0357 14.745 18.959C15.0444 18.8844 15.4123 18.801 15.7822 18.723C16.1521 18.645 16.5223 18.5728 16.8264 18.5203C17.1387 18.4663 17.3611 18.4369 17.4487 18.4371L17.4498 18.0174ZM13.9685 18.752C13.7845 18.8374 13.5816 18.9615 13.4354 19.136C13.2834 19.3174 13.1927 19.5554 13.2527 19.8404L13.6634 19.7538C13.6345 19.6165 13.6726 19.5064 13.7571 19.4055C13.8474 19.2978 13.9883 19.2056 14.1452 19.1327L13.9685 18.752ZM13.2552 19.8509C13.3807 20.3238 13.7453 20.6747 14.1677 20.8515L14.3298 20.4643C14.0038 20.3279 13.7469 20.0672 13.6609 19.7433L13.2552 19.8509ZM14.0722 20.5445L14.0715 20.5455L14.4246 20.7724L14.4253 20.7713L14.0722 20.5445ZM14.156 20.8475C14.6808 21.1038 15.2571 21.2159 15.8284 21.1793L15.8016 20.7604C15.3029 20.7924 14.7993 20.6946 14.3402 20.4704L14.156 20.8475ZM15.8299 21.1792C16.1348 21.1574 16.4342 21.0921 16.7287 20.99L16.5912 20.5934C16.3277 20.6848 16.0645 20.7416 15.8 20.7605L15.8299 21.1792ZM16.7323 20.9887C17.2689 20.7918 17.7509 20.4566 18.1276 20.0103L17.8068 19.7396C17.4773 20.1301 17.056 20.4228 16.5877 20.5947L16.7323 20.9887ZM18.0829 19.6999L18.0819 19.6992L17.8505 20.0494L17.8515 20.05L18.0829 19.6999ZM18.1184 20.0187C18.4335 19.6865 18.6255 19.2182 18.5494 18.7349L18.1348 18.8002C18.1869 19.1313 18.0571 19.4735 17.8139 19.7299L18.1184 20.0187ZM18.5475 18.7243C18.4874 18.4393 18.3082 18.2582 18.096 18.1536C17.8918 18.0529 17.656 18.0214 17.4533 18.0175L17.4452 18.4371C17.6183 18.4404 17.7844 18.4679 17.9105 18.53C18.0285 18.5882 18.1078 18.6736 18.1368 18.8109L18.5475 18.7243Z" fill="url(#paint3_linear_1408_6421)" mask="url(#path-6-outside-2_1408_6421)"/>
</g>
<g filter="url(#filter3_bd_1408_6421)">
<path d="M15.5401 6.30574C15.2362 6.23753 14.9294 6.41501 14.8345 6.70241C14.8026 6.86234 14.828 7.03177 14.9184 7.16681C15.0088 7.30185 15.1503 7.39754 15.3162 7.43275L15.3381 7.43933C15.8321 7.58777 16.1869 8.02494 16.2204 8.5289C16.2365 8.85735 16.5149 9.11051 16.8414 9.10077C17.1701 9.08396 17.4218 8.81288 17.4092 8.49319C17.3371 7.4768 16.6206 6.60733 15.6242 6.33101L15.5401 6.30574Z" fill="url(#paint4_linear_1408_6421)" shape-rendering="crispEdges"/>
<path d="M15.3206 7.41222L15.3206 7.41215L15.3223 7.41265L15.3442 7.41923C15.8462 7.57011 16.2073 8.01454 16.2413 8.52751L16.2413 8.52751L16.2414 8.52787C16.2569 8.84469 16.5254 9.08908 16.8405 9.0798C17.1579 9.06345 17.4002 8.80192 17.3883 8.49435C17.3167 7.4871 16.6065 6.62519 15.6186 6.35123L15.6186 6.35124L15.6181 6.35111L15.5348 6.32605C15.2421 6.26075 14.9467 6.43155 14.8549 6.70777C14.8243 6.86266 14.8492 7.02571 14.9359 7.15514C15.0231 7.28552 15.1599 7.37812 15.3206 7.41222Z" stroke="url(#paint5_linear_1408_6421)" stroke-opacity="0.5" stroke-width="0.0419701" shape-rendering="crispEdges"/>
</g>
<defs>
<filter id="filter0_f_1408_6421" x="2.52119" y="5.61475" width="11.1617" height="12.7147" filterUnits="userSpaceOnUse" color-interpolation-filters="sRGB">
<feFlood flood-opacity="0" result="BackgroundImageFix"/>
<feBlend mode="normal" in="SourceGraphic" in2="BackgroundImageFix" result="shape"/>
<feGaussianBlur stdDeviation="1.57388" result="effect1_foregroundBlur_1408_6421"/>
</filter>
<filter id="filter1_b_1408_6421" x="4.23896" y="0.58833" width="21.1373" height="20.9166" filterUnits="userSpaceOnUse" color-interpolation-filters="sRGB">
<feFlood flood-opacity="0" result="BackgroundImageFix"/>
<feGaussianBlur in="BackgroundImageFix" stdDeviation="1.57388"/>
<feComposite in2="SourceAlpha" operator="in" result="effect1_backgroundBlur_1408_6421"/>
<feBlend mode="normal" in="SourceGraphic" in2="effect1_backgroundBlur_1408_6421" result="shape"/>
</filter>
<filter id="filter2_b_1408_6421" x="10.0866" y="14.8697" width="11.6275" height="9.46412" filterUnits="userSpaceOnUse" color-interpolation-filters="sRGB">
<feFlood flood-opacity="0" result="BackgroundImageFix"/>
<feGaussianBlur in="BackgroundImageFix" stdDeviation="1.57388"/>
<feComposite in2="SourceAlpha" operator="in" result="effect1_backgroundBlur_1408_6421"/>
<feBlend mode="normal" in="SourceGraphic" in2="effect1_backgroundBlur_1408_6421" result="shape"/>
</filter>
<filter id="filter3_bd_1408_6421" x="11.6735" y="3.14339" width="8.88438" height="9.1054" filterUnits="userSpaceOnUse" color-interpolation-filters="sRGB">
<feFlood flood-opacity="0" result="BackgroundImageFix"/>
<feGaussianBlur in="BackgroundImageFix" stdDeviation="1.57388"/>
<feComposite in2="SourceAlpha" operator="in" result="effect1_backgroundBlur_1408_6421"/>
<feColorMatrix in="SourceAlpha" type="matrix" values="0 0 0 0 0 0 0 0 0 0 0 0 0 0 0 0 0 0 127 0" result="hardAlpha"/>
<feOffset dy="0.839401"/>
<feGaussianBlur stdDeviation="0.419701"/>
<feComposite in2="hardAlpha" operator="out"/>
<feColorMatrix type="matrix" values="0 0 0 0 0.405357 0 0 0 0 0.539286 0 0 0 0 0.994643 0 0 0 0.33 0"/>
<feBlend mode="normal" in2="effect1_backgroundBlur_1408_6421" result="effect2_dropShadow_1408_6421"/>
<feBlend mode="normal" in="SourceGraphic" in2="effect2_dropShadow_1408_6421" result="shape"/>
</filter>
<linearGradient id="paint0_linear_1408_6421" x1="-49.2657" y1="1.40531" x2="65.7165" y2="21.0328" gradientUnits="userSpaceOnUse">
<stop stop-color="#5D82FE"/>
<stop offset="1" stop-color="#90A9FE"/>
</linearGradient>
<linearGradient id="paint1_linear_1408_6421" x1="-12.9947" y1="13.6487" x2="26.3776" y2="17.0018" gradientUnits="userSpaceOnUse">
<stop stop-color="#5D82FE"/>
<stop offset="1" stop-color="#90A9FE"/>
</linearGradient>
<linearGradient id="paint2_linear_1408_6421" x1="8.17838" y1="6.66509" x2="18.9475" y2="15.9859" gradientUnits="userSpaceOnUse">
<stop stop-color="white" stop-opacity="0.25"/>
<stop offset="1" stop-color="white" stop-opacity="0"/>
</linearGradient>
<linearGradient id="paint3_linear_1408_6421" x1="14.1331" y1="19.1471" x2="15.7688" y2="21.6211" gradientUnits="userSpaceOnUse">
<stop stop-color="white" stop-opacity="0.25"/>
<stop offset="1" stop-color="white" stop-opacity="0"/>
</linearGradient>
<linearGradient id="paint4_linear_1408_6421" x1="17.3189" y1="7.01247" x2="16.5075" y2="9.48438" gradientUnits="userSpaceOnUse">
<stop stop-color="white"/>
<stop offset="1" stop-color="white" stop-opacity="0.2"/>
</linearGradient>
<linearGradient id="paint5_linear_1408_6421" x1="16.3204" y1="8.71411" x2="16.8826" y2="6.81369" gradientUnits="userSpaceOnUse">
<stop stop-color="white"/>
<stop offset="1" stop-color="white" stop-opacity="0"/>
</linearGradient>
</defs>
</svg>
