<svg width="24" height="24" viewBox="0 0 24 24" fill="none" xmlns="http://www.w3.org/2000/svg">
<path fill-rule="evenodd" clip-rule="evenodd" d="M5.00391 13.2374L5.00293 13.2364V6.18634C5.00293 4.42651 6.41513 3.00019 8.15754 3.00019H13.7501C15.5768 3.00019 17.0663 4.49747 17.0663 6.34246V6.95541L17.0673 6.95646V14.0065C17.0673 15.7663 15.6551 17.1926 13.9127 17.1926H8.32011C6.49339 17.1926 5.00391 15.6954 5.00391 13.8504V13.2374Z" fill="url(#paint0_linear_1252_4746)"/>
<g opacity="0.5" filter="url(#filter0_f_1252_4746)">
<rect x="7.28223" y="13.2043" width="7.36784" height="6.3153" rx="0.877124" transform="rotate(-90 7.28223 13.2043)" fill="#678AFE"/>
</g>
<g filter="url(#filter1_b_1252_4746)">
<path d="M10.8073 6.22388L16.0243 6.22388L19.702 10.1799V17.2299C19.702 18.9898 18.2899 20.4161 16.5474 20.4161H10.9549C9.12815 20.4161 7.63867 18.9188 7.63867 17.0738L7.63867 9.42422C7.63867 7.66439 9.05789 6.22388 10.8073 6.22388Z" fill="#90A9FE" fill-opacity="0.45"/>
<path d="M16.0886 6.16416C16.072 6.14631 16.0487 6.13616 16.0243 6.13616L10.8073 6.13616C9.0085 6.13616 7.55096 7.6169 7.55096 9.42422L7.55096 17.0738C7.55096 18.9667 9.07913 20.5038 10.9549 20.5038H16.5474C18.3391 20.5038 19.7898 19.0374 19.7898 17.2299V10.1799C19.7898 10.1577 19.7814 10.1364 19.7663 10.1202L16.0886 6.16416Z" stroke="url(#paint1_linear_1252_4746)" stroke-width="0.175425" stroke-linecap="round" stroke-linejoin="round"/>
</g>
<mask id="path-5-inside-1_1252_4746" fill="white">
<path fill-rule="evenodd" clip-rule="evenodd" d="M13.6194 11.7913H11.2447C10.9567 11.7913 10.7178 12.0325 10.7178 12.3235C10.7178 12.6144 10.9567 12.8486 11.2447 12.8486H13.6194C13.9075 12.8486 14.1464 12.6144 14.1464 12.3235C14.1464 12.0325 13.9075 11.7913 13.6194 11.7913ZM11.2447 16.3964H15.0668C15.3548 16.3964 15.5937 16.1551 15.5937 15.8642C15.5937 15.5733 15.3548 15.3391 15.0668 15.3391H11.2447C10.9567 15.3391 10.7178 15.5733 10.7178 15.8642C10.7178 16.1551 10.9567 16.3964 11.2447 16.3964Z"/>
</mask>
<path fill-rule="evenodd" clip-rule="evenodd" d="M13.6194 11.7913H11.2447C10.9567 11.7913 10.7178 12.0325 10.7178 12.3235C10.7178 12.6144 10.9567 12.8486 11.2447 12.8486H13.6194C13.9075 12.8486 14.1464 12.6144 14.1464 12.3235C14.1464 12.0325 13.9075 11.7913 13.6194 11.7913ZM11.2447 16.3964H15.0668C15.3548 16.3964 15.5937 16.1551 15.5937 15.8642C15.5937 15.5733 15.3548 15.3391 15.0668 15.3391H11.2447C10.9567 15.3391 10.7178 15.5733 10.7178 15.8642C10.7178 16.1551 10.9567 16.3964 11.2447 16.3964Z" fill="url(#paint2_linear_1252_4746)"/>
<path d="M11.2447 11.8614H13.6194V11.7211H11.2447V11.8614ZM10.7879 12.3235C10.7879 12.0706 10.9961 11.8614 11.2447 11.8614V11.7211C10.9172 11.7211 10.6476 11.9944 10.6476 12.3235H10.7879ZM11.2447 12.7784C10.9948 12.7784 10.7879 12.5751 10.7879 12.3235H10.6476C10.6476 12.6537 10.9185 12.9187 11.2447 12.9187V12.7784ZM13.6194 12.7784H11.2447V12.9187H13.6194V12.7784ZM14.0762 12.3235C14.0762 12.5751 13.8693 12.7784 13.6194 12.7784V12.9187C13.9457 12.9187 14.2166 12.6537 14.2166 12.3235H14.0762ZM13.6194 11.8614C13.8681 11.8614 14.0762 12.0706 14.0762 12.3235H14.2166C14.2166 11.9944 13.9469 11.7211 13.6194 11.7211V11.8614ZM15.0668 16.3262H11.2447V16.4666H15.0668V16.3262ZM15.5235 15.8642C15.5235 16.1171 15.3154 16.3262 15.0668 16.3262V16.4666C15.3942 16.4666 15.6639 16.1932 15.6639 15.8642H15.5235ZM15.0668 15.4093C15.3166 15.4093 15.5235 15.6126 15.5235 15.8642H15.6639C15.6639 15.5339 15.393 15.2689 15.0668 15.2689V15.4093ZM11.2447 15.4093H15.0668V15.2689H11.2447V15.4093ZM10.7879 15.8642C10.7879 15.6126 10.9948 15.4093 11.2447 15.4093V15.2689C10.9185 15.2689 10.6476 15.5339 10.6476 15.8642H10.7879ZM11.2447 16.3262C10.9961 16.3262 10.7879 16.1171 10.7879 15.8642H10.6476C10.6476 16.1932 10.9172 16.4666 11.2447 16.4666V16.3262Z" fill="url(#paint3_linear_1252_4746)" mask="url(#path-5-inside-1_1252_4746)"/>
<g filter="url(#filter2_bd_1252_4746)">
<mask id="path-7-inside-2_1252_4746" fill="white">
<path d="M16.6739 10.7466C17.1637 10.7516 17.8445 10.7537 18.422 10.7516C18.7178 10.7509 18.8681 10.3939 18.663 10.1789C17.921 9.39977 16.5939 8.00538 15.8344 7.20778C15.6243 6.98709 15.2568 7.13895 15.2568 7.44479V9.31532C15.2568 10.1002 15.8969 10.7466 16.6739 10.7466Z"/>
</mask>
<path d="M16.6739 10.7466C17.1637 10.7516 17.8445 10.7537 18.422 10.7516C18.7178 10.7509 18.8681 10.3939 18.663 10.1789C17.921 9.39977 16.5939 8.00538 15.8344 7.20778C15.6243 6.98709 15.2568 7.13895 15.2568 7.44479V9.31532C15.2568 10.1002 15.8969 10.7466 16.6739 10.7466Z" fill="url(#paint4_linear_1252_4746)"/>
<path d="M18.422 10.7516L18.4218 10.6814L18.4217 10.6814L18.422 10.7516ZM18.663 10.1789L18.6122 10.2273L18.6122 10.2274L18.663 10.1789ZM15.8344 7.20778L15.7835 7.25616L15.7835 7.25617L15.8344 7.20778ZM16.6732 10.8168C17.1633 10.8217 17.8444 10.8239 18.4222 10.8217L18.4217 10.6814C17.8445 10.6835 17.164 10.6814 16.6747 10.6764L16.6732 10.8168ZM18.4221 10.8217C18.7807 10.8209 18.9607 10.3893 18.7137 10.1305L18.6122 10.2274C18.7756 10.3986 18.6548 10.6808 18.4218 10.6814L18.4221 10.8217ZM18.7138 10.1305C17.9713 9.35085 16.6452 7.95754 15.8852 7.15939L15.7835 7.25617C16.5425 8.05322 17.8707 9.44869 18.6122 10.2273L18.7138 10.1305ZM15.8852 7.1594C15.6297 6.891 15.1867 7.07812 15.1867 7.44479H15.327C15.327 7.19977 15.6189 7.08318 15.7835 7.25616L15.8852 7.1594ZM15.1867 7.44479V9.31532H15.327V7.44479H15.1867ZM15.1867 9.31532C15.1867 10.1382 15.8575 10.8168 16.6739 10.8168V10.6764C15.9363 10.6764 15.327 10.0621 15.327 9.31532H15.1867Z" fill="url(#paint5_linear_1252_4746)" mask="url(#path-7-inside-2_1252_4746)"/>
</g>
<defs>
<filter id="filter0_f_1252_4746" x="3.5983" y="2.15251" width="13.6833" height="14.7357" filterUnits="userSpaceOnUse" color-interpolation-filters="sRGB">
<feFlood flood-opacity="0" result="BackgroundImageFix"/>
<feBlend mode="normal" in="SourceGraphic" in2="BackgroundImageFix" result="shape"/>
<feGaussianBlur stdDeviation="1.84196" result="effect1_foregroundBlur_1252_4746"/>
</filter>
<filter id="filter1_b_1252_4746" x="3.25269" y="1.83826" width="20.8354" height="22.9634" filterUnits="userSpaceOnUse" color-interpolation-filters="sRGB">
<feFlood flood-opacity="0" result="BackgroundImageFix"/>
<feGaussianBlur in="BackgroundImageFix" stdDeviation="2.1051"/>
<feComposite in2="SourceAlpha" operator="in" result="effect1_backgroundBlur_1252_4746"/>
<feBlend mode="normal" in="SourceGraphic" in2="effect1_backgroundBlur_1252_4746" result="shape"/>
</filter>
<filter id="filter2_bd_1252_4746" x="12.6255" y="4.47178" width="8.76372" height="8.91199" filterUnits="userSpaceOnUse" color-interpolation-filters="sRGB">
<feFlood flood-opacity="0" result="BackgroundImageFix"/>
<feGaussianBlur in="BackgroundImageFix" stdDeviation="1.31569"/>
<feComposite in2="SourceAlpha" operator="in" result="effect1_backgroundBlur_1252_4746"/>
<feColorMatrix in="SourceAlpha" type="matrix" values="0 0 0 0 0 0 0 0 0 0 0 0 0 0 0 0 0 0 127 0" result="hardAlpha"/>
<feOffset dx="0.877124" dy="0.877124"/>
<feGaussianBlur stdDeviation="0.877124"/>
<feColorMatrix type="matrix" values="0 0 0 0 0.577356 0 0 0 0 0.359375 0 0 0 0 0.9375 0 0 0 0.25 0"/>
<feBlend mode="normal" in2="effect1_backgroundBlur_1252_4746" result="effect2_dropShadow_1252_4746"/>
<feBlend mode="normal" in="SourceGraphic" in2="effect2_dropShadow_1252_4746" result="shape"/>
</filter>
<linearGradient id="paint0_linear_1252_4746" x1="-57.9119" y1="17.1926" x2="80.2731" y2="6.91587" gradientUnits="userSpaceOnUse">
<stop stop-color="#5D82FE"/>
<stop offset="1" stop-color="#90A9FE"/>
</linearGradient>
<linearGradient id="paint1_linear_1252_4746" x1="9.55896" y1="7.87729" x2="18.8078" y2="17.614" gradientUnits="userSpaceOnUse">
<stop stop-color="white" stop-opacity="0.25"/>
<stop offset="1" stop-color="white" stop-opacity="0"/>
</linearGradient>
<linearGradient id="paint2_linear_1252_4746" x1="15.248" y1="12.6229" x2="9.81737" y2="12.8103" gradientUnits="userSpaceOnUse">
<stop stop-color="white"/>
<stop offset="1" stop-color="white" stop-opacity="0.2"/>
</linearGradient>
<linearGradient id="paint3_linear_1252_4746" x1="11.4939" y1="12.3278" x2="14.3919" y2="16.128" gradientUnits="userSpaceOnUse">
<stop stop-color="white" stop-opacity="0.25"/>
<stop offset="1" stop-color="white" stop-opacity="0"/>
</linearGradient>
<linearGradient id="paint4_linear_1252_4746" x1="18.5094" y1="7.76213" x2="14.6096" y2="7.88411" gradientUnits="userSpaceOnUse">
<stop stop-color="white"/>
<stop offset="1" stop-color="white" stop-opacity="0.2"/>
</linearGradient>
<linearGradient id="paint5_linear_1252_4746" x1="15.8141" y1="7.52829" x2="18.1605" y2="10.3161" gradientUnits="userSpaceOnUse">
<stop stop-color="white" stop-opacity="0.25"/>
<stop offset="1" stop-color="white" stop-opacity="0"/>
</linearGradient>
</defs>
</svg>
