<svg width="25" height="24" viewBox="0 0 25 24" fill="none" xmlns="http://www.w3.org/2000/svg">
<rect x="19.7344" y="3.74995" width="13.2882" height="14.3956" rx="1.77176" transform="rotate(90 19.7344 3.74995)" fill="url(#paint0_linear_1252_4712)"/>
<g filter="url(#filter0_bi_1252_4712)">
<rect x="21.9492" y="5.96485" width="13.2882" height="18.825" rx="1.77176" transform="rotate(90 21.9492 5.96485)" fill="#90A9FE" fill-opacity="0.45"/>
</g>
<path d="M11.8425 9.65612H10.4363V11.0623C10.4363 11.8357 9.80358 12.4684 9.03019 12.4684C9.80358 12.4684 10.4363 13.1012 10.4363 13.8746V15.2808H11.8425V16.6869H10.4363C9.66296 16.6869 9.03019 16.0542 9.03019 15.2808V14.5777C9.03019 13.8043 8.39741 13.1715 7.62402 13.1715V11.7654C8.39741 11.7654 9.03019 11.1326 9.03019 10.3592V9.65612C9.03019 8.88273 9.66296 8.24995 10.4363 8.24995H11.8425V9.65612ZM17.4672 13.1715C16.6938 13.1715 16.061 13.8043 16.061 14.5777V15.2808C16.061 16.0542 15.4282 16.6869 14.6548 16.6869H13.2487V15.2808H14.6548V13.8746C14.6548 13.1012 15.2876 12.4684 16.061 12.4684C15.2876 12.4684 14.6548 11.8357 14.6548 11.0623V9.65612H13.2487V8.24995H14.6548C15.4282 8.24995 16.061 8.88273 16.061 9.65612V10.3592C16.061 11.1326 16.6938 11.7654 17.4672 11.7654V13.1715Z" fill="white"/>
<defs>
<filter id="filter0_bi_1252_4712" x="1.35226" y="4.19308" width="22.3687" height="16.8318" filterUnits="userSpaceOnUse" color-interpolation-filters="sRGB">
<feFlood flood-opacity="0" result="BackgroundImageFix"/>
<feGaussianBlur in="BackgroundImageFix" stdDeviation="0.885882"/>
<feComposite in2="SourceAlpha" operator="in" result="effect1_backgroundBlur_1252_4712"/>
<feBlend mode="normal" in="SourceGraphic" in2="effect1_backgroundBlur_1252_4712" result="shape"/>
<feColorMatrix in="SourceAlpha" type="matrix" values="0 0 0 0 0 0 0 0 0 0 0 0 0 0 0 0 0 0 127 0" result="hardAlpha"/>
<feOffset dx="0.0885882" dy="0.0442941"/>
<feGaussianBlur stdDeviation="0.221471"/>
<feComposite in2="hardAlpha" operator="arithmetic" k2="-1" k3="1"/>
<feColorMatrix type="matrix" values="0 0 0 0 1 0 0 0 0 1 0 0 0 0 1 0 0 0 0.6 0"/>
<feBlend mode="normal" in2="shape" result="effect2_innerShadow_1252_4712"/>
</filter>
<linearGradient id="paint0_linear_1252_4712" x1="-49.5641" y1="18.1455" x2="102.492" y2="5.86567" gradientUnits="userSpaceOnUse">
<stop stop-color="#5D82FE"/>
<stop offset="1" stop-color="#90A9FE"/>
</linearGradient>
</defs>
</svg>
