<svg width="24" height="24" viewBox="0 0 24 24" fill="none" xmlns="http://www.w3.org/2000/svg">
<path fill-rule="evenodd" clip-rule="evenodd" d="M11.781 12.246C12.3658 10.0635 14.5902 8.76331 16.7494 9.34187C17.7863 9.6197 18.6692 10.3025 19.2038 11.24C19.7384 12.1776 19.881 13.2931 19.6002 14.3411C19.0154 16.5235 16.791 17.8237 14.6318 17.2452C12.4725 16.6666 11.1962 14.4284 11.781 12.246ZM18.6837 17.507L19.5962 18.7589L19.6165 18.7643C19.7882 19.0656 19.6848 19.4516 19.3854 19.6266C19.086 19.8016 18.7041 19.6992 18.5323 19.398L17.8628 18.0316C17.7961 17.9151 17.7782 17.7764 17.8132 17.6461C17.8481 17.5157 17.9329 17.4045 18.0489 17.3369C18.272 17.2092 18.5544 17.2848 18.6837 17.507Z" fill="url(#paint0_linear_1252_4799)"/>
<g filter="url(#filter0_f_1252_4799)">
<path d="M16.2668 11.1408C15.0904 10.8256 13.8784 11.534 13.5598 12.7231C13.2412 13.9122 13.9366 15.1316 15.113 15.4469C16.2895 15.7621 17.5014 15.0537 17.82 13.8646C17.9731 13.2936 17.8954 12.6858 17.6041 12.175C17.3128 11.6642 16.8318 11.2922 16.2668 11.1408Z" fill="#90A9FE" fill-opacity="0.45"/>
</g>
<g filter="url(#filter1_b_1252_4799)">
<g filter="url(#filter2_b_1252_4799)">
<mask id="path-3-outside-1_1252_4799" maskUnits="userSpaceOnUse" x="0.847997" y="1.77543" width="19.5959" height="19.5959" fill="black">
<rect fill="white" x="0.847997" y="1.77543" width="19.5959" height="19.5959"/>
<path fill-rule="evenodd" clip-rule="evenodd" d="M17.1751 8.89456C16.3028 5.63918 12.9848 3.69976 9.76406 4.56276C8.21741 4.97718 6.90051 5.99564 6.10306 7.3941C5.30561 8.79255 5.09293 10.4564 5.51181 12.0197C6.38409 15.2751 9.70213 17.2145 12.9229 16.3515C16.1436 15.4885 18.0474 12.1499 17.1751 8.89456ZM6.88004 16.7424L5.51887 18.6098L5.48872 18.6178C5.2325 19.0671 5.3868 19.643 5.83335 19.904C6.27989 20.165 6.8496 20.0123 7.10581 19.563L8.10452 17.5249C8.204 17.3512 8.23064 17.1442 8.17854 16.9498C8.12644 16.7553 7.99989 16.5894 7.82686 16.4887C7.49414 16.2981 7.07289 16.411 6.88004 16.7424Z"/>
</mask>
<path fill-rule="evenodd" clip-rule="evenodd" d="M17.1751 8.89456C16.3028 5.63918 12.9848 3.69976 9.76406 4.56276C8.21741 4.97718 6.90051 5.99564 6.10306 7.3941C5.30561 8.79255 5.09293 10.4564 5.51181 12.0197C6.38409 15.2751 9.70213 17.2145 12.9229 16.3515C16.1436 15.4885 18.0474 12.1499 17.1751 8.89456ZM6.88004 16.7424L5.51887 18.6098L5.48872 18.6178C5.2325 19.0671 5.3868 19.643 5.83335 19.904C6.27989 20.165 6.8496 20.0123 7.10581 19.563L8.10452 17.5249C8.204 17.3512 8.23064 17.1442 8.17854 16.9498C8.12644 16.7553 7.99989 16.5894 7.82686 16.4887C7.49414 16.2981 7.07289 16.411 6.88004 16.7424Z" fill="#90A9FE" fill-opacity="0.45"/>
<path d="M6.10306 7.3941L6.25545 7.48099L6.10306 7.3941ZM5.51887 18.6098L5.66063 18.7131C5.63701 18.7455 5.60301 18.7688 5.56428 18.7792L5.51887 18.6098ZM6.88004 16.7424L7.03167 16.8306C7.02864 16.8358 7.02535 16.8409 7.0218 16.8457L6.88004 16.7424ZM5.48872 18.6178L5.33633 18.5309C5.35954 18.4902 5.39806 18.4605 5.44332 18.4484L5.48872 18.6178ZM5.83335 19.904L5.92187 19.7525L5.83335 19.904ZM7.10581 19.563L7.26365 19.6404L7.2582 19.6499L7.10581 19.563ZM8.10452 17.5249L7.94666 17.4476L7.95228 17.4378L8.10452 17.5249ZM7.82686 16.4887L7.91406 16.3365L7.91512 16.3371L7.82686 16.4887ZM9.71866 4.39331C13.0347 3.50478 16.4477 5.5019 17.3445 8.84915L17.0057 8.93996C16.158 5.77645 12.9349 3.89474 9.80946 4.7322L9.71866 4.39331ZM5.95067 7.3072C6.77119 5.86829 8.12648 4.81993 9.71866 4.39331L9.80946 4.7322C8.30835 5.13443 7.02983 6.12299 6.25545 7.48099L5.95067 7.3072ZM5.34237 12.0651C4.9116 10.4575 5.1302 8.74602 5.95067 7.3072L6.25545 7.48099C5.48102 8.83907 5.27427 10.4554 5.68126 11.9743L5.34237 12.0651ZM12.9683 16.521C9.65224 17.4095 6.23926 15.4124 5.34237 12.0651L5.68126 11.9743C6.52892 15.1378 9.75201 17.0195 12.8774 16.1821L12.9683 16.521ZM17.3445 8.84915C18.2414 12.1964 16.2843 15.6324 12.9683 16.521L12.8774 16.1821C16.0029 15.3446 17.8533 12.1035 17.0057 8.93996L17.3445 8.84915ZM5.37711 18.5064L6.73828 16.6391L7.0218 16.8457L5.66063 18.7131L5.37711 18.5064ZM5.44332 18.4484L5.47347 18.4403L5.56428 18.7792L5.53412 18.7873L5.44332 18.4484ZM5.74482 20.0554C5.21526 19.7459 5.03248 19.0638 5.33633 18.5309L5.64111 18.7047C5.43252 19.0705 5.55833 19.54 5.92187 19.7525L5.74482 20.0554ZM7.2582 19.6499C6.95363 20.184 6.27565 20.3657 5.74482 20.0554L5.92187 19.7525C6.28414 19.9643 6.74556 19.8407 6.95342 19.4761L7.2582 19.6499ZM8.26205 17.6021L7.26334 19.6402L6.94828 19.4858L7.94699 17.4477L8.26205 17.6021ZM8.34798 16.9044C8.412 17.1433 8.37939 17.3979 8.25676 17.6121L7.95228 17.4378C8.02862 17.3044 8.04928 17.1452 8.00909 16.9952L8.34798 16.9044ZM7.91512 16.3371C8.12841 16.4613 8.28397 16.6655 8.34798 16.9044L8.00909 16.9952C7.9689 16.8452 7.87137 16.7176 7.7386 16.6403L7.91512 16.3371ZM6.72842 16.6542C6.96976 16.2394 7.49767 16.098 7.91405 16.3365L7.73966 16.6409C7.49061 16.4983 7.17602 16.5825 7.03167 16.8306L6.72842 16.6542Z" fill="url(#paint1_linear_1252_4799)" mask="url(#path-3-outside-1_1252_4799)"/>
</g>
</g>
<defs>
<filter id="filter0_f_1252_4799" x="10.851" y="8.4345" width="9.67681" height="9.71865" filterUnits="userSpaceOnUse" color-interpolation-filters="sRGB">
<feFlood flood-opacity="0" result="BackgroundImageFix"/>
<feBlend mode="normal" in="SourceGraphic" in2="BackgroundImageFix" result="shape"/>
<feGaussianBlur stdDeviation="1.31569" result="effect1_foregroundBlur_1252_4799"/>
</filter>
<filter id="filter1_b_1252_4799" x="0.91578" y="-0.0280561" width="20.8569" height="24.4452" filterUnits="userSpaceOnUse" color-interpolation-filters="sRGB">
<feFlood flood-opacity="0" result="BackgroundImageFix"/>
<feGaussianBlur in="BackgroundImageFix" stdDeviation="2.1051"/>
<feComposite in2="SourceAlpha" operator="in" result="effect1_backgroundBlur_1252_4799"/>
<feBlend mode="normal" in="SourceGraphic" in2="effect1_backgroundBlur_1252_4799" result="shape"/>
</filter>
<filter id="filter2_b_1252_4799" x="0.91578" y="-0.0280561" width="20.8569" height="24.4452" filterUnits="userSpaceOnUse" color-interpolation-filters="sRGB">
<feFlood flood-opacity="0" result="BackgroundImageFix"/>
<feGaussianBlur in="BackgroundImageFix" stdDeviation="2.1051"/>
<feComposite in2="SourceAlpha" operator="in" result="effect1_backgroundBlur_1252_4799"/>
<feBlend mode="normal" in="SourceGraphic" in2="effect1_backgroundBlur_1252_4799" result="shape"/>
</filter>
<linearGradient id="paint0_linear_1252_4799" x1="-37.1472" y1="4.67011" x2="69.5018" y2="23.4736" gradientUnits="userSpaceOnUse">
<stop stop-color="#5D82FE"/>
<stop offset="1" stop-color="#90A9FE"/>
</linearGradient>
<linearGradient id="paint1_linear_1252_4799" x1="13.8556" y1="5.16426" x2="5.42145" y2="19.3745" gradientUnits="userSpaceOnUse">
<stop stop-color="white" stop-opacity="0.25"/>
<stop offset="1" stop-color="white" stop-opacity="0"/>
</linearGradient>
</defs>
</svg>
