<svg width="24" height="24" viewBox="0 0 24 24" fill="none" xmlns="http://www.w3.org/2000/svg">
<path d="M9.1984 9.59232C8.55635 9.03619 8.23533 8.75813 8.04636 8.43886C7.72444 7.89498 7.64266 7.24189 7.82053 6.63542C7.92495 6.27941 8.1675 5.93078 8.65259 5.23351C9.13768 4.53623 9.38023 4.18759 9.67771 3.96591C10.1845 3.58826 10.8253 3.43785 11.4472 3.55057C11.8122 3.61674 12.1845 3.82105 12.9292 4.22967L15.0468 5.39159C16.1811 6.01404 16.7483 6.32527 17.0547 6.76801C17.3827 7.24206 17.519 7.82274 17.4362 8.39322C17.3588 8.92603 16.9893 9.45712 16.2504 10.5193C15.5114 11.5815 15.1419 12.1126 14.6693 12.3704C14.1632 12.6464 13.5713 12.7205 13.0128 12.5778C12.4912 12.4445 12.0022 12.0209 11.0241 11.1737L9.1984 9.59232Z" fill="url(#paint0_linear_1252_4747)"/>
<g opacity="0.5" filter="url(#filter0_f_1252_4747)">
<path d="M10.2752 8.908C9.52475 8.25797 9.38557 7.14654 9.95256 6.33155C10.5196 5.51656 11.61 5.26059 12.4804 5.73819L13.7321 6.42499C14.8225 7.02334 15.1539 8.43487 14.4435 9.45592C13.7332 10.477 12.2945 10.6571 11.3543 9.84275L10.2752 8.908Z" fill="#678AFE"/>
</g>
<g filter="url(#filter1_b_1252_4747)">
<mask id="path-3-outside-1_1252_4747" maskUnits="userSpaceOnUse" x="3.99902" y="5.73656" width="16" height="15" fill="black">
<rect fill="white" x="3.99902" y="5.73656" width="16" height="15"/>
<path d="M18.7881 14.241C18.2001 14.241 17.7216 13.7669 17.7216 13.1841C17.7216 12.6007 18.2001 12.1266 18.7881 12.1266C18.9307 12.1266 19.0675 12.0705 19.1678 11.9711C19.2688 11.8711 19.3254 11.7355 19.3254 11.5942L19.3247 9.67643C19.3247 8.05531 17.993 6.73656 16.357 6.73656H7.96745C6.33138 6.73656 4.99974 8.05531 4.99974 9.67643L4.99902 11.656C4.99902 11.7972 5.05561 11.9328 5.15661 12.0329C5.2569 12.1322 5.39371 12.1883 5.53626 12.1883C6.14442 12.1883 6.60286 12.6163 6.60286 13.1841C6.60286 13.7669 6.12436 14.241 5.53626 14.241C5.23971 14.241 4.99902 14.4795 4.99902 14.7733V16.6897C4.99902 18.3108 6.32994 19.6303 7.96673 19.6303H16.3577C17.9945 19.6303 19.3254 18.3108 19.3254 16.6897V14.7733C19.3254 14.4795 19.0847 14.241 18.7881 14.241Z"/>
</mask>
<path d="M18.7881 14.241C18.2001 14.241 17.7216 13.7669 17.7216 13.1841C17.7216 12.6007 18.2001 12.1266 18.7881 12.1266C18.9307 12.1266 19.0675 12.0705 19.1678 11.9711C19.2688 11.8711 19.3254 11.7355 19.3254 11.5942L19.3247 9.67643C19.3247 8.05531 17.993 6.73656 16.357 6.73656H7.96745C6.33138 6.73656 4.99974 8.05531 4.99974 9.67643L4.99902 11.656C4.99902 11.7972 5.05561 11.9328 5.15661 12.0329C5.2569 12.1322 5.39371 12.1883 5.53626 12.1883C6.14442 12.1883 6.60286 12.6163 6.60286 13.1841C6.60286 13.7669 6.12436 14.241 5.53626 14.241C5.23971 14.241 4.99902 14.4795 4.99902 14.7733V16.6897C4.99902 18.3108 6.32994 19.6303 7.96673 19.6303H16.3577C17.9945 19.6303 19.3254 18.3108 19.3254 16.6897V14.7733C19.3254 14.4795 19.0847 14.241 18.7881 14.241Z" fill="#90A9FE" fill-opacity="0.45"/>
<path d="M18.7881 14.4164C18.885 14.4164 18.9636 14.3379 18.9636 14.241C18.9636 14.1441 18.885 14.0656 18.7881 14.0656V14.4164ZM19.1678 11.9711L19.0443 11.8465L19.1678 11.9711ZM19.3254 11.5942H19.5008V11.5942L19.3254 11.5942ZM19.3247 9.67643H19.1492L19.1492 9.6765L19.3247 9.67643ZM4.99974 9.67643L5.17516 9.6765V9.67643H4.99974ZM4.99902 11.656L4.8236 11.6559V11.656H4.99902ZM5.15661 12.0329L5.28009 11.9083L5.15661 12.0329ZM18.7881 14.0656C18.6913 14.0656 18.6127 14.1441 18.6127 14.241C18.6127 14.3379 18.6913 14.4164 18.7881 14.4164V14.0656ZM18.7881 14.0656C18.2954 14.0656 17.897 13.6685 17.897 13.1841H17.5461C17.5461 13.8653 18.1047 14.4164 18.7881 14.4164V14.0656ZM17.897 13.1841C17.897 12.699 18.2955 12.302 18.7881 12.302V11.9511C18.1046 11.9511 17.5461 12.5024 17.5461 13.1841H17.897ZM18.7881 12.302C18.9765 12.302 19.1578 12.228 19.2913 12.0957L19.0443 11.8465C18.9772 11.913 18.8849 11.9511 18.7881 11.9511V12.302ZM19.2913 12.0957C19.4254 11.9629 19.5008 11.7825 19.5008 11.5942H19.15C19.15 11.6885 19.1122 11.7792 19.0443 11.8465L19.2913 12.0957ZM19.5008 11.5942L19.5001 9.67637L19.1492 9.6765L19.15 11.5943L19.5008 11.5942ZM19.5001 9.67643C19.5001 7.95686 18.0883 6.56113 16.357 6.56113V6.91198C17.8977 6.91198 19.1492 8.15377 19.1492 9.67643H19.5001ZM16.357 6.56113H7.96745V6.91198H16.357V6.56113ZM7.96745 6.56113C6.23607 6.56113 4.82431 7.95686 4.82431 9.67643H5.17516C5.17516 8.15377 6.42668 6.91198 7.96745 6.91198V6.56113ZM4.82431 9.67637L4.8236 11.6559L5.17445 11.6561L5.17516 9.6765L4.82431 9.67637ZM4.8236 11.656C4.8236 11.8443 4.89905 12.0246 5.03314 12.1575L5.28009 11.9083C5.21217 11.841 5.17445 11.7502 5.17445 11.656H4.8236ZM5.03314 12.1575C5.16658 12.2897 5.3479 12.3637 5.53626 12.3637V12.0129C5.43953 12.0129 5.34722 11.9748 5.28009 11.9083L5.03314 12.1575ZM5.53626 12.3637C6.05908 12.3637 6.42744 12.7244 6.42744 13.1841H6.77828C6.77828 12.5083 6.22976 12.0129 5.53626 12.0129V12.3637ZM6.42744 13.1841C6.42744 13.6685 6.029 14.0656 5.53626 14.0656V14.4164C6.21972 14.4164 6.77828 13.8653 6.77828 13.1841H6.42744ZM5.53626 14.0656C5.14434 14.0656 4.8236 14.3811 4.8236 14.7733H5.17445C5.17445 14.5779 5.33507 14.4164 5.53626 14.4164V14.0656ZM4.8236 14.7733V16.6897H5.17445V14.7733H4.8236ZM4.8236 16.6897C4.8236 18.4092 6.23455 19.8057 7.96673 19.8057V19.4549C6.42533 19.4549 5.17445 18.2124 5.17445 16.6897H4.8236ZM7.96673 19.8057H16.3577V19.4549H7.96673V19.8057ZM16.3577 19.8057C18.0899 19.8057 19.5008 18.4092 19.5008 16.6897H19.15C19.15 18.2124 17.8991 19.4549 16.3577 19.4549V19.8057ZM19.5008 16.6897V14.7733H19.15V16.6897H19.5008ZM19.5008 14.7733C19.5008 14.3811 19.1801 14.0656 18.7881 14.0656V14.4164C18.9893 14.4164 19.15 14.5779 19.15 14.7733H19.5008Z" fill="url(#paint1_linear_1252_4747)" mask="url(#path-3-outside-1_1252_4747)"/>
</g>
<path d="M14.6189 12.8887L13.7743 13.7111L13.9742 14.8736C14.0086 15.0749 13.9276 15.2734 13.7622 15.3923C13.5981 15.5126 13.3839 15.5276 13.2034 15.4317L12.1612 14.8837L11.1168 15.4324C11.0394 15.4732 10.9549 15.4947 10.8711 15.4947C10.7615 15.4947 10.6533 15.4603 10.5602 15.393C10.3955 15.2734 10.3145 15.0749 10.3489 14.8736L10.548 13.7111L9.70349 12.8887C9.55737 12.7469 9.50651 12.5384 9.56954 12.3443C9.6333 12.1509 9.79805 12.0134 9.99933 11.9847L11.1641 11.815L11.6863 10.757C11.7772 10.575 11.9592 10.4618 12.1612 10.4618H12.1626C12.3653 10.4626 12.5473 10.5757 12.6368 10.7577L13.159 11.815L14.3259 11.9855C14.525 12.0134 14.6898 12.1509 14.7528 12.3443C14.8166 12.5384 14.7657 12.7469 14.6189 12.8887Z" fill="url(#paint2_linear_1252_4747)"/>
<path d="M9.56954 12.3443L9.5862 12.3498C9.64786 12.1628 9.80711 12.0298 10.0018 12.0021L10.0019 12.0021L11.1666 11.8323L11.1757 11.831L11.1798 11.8227L11.702 10.7648C11.702 10.7648 11.702 10.7648 11.702 10.7648C11.79 10.5887 11.9659 10.4794 12.1612 10.4794H12.1626C12.3587 10.4801 12.5345 10.5895 12.6211 10.7654L12.6211 10.7655L13.1433 11.8227L13.1474 11.831L13.1565 11.8323L14.3234 12.0028L14.3235 12.0028C14.5159 12.0298 14.6752 12.1627 14.7361 12.3498L14.7362 12.3498C14.7978 12.5376 14.7487 12.739 14.6067 12.8761L14.6066 12.8762L13.7621 13.6985L13.7555 13.7049L13.757 13.714L13.9569 14.8766C13.9902 15.0713 13.9119 15.263 13.7519 15.378L13.7518 15.3781C13.5932 15.4944 13.3863 15.509 13.2117 15.4162L13.2116 15.4161L12.1693 14.8681L12.1612 14.8639L12.153 14.8681L11.1086 15.4168L11.1086 15.4169C11.0336 15.4564 10.9519 15.4772 10.8711 15.4772C10.7652 15.4772 10.6607 15.444 10.5705 15.3788C10.4112 15.2631 10.3329 15.0713 10.3662 14.8766L10.5653 13.714L10.5669 13.7049L10.5603 13.6985L9.71573 12.8762L9.71571 12.8761C9.57443 12.739 9.52524 12.5376 9.58623 12.3497L9.56954 12.3443ZM9.56954 12.3443C9.50651 12.5384 9.55737 12.7469 9.70349 12.8887L12.1612 10.4618C11.9592 10.4618 11.7772 10.575 11.6863 10.757L11.1641 11.815L9.99933 11.9847C9.79805 12.0134 9.6333 12.1509 9.56954 12.3443Z" stroke="url(#paint3_linear_1252_4747)" stroke-opacity="0.5" stroke-width="0.035085"/>
<defs>
<filter id="filter0_f_1252_4747" x="6.09599" y="1.99008" width="12.2318" height="11.8724" filterUnits="userSpaceOnUse" color-interpolation-filters="sRGB">
<feFlood flood-opacity="0" result="BackgroundImageFix"/>
<feBlend mode="normal" in="SourceGraphic" in2="BackgroundImageFix" result="shape"/>
<feGaussianBlur stdDeviation="1.75425" result="effect1_foregroundBlur_1252_4747"/>
</filter>
<filter id="filter1_b_1252_4747" x="0.613046" y="2.35094" width="23.0981" height="21.665" filterUnits="userSpaceOnUse" color-interpolation-filters="sRGB">
<feFlood flood-opacity="0" result="BackgroundImageFix"/>
<feGaussianBlur in="BackgroundImageFix" stdDeviation="2.1051"/>
<feComposite in2="SourceAlpha" operator="in" result="effect1_backgroundBlur_1252_4747"/>
<feBlend mode="normal" in="SourceGraphic" in2="effect1_backgroundBlur_1252_4747" result="shape"/>
</filter>
<linearGradient id="paint0_linear_1252_4747" x1="-9.4588" y1="47.4736" x2="36.5528" y2="-30.4267" gradientUnits="userSpaceOnUse">
<stop stop-color="#5D82FE"/>
<stop offset="1" stop-color="#90A9FE"/>
</linearGradient>
<linearGradient id="paint1_linear_1252_4747" x1="7.27955" y1="8.23869" x2="17.7414" y2="20.08" gradientUnits="userSpaceOnUse">
<stop stop-color="white" stop-opacity="0.25"/>
<stop offset="1" stop-color="white" stop-opacity="0"/>
</linearGradient>
<linearGradient id="paint2_linear_1252_4747" x1="14.4085" y1="11.3707" x2="8.57569" y2="11.5686" gradientUnits="userSpaceOnUse">
<stop stop-color="white"/>
<stop offset="1" stop-color="white" stop-opacity="0.2"/>
</linearGradient>
<linearGradient id="paint3_linear_1252_4747" x1="10.1071" y1="12.1501" x2="14.5539" y2="12.1757" gradientUnits="userSpaceOnUse">
<stop stop-color="white"/>
<stop offset="1" stop-color="white" stop-opacity="0"/>
</linearGradient>
</defs>
</svg>
