<svg width="24" height="24" viewBox="0 0 24 24" fill="none" xmlns="http://www.w3.org/2000/svg">
<path d="M11.7225 14.3998C11.6337 14.5828 11.6408 14.7982 11.7408 14.9754L13.1622 17.4109C13.2824 17.6174 13.2707 17.875 13.1323 18.0701C12.9994 18.2686 12.764 18.3724 12.5278 18.3385L9.7346 17.9698C9.63716 17.9561 9.53805 17.9658 9.44435 17.997L9.30074 18.0493C9.25363 18.0749 9.21067 18.1086 9.17505 18.1492L7.27582 20.2347C7.18102 20.3353 7.05713 20.4039 6.92083 20.4301C6.58549 20.4851 6.26724 20.2626 6.20372 19.9285L5.72507 17.1495C5.687 16.9478 5.55344 16.7774 5.36694 16.6923L2.77742 15.535C2.56079 15.4381 2.42017 15.2252 2.41662 14.9882C2.41114 14.7525 2.53655 14.5333 2.74285 14.419L5.23726 13.0771C5.43004 12.9834 5.56154 12.7974 5.58596 12.5844L5.87925 9.78207C5.88749 9.71904 5.90522 9.65734 5.93308 9.60037L5.96725 9.54589C5.98212 9.50926 6.00243 9.47604 6.02746 9.44591L6.0775 9.40366L6.15406 9.33373L6.37715 9.25241C6.58393 9.20046 6.80279 9.25576 6.95936 9.40039L8.9986 11.3405C9.14654 11.4829 9.35519 11.5431 9.55605 11.5029L12.329 10.9251C12.5631 10.8757 12.8051 10.9616 12.9561 11.1467C13.1029 11.3339 13.128 11.5889 13.0206 11.8015L11.7225 14.3998Z" fill="url(#paint0_linear_1252_4742)"/>
<g opacity="0.5" filter="url(#filter0_f_1252_4742)">
<path d="M9.28102 12.9904C8.06825 12.9904 7.08398 13.9749 7.08398 15.1875C7.08398 16.4004 8.06825 17.3845 9.28102 17.3845C10.496 17.3845 11.478 16.4004 11.478 15.1875C11.478 13.9749 10.496 12.9904 9.28102 12.9904Z" fill="#7795FE"/>
</g>
<g filter="url(#filter1_bi_1252_4742)">
<path d="M18.1882 13.9906C17.9644 14.1198 17.8184 14.3512 17.7972 14.6088L17.556 18.182C17.5353 18.4848 17.3393 18.7472 17.0548 18.8537C16.7736 18.9677 16.4522 18.9091 16.228 18.7051L13.5543 16.3271C13.4617 16.2433 13.3506 16.1828 13.2299 16.1488L13.0416 16.1015C12.9738 16.0948 12.9047 16.0996 12.8383 16.1169L9.35551 16.956C9.18416 16.9942 9.00506 16.978 8.84305 16.9085C8.45133 16.7273 8.27537 16.2666 8.44663 15.8701L9.9238 12.6075C10.0275 12.3684 10.0085 12.094 9.87309 11.8717L7.97544 8.80976C7.81678 8.55349 7.82064 8.22948 7.98582 7.97777C8.14804 7.72605 8.43609 7.58498 8.73435 7.61192L12.313 7.97863C12.5824 8.01752 12.8532 7.91569 13.0306 7.70916L15.3359 4.97217C15.3895 4.91177 15.4521 4.85956 15.522 4.81951L15.5967 4.78659C15.6384 4.75867 15.6835 4.73822 15.7313 4.72438L15.814 4.71562L15.9443 4.69666L16.2368 4.77016C16.4912 4.86289 16.6819 5.07698 16.7434 5.34061L17.5047 8.83338C17.5587 9.08849 17.7352 9.30048 17.975 9.40136L21.3019 10.7699C21.5832 10.8849 21.7764 11.1476 21.8031 11.4498C21.8241 11.7512 21.6688 12.0372 21.4044 12.1842L18.1882 13.9906Z" fill="#90A9FE" fill-opacity="0.45"/>
<path d="M17.6435 18.1879L17.6435 18.188C17.6205 18.5248 17.4027 18.8167 17.0866 18.9355M17.6435 18.1879L17.0856 18.9359C17.0859 18.9358 17.0863 18.9356 17.0866 18.9355M17.6435 18.1879L17.8846 14.616C17.8847 14.6157 17.8847 14.6155 17.8847 14.6153C17.9037 14.3867 18.0333 14.1814 18.2316 14.0668C18.2318 14.0667 18.2319 14.0666 18.232 14.0666L21.447 12.2608C21.4471 12.2608 21.4472 12.2607 21.4472 12.2607C21.7412 12.0972 21.914 11.7791 21.8906 11.4437L21.8906 11.4437L21.8905 11.442C21.8609 11.1073 21.6468 10.8161 21.3351 10.6887C21.3351 10.6887 21.3351 10.6887 21.3351 10.6887L18.009 9.32051C18.0089 9.32047 18.0088 9.32043 18.0087 9.32039C17.7953 9.23052 17.6385 9.04189 17.5905 8.81519L17.5904 8.8147L16.8291 5.32193L16.8291 5.32193L16.8288 5.32067C16.7605 5.02804 16.5489 4.79056 16.2668 4.68775L16.267 4.68731L16.2581 4.68509L15.9657 4.6116C15.9546 4.6088 15.943 4.60822 15.9317 4.60987L15.803 4.62857L15.722 4.63716C15.7169 4.6377 15.7118 4.63869 15.7069 4.64013C15.6534 4.65561 15.6024 4.67832 15.5546 4.70928L15.4866 4.73924L15.4864 4.73879L15.4784 4.7434C15.3996 4.78855 15.3297 4.84702 15.2703 4.91396L15.2703 4.91394L15.2688 4.91566L12.9641 7.652C12.964 7.65211 12.9639 7.65221 12.9638 7.65232C12.8059 7.83593 12.565 7.92639 12.3255 7.89182L12.3255 7.89174L12.3219 7.89137L8.74329 7.52466L8.74329 7.52466L8.74224 7.52456C8.41138 7.49468 8.09194 7.65119 7.91209 7.93026L7.98582 7.97777L7.91249 7.92965C7.72853 8.20998 7.72431 8.57077 7.90086 8.85593L7.90088 8.85597L9.79817 11.9173C9.79823 11.9174 9.79829 11.9175 9.79834 11.9176C9.91866 12.1153 9.93558 12.3592 9.8436 12.572C9.84351 12.5722 9.84342 12.5724 9.84333 12.5726L8.36672 15.834L8.36671 15.834L8.36611 15.8354C8.176 16.2754 8.3713 16.787 8.80624 16.9881L8.80622 16.9881L8.80847 16.9891C8.98752 17.0659 9.18541 17.0838 9.37459 17.0416L9.37459 17.0416L9.37605 17.0413L12.8588 16.2022L12.8588 16.2022L12.8604 16.2018C12.9143 16.1877 12.9708 16.1834 13.0268 16.1882L13.2072 16.2336C13.3149 16.2641 13.4135 16.318 13.4955 16.3922L13.4961 16.3927L16.169 18.77C16.1691 18.7701 16.1692 18.7702 16.1694 18.7703M17.6435 18.1879L16.1694 18.7703M17.0866 18.9355C16.7743 19.0616 16.418 18.9963 16.1694 18.7703M17.0866 18.9355C17.087 18.9353 17.0874 18.9352 17.0877 18.935L16.1694 18.7703" stroke="url(#paint1_linear_1252_4742)" stroke-width="0.175425" stroke-linecap="round" stroke-linejoin="round"/>
</g>
<defs>
<filter id="filter0_f_1252_4742" x="3.57549" y="9.48194" width="11.4115" height="11.4111" filterUnits="userSpaceOnUse" color-interpolation-filters="sRGB">
<feFlood flood-opacity="0" result="BackgroundImageFix"/>
<feBlend mode="normal" in="SourceGraphic" in2="BackgroundImageFix" result="shape"/>
<feGaussianBlur stdDeviation="1.75425" result="effect1_foregroundBlur_1252_4742"/>
</filter>
<filter id="filter1_bi_1252_4742" x="6.08359" y="2.92124" width="17.4969" height="17.7654" filterUnits="userSpaceOnUse" color-interpolation-filters="sRGB">
<feFlood flood-opacity="0" result="BackgroundImageFix"/>
<feGaussianBlur in="BackgroundImageFix" stdDeviation="0.8"/>
<feComposite in2="SourceAlpha" operator="in" result="effect1_backgroundBlur_1252_4742"/>
<feBlend mode="normal" in="SourceGraphic" in2="effect1_backgroundBlur_1252_4742" result="shape"/>
<feColorMatrix in="SourceAlpha" type="matrix" values="0 0 0 0 0 0 0 0 0 0 0 0 0 0 0 0 0 0 127 0" result="hardAlpha"/>
<feOffset dx="0.08" dy="0.04"/>
<feGaussianBlur stdDeviation="0.2"/>
<feComposite in2="hardAlpha" operator="arithmetic" k2="-1" k3="1"/>
<feColorMatrix type="matrix" values="0 0 0 0 1 0 0 0 0 1 0 0 0 0 1 0 0 0 0.6 0"/>
<feBlend mode="normal" in2="shape" result="effect2_innerShadow_1252_4742"/>
</filter>
<linearGradient id="paint0_linear_1252_4742" x1="-50.6035" y1="41.4276" x2="66.3878" y2="-13.844" gradientUnits="userSpaceOnUse">
<stop stop-color="#5D82FE"/>
<stop offset="1" stop-color="#90A9FE"/>
</linearGradient>
<linearGradient id="paint1_linear_1252_4742" x1="11.018" y1="5.09379" x2="16.6119" y2="18.0312" gradientUnits="userSpaceOnUse">
<stop stop-color="white" stop-opacity="0.25"/>
<stop offset="1" stop-color="white" stop-opacity="0"/>
</linearGradient>
</defs>
</svg>
