<svg width="32" height="32" viewBox="0 0 32 32" fill="none" xmlns="http://www.w3.org/2000/svg">
<path d="M25.8426 27.4013H11.5913C10.9961 27.4013 10.6981 26.6817 11.1189 26.2609L13.5954 23.7844V14.486H25.8426C26.7035 14.486 27.4013 15.1839 27.4013 16.0447V25.8425C27.4013 26.7034 26.7035 27.4013 25.8426 27.4013Z" fill="url(#paint0_linear_1252_4708)"/>
<path d="M23.2333 23.8252L21.2448 18.556C21.2425 18.5499 21.2401 18.5438 21.2376 18.5378C21.1155 18.2407 20.8283 18.0488 20.5071 18.0488C20.5068 18.0488 20.5074 18.0488 20.5071 18.0488C20.1856 18.0491 19.8992 18.2416 19.7774 18.5392C19.7753 18.5442 19.7733 18.5493 19.7714 18.5544L17.7646 23.8234C17.6333 24.1682 17.8064 24.5541 18.1511 24.6854C18.4961 24.8169 18.8819 24.6436 19.0132 24.2989L19.3491 23.4169H21.6511L21.9833 24.297C22.0843 24.5645 22.3385 24.7293 22.6084 24.7293C22.6868 24.7293 22.7665 24.7154 22.8442 24.6861C23.1894 24.5558 23.3636 24.1704 23.2333 23.8252ZM19.858 22.0808L20.5054 20.3808L21.147 22.0808H19.858Z" fill="white"/>
<g filter="url(#filter0_bi_1252_4708)">
<path d="M4.59961 19.6076V6.15786C4.59961 5.29699 5.29748 4.59912 6.15835 4.59912H18.6283C19.4892 4.59912 20.187 5.29699 20.187 6.15786V15.5994C20.187 16.4603 19.4892 17.1581 18.6283 17.1581H9.08148L5.70756 20.1103C5.27561 20.4883 4.59961 20.1815 4.59961 19.6076Z" fill="#90A9FE" fill-opacity="0.45"/>
</g>
<path d="M15.067 13.1055C14.5109 13.1055 13.9829 12.984 13.5068 12.7677C14.1955 12.0124 14.6617 11.051 14.8007 9.98805H15.067C15.4359 9.98805 15.735 9.68895 15.735 9.32001C15.735 8.95108 15.4359 8.65198 15.067 8.65198H13.0629V7.98395C13.0629 7.61502 12.7638 7.31592 12.3948 7.31592C12.0259 7.31592 11.7268 7.61502 11.7268 7.98395V8.65198H9.72272C9.35379 8.65198 9.05469 8.95108 9.05469 9.32001C9.05469 9.68895 9.35379 9.98805 9.72272 9.98805H9.98895C10.128 11.051 10.5942 12.0124 11.2829 12.7677C10.8068 12.984 10.2788 13.1055 9.72272 13.1055C9.35379 13.1055 9.05469 13.4046 9.05469 13.7736C9.05469 14.1425 9.35379 14.4416 9.72272 14.4416C10.7013 14.4416 11.6164 14.1656 12.3948 13.6876C13.1733 14.1656 14.0884 14.4416 15.067 14.4416C15.4359 14.4416 15.735 14.1425 15.735 13.7736C15.735 13.4046 15.4359 13.1055 15.067 13.1055ZM11.3417 9.98805H13.448C13.3088 10.7659 12.9323 11.4626 12.3948 11.9987C11.8574 11.4626 11.4808 10.7659 11.3417 9.98805Z" fill="white"/>
<defs>
<filter id="filter0_bi_1252_4708" x="1.86335" y="1.86286" width="21.0604" height="21.1503" filterUnits="userSpaceOnUse" color-interpolation-filters="sRGB">
<feFlood flood-opacity="0" result="BackgroundImageFix"/>
<feGaussianBlur in="BackgroundImageFix" stdDeviation="1.36813"/>
<feComposite in2="SourceAlpha" operator="in" result="effect1_backgroundBlur_1252_4708"/>
<feBlend mode="normal" in="SourceGraphic" in2="effect1_backgroundBlur_1252_4708" result="shape"/>
<feColorMatrix in="SourceAlpha" type="matrix" values="0 0 0 0 0 0 0 0 0 0 0 0 0 0 0 0 0 0 127 0" result="hardAlpha"/>
<feOffset dx="0.136813" dy="0.0684065"/>
<feGaussianBlur stdDeviation="0.342032"/>
<feComposite in2="hardAlpha" operator="arithmetic" k2="-1" k3="1"/>
<feColorMatrix type="matrix" values="0 0 0 0 1 0 0 0 0 1 0 0 0 0 1 0 0 0 0.6 0"/>
<feBlend mode="normal" in2="shape" result="effect2_innerShadow_1252_4708"/>
</filter>
<linearGradient id="paint0_linear_1252_4708" x1="12.0391" y1="18.4262" x2="26.6207" y2="16.6543" gradientUnits="userSpaceOnUse">
<stop stop-color="#5D82FE"/>
<stop offset="1" stop-color="#90A9FE"/>
</linearGradient>
</defs>
</svg>
