<svg width="24" height="24" viewBox="0 0 24 24" fill="none" xmlns="http://www.w3.org/2000/svg">
<path d="M19.7119 5.12578L14.6719 3.7753C12.8437 3.28545 11.4925 4.07067 11.001 5.90484L9.33648 12.1169C8.83696 13.9812 9.621 15.3128 11.4492 15.8026L16.4892 17.1531C18.3468 17.6508 19.6615 16.8816 20.1611 15.0174L21.8256 8.80527C22.3171 6.97111 21.5695 5.62352 19.7119 5.12578Z" fill="url(#paint0_linear_1252_4748)"/>
<g opacity="0.5" filter="url(#filter0_f_1252_4748)">
<path d="M18.3948 6.82693L14.961 5.90684C13.7154 5.57309 12.7948 6.10807 12.46 7.35771L11.3259 11.5901C10.9856 12.8602 11.5198 13.7674 12.7653 14.1012L16.1991 15.0213C17.4648 15.3604 18.3605 14.8363 18.7008 13.5662L19.8349 9.3338C20.1697 8.08417 19.6604 7.16605 18.3948 6.82693Z" fill="#678AFE"/>
</g>
<g filter="url(#filter1_b_1252_4748)">
<mask id="path-3-outside-1_1252_4748" maskUnits="userSpaceOnUse" x="2.99609" y="5.33327" width="16" height="16" fill="black">
<rect fill="white" x="2.99609" y="5.33327" width="16" height="16"/>
<path d="M14.2681 6.33327H8.05762C5.6293 6.33327 3.99609 8.0381 3.99609 10.5739V16.4262C3.99609 18.9548 5.6293 20.6596 8.05762 20.6596H14.2681C16.6964 20.6596 18.3225 18.9548 18.3225 16.4262V10.5739C18.3225 8.0381 16.6964 6.33327 14.2681 6.33327Z"/>
</mask>
<path d="M14.2681 6.33327H8.05762C5.6293 6.33327 3.99609 8.0381 3.99609 10.5739V16.4262C3.99609 18.9548 5.6293 20.6596 8.05762 20.6596H14.2681C16.6964 20.6596 18.3225 18.9548 18.3225 16.4262V10.5739C18.3225 8.0381 16.6964 6.33327 14.2681 6.33327Z" fill="#90A9FE" fill-opacity="0.45"/>
<path d="M14.2681 6.50869C14.365 6.50869 14.4435 6.43015 14.4435 6.33327C14.4435 6.23638 14.365 6.15784 14.2681 6.15784V6.50869ZM14.2681 6.15784C14.1712 6.15784 14.0927 6.23638 14.0927 6.33327C14.0927 6.43015 14.1712 6.50869 14.2681 6.50869V6.15784ZM14.2681 6.15784H8.05762V6.50869H14.2681V6.15784ZM8.05762 6.15784C6.80087 6.15784 5.73794 6.59997 4.98955 7.38131C4.24179 8.162 3.82067 9.26796 3.82067 10.5739H4.17152C4.17152 9.34401 4.567 8.32968 5.24292 7.624C5.91821 6.91898 6.88605 6.50869 8.05762 6.50869V6.15784ZM3.82067 10.5739V16.4262H4.17152V10.5739H3.82067ZM3.82067 16.4262C3.82067 17.7286 4.24187 18.8328 4.98962 19.6126C5.73799 20.3929 6.80088 20.8351 8.05762 20.8351V20.4842C6.88604 20.4842 5.91816 20.0739 5.24285 19.3697C4.56692 18.6649 4.17152 17.6523 4.17152 16.4262H3.82067ZM8.05762 20.8351H14.2681V20.4842H8.05762V20.8351ZM14.2681 20.8351C15.5249 20.8351 16.5861 20.3929 17.3327 19.6124C18.0786 18.8326 18.4979 17.7284 18.4979 16.4262H18.147C18.147 17.6526 17.7533 18.6651 17.0791 19.3699C16.4056 20.0739 15.4396 20.4842 14.2681 20.4842V20.8351ZM18.4979 16.4262V10.5739H18.147V16.4262H18.4979ZM18.4979 10.5739C18.4979 9.26818 18.0787 8.16223 17.3327 7.38147C16.5861 6.6 15.5249 6.15784 14.2681 6.15784V6.50869C15.4396 6.50869 16.4056 6.91895 17.0791 7.62384C17.7532 8.32944 18.147 9.3438 18.147 10.5739H18.4979Z" fill="url(#paint1_linear_1252_4748)" mask="url(#path-3-outside-1_1252_4748)"/>
</g>
<mask id="path-5-inside-2_1252_4748" fill="white">
<path d="M10.3104 15.8231C10.1499 15.8231 9.98945 15.7622 9.86696 15.6397L8.16713 13.9399C7.92215 13.6949 7.92215 13.298 8.16713 13.0538C8.41211 12.8088 8.80824 12.8081 9.05322 13.0531L10.3104 14.3102L13.2673 11.3532C13.5123 11.1082 13.9084 11.1082 14.1534 11.3532C14.3984 11.5982 14.3984 11.9951 14.1534 12.24L10.7538 15.6397C10.6313 15.7622 10.4708 15.8231 10.3104 15.8231Z"/>
</mask>
<path d="M10.3104 15.8231C10.1499 15.8231 9.98945 15.7622 9.86696 15.6397L8.16713 13.9399C7.92215 13.6949 7.92215 13.298 8.16713 13.0538C8.41211 12.8088 8.80824 12.8081 9.05322 13.0531L10.3104 14.3102L13.2673 11.3532C13.5123 11.1082 13.9084 11.1082 14.1534 11.3532C14.3984 11.5982 14.3984 11.9951 14.1534 12.24L10.7538 15.6397C10.6313 15.7622 10.4708 15.8231 10.3104 15.8231Z" fill="url(#paint2_linear_1252_4748)"/>
<path d="M8.16713 13.0538L8.19191 13.0786L8.19194 13.0786L8.16713 13.0538ZM10.3104 14.3102L10.2855 14.335L10.3104 14.3598L10.3352 14.335L10.3104 14.3102ZM14.1534 12.24L14.1286 12.2152L14.1534 12.24ZM10.7538 15.6397L10.7786 15.6645L10.7538 15.6397ZM10.3104 15.788C10.1588 15.788 10.0074 15.7305 9.89177 15.6149L9.84215 15.6645C9.97151 15.7939 10.141 15.8581 10.3104 15.8581V15.788ZM9.89177 15.6149L8.19194 13.915L8.14233 13.9647L9.84215 15.6645L9.89177 15.6149ZM8.19194 13.915C7.96064 13.6837 7.9607 13.3091 8.19191 13.0786L8.14236 13.0289C7.88361 13.2869 7.88366 13.706 8.14233 13.9647L8.19194 13.915ZM8.19194 13.0786C8.42327 12.8472 8.79718 12.8466 9.02841 13.0779L9.07803 13.0282C8.81929 12.7695 8.40096 12.7703 8.14233 13.029L8.19194 13.0786ZM9.02841 13.0779L10.2855 14.335L10.3352 14.2854L9.07803 13.0282L9.02841 13.0779ZM10.3352 14.335L13.2921 11.378L13.2425 11.3284L10.2855 14.2854L10.3352 14.335ZM13.2921 11.378C13.5234 11.1468 13.8973 11.1468 14.1286 11.378L14.1782 11.3284C13.9195 11.0697 13.5012 11.0697 13.2425 11.3284L13.2921 11.378ZM14.1286 11.378C14.3599 11.6093 14.3599 11.9839 14.1286 12.2152L14.1782 12.2648C14.4369 12.0062 14.4369 11.5871 14.1782 11.3284L14.1286 11.378ZM14.1286 12.2152L10.729 15.6149L10.7786 15.6645L14.1782 12.2648L14.1286 12.2152ZM10.729 15.6149C10.6133 15.7305 10.4619 15.788 10.3104 15.788V15.8581C10.4797 15.8581 10.6492 15.7939 10.7786 15.6645L10.729 15.6149Z" fill="url(#paint3_linear_1252_4748)" fill-opacity="0.5" mask="url(#path-5-inside-2_1252_4748)"/>
<defs>
<filter id="filter0_f_1252_4748" x="8.76964" y="3.35361" width="13.6219" height="14.2244" filterUnits="userSpaceOnUse" color-interpolation-filters="sRGB">
<feFlood flood-opacity="0" result="BackgroundImageFix"/>
<feBlend mode="normal" in="SourceGraphic" in2="BackgroundImageFix" result="shape"/>
<feGaussianBlur stdDeviation="1.22797" result="effect1_foregroundBlur_1252_4748"/>
</filter>
<filter id="filter1_b_1252_4748" x="-0.389884" y="1.94765" width="23.0981" height="23.0976" filterUnits="userSpaceOnUse" color-interpolation-filters="sRGB">
<feFlood flood-opacity="0" result="BackgroundImageFix"/>
<feGaussianBlur in="BackgroundImageFix" stdDeviation="2.1051"/>
<feComposite in2="SourceAlpha" operator="in" result="effect1_backgroundBlur_1252_4748"/>
<feBlend mode="normal" in="SourceGraphic" in2="effect1_backgroundBlur_1252_4748" result="shape"/>
</filter>
<linearGradient id="paint0_linear_1252_4748" x1="-47.8939" y1="-0.0983119" x2="78.6247" y2="23.3456" gradientUnits="userSpaceOnUse">
<stop stop-color="#5D82FE"/>
<stop offset="1" stop-color="#90A9FE"/>
</linearGradient>
<linearGradient id="paint1_linear_1252_4748" x1="6.27662" y1="8.00231" x2="15.4153" y2="19.3208" gradientUnits="userSpaceOnUse">
<stop stop-color="white" stop-opacity="0.25"/>
<stop offset="1" stop-color="white" stop-opacity="0"/>
</linearGradient>
<linearGradient id="paint2_linear_1252_4748" x1="13.8867" y1="12.0098" x2="6.81569" y2="12.3246" gradientUnits="userSpaceOnUse">
<stop stop-color="white"/>
<stop offset="1" stop-color="white" stop-opacity="0.2"/>
</linearGradient>
<linearGradient id="paint3_linear_1252_4748" x1="8.66784" y1="12.7305" x2="14.0629" y2="12.7712" gradientUnits="userSpaceOnUse">
<stop stop-color="white"/>
<stop offset="1" stop-color="white" stop-opacity="0"/>
</linearGradient>
</defs>
</svg>
