<svg width="272" height="93" viewBox="0 0 272 93" fill="none" xmlns="http://www.w3.org/2000/svg">
<g clip-path="url(#clip0_1353_5409)">
<path d="M156.208 0H116.208V40H156.208V0Z" fill="#0B0B0D"/>
<path d="M120.91 5.5485L128.842 28.7943L144.075 31.6448L125.461 5.68754L120.91 5.5485Z" fill="url(#paint0_linear_1353_5409)"/>
<path d="M131.262 10.4599L139.193 33.7049L154.427 36.5551L135.813 10.5981L131.262 10.4599Z" fill="url(#paint1_linear_1353_5409)"/>
</g>
<path fill-rule="evenodd" clip-rule="evenodd" d="M31.9884 81.6859L31.9922 81.6883L31.9961 81.6907C33.9025 82.8692 36.1374 83.4452 38.6734 83.4452C41.6791 83.4452 44.2733 82.6663 46.4171 81.0764C48.5742 79.5007 50.0407 77.4502 50.7972 74.9398L51.0648 74.052H45.7342L45.5619 74.4877C45.0609 75.7551 44.2548 76.7819 43.1319 77.5797L43.1284 77.5822L43.1248 77.5848C42.0624 78.3601 40.7533 78.7639 39.1591 78.7639C37.4908 78.7639 36.068 78.3711 34.8648 77.608C33.6413 76.8322 32.7064 75.8082 32.0504 74.5273C31.3884 73.2024 31.0558 71.771 31.0558 70.2234C31.0558 68.64 31.3899 67.2105 32.0489 65.9224C32.7049 64.6401 33.6404 63.6152 34.8648 62.8387C36.068 62.0757 37.4908 61.6829 39.1591 61.6829C40.7533 61.6829 42.0624 62.0867 43.1248 62.862L43.1284 62.8646L43.1319 62.8671C44.2548 63.6649 45.0609 64.6916 45.5619 65.9591L45.7342 66.3948H51.0648L50.7972 65.5069C50.0407 62.9965 48.5741 60.9459 46.417 59.3702C44.2732 57.7804 41.679 57.0015 38.6734 57.0015C36.1353 57.0015 33.899 57.5947 31.9923 58.807C30.1048 59.9747 28.6295 61.573 27.5708 63.5879L27.5687 63.5918C26.5416 65.5777 26.0344 67.793 26.0344 70.2234C26.0344 72.6231 26.5423 74.8363 27.5666 76.8507L27.5687 76.8548L27.5708 76.8589C28.6293 78.8734 30.1036 80.4864 31.9884 81.6859ZM53.9634 47.6748V83.0566H58.9847V47.6748H53.9634ZM68.2715 81.6828L68.2777 81.6868L68.284 81.6907C70.1876 82.8674 72.389 83.4452 74.8641 83.4452C76.9591 83.4452 78.7936 83.0398 80.3405 82.1968C81.2912 81.6894 82.1354 81.0757 82.8703 80.3561V83.0566H87.8917V57.3901H82.8703V60.109C82.1358 59.3776 81.2917 58.7577 80.3403 58.2499C78.7935 57.407 76.959 57.0015 74.8641 57.0015C72.3858 57.0015 70.182 57.5972 68.2776 58.8086C66.4209 59.9781 64.978 61.5784 63.9526 63.5942C62.9263 65.5795 62.4195 67.794 62.4195 70.2234C62.4195 72.6231 62.9274 74.8363 63.9517 76.8507C64.9766 78.8663 66.4179 80.4814 68.2715 81.6828ZM79.5339 77.6166L79.5304 77.6189L79.527 77.6213C78.4338 78.3693 77.055 78.7639 75.3499 78.7639C73.6812 78.7639 72.2779 78.371 71.1106 77.6122C69.9211 76.839 69.0179 75.818 68.3925 74.5386C67.7596 73.2115 67.4409 71.7761 67.4409 70.2234C67.4409 68.635 67.7609 67.2014 68.3911 65.911C69.0166 64.6302 69.9203 63.6083 71.1106 62.8345C72.2779 62.0758 73.6812 61.6829 75.3499 61.6829C77.055 61.6829 78.4338 62.0775 79.527 62.8255L79.5304 62.8278L79.5339 62.8301C80.6903 63.6011 81.5624 64.62 82.1573 65.8992C82.7588 67.1922 83.0646 68.63 83.0646 70.2234C83.0646 71.781 82.76 73.2205 82.1562 74.5501C81.5612 75.8282 80.6895 76.8462 79.5339 77.6166ZM96.3589 82.2579L96.364 82.2603C98.0347 83.0609 100.037 83.4452 102.345 83.4452C105.444 83.4452 107.993 82.8129 109.926 81.4772L109.928 81.4757C111.942 80.0736 112.944 78.0406 112.944 75.4697C112.944 73.8333 112.525 72.4559 111.608 71.4218C110.751 70.4233 109.652 69.6669 108.33 69.1453C107.059 68.6433 105.707 68.2597 104.278 67.9932C102.929 67.704 101.644 67.4149 100.424 67.126C99.2457 66.8153 98.3209 66.4209 97.6269 65.9582C97.0504 65.5739 96.7679 65.0492 96.7679 64.297C96.7679 63.3619 97.1324 62.7162 97.8807 62.2634C98.6848 61.7769 99.9796 61.4886 101.859 61.4886C103.85 61.4886 105.101 61.8586 105.785 62.4413L105.789 62.4453L105.794 62.4492C106.583 63.0971 106.997 63.8348 107.102 64.674L107.178 65.2775H112.245L112.163 64.5144C112.021 63.2001 111.558 61.977 110.787 60.8525C110.026 59.6954 108.902 58.7813 107.459 58.0928C106.003 57.3493 104.155 57.0015 101.957 57.0015C98.7424 57.0015 96.1884 57.6283 94.3998 58.9873C92.6208 60.331 91.7466 62.2459 91.7466 64.6371C91.7466 66.2479 92.1691 67.6089 93.0864 68.6409L93.0908 68.6458L93.0951 68.6505C93.9528 69.5797 95.0481 70.2978 96.3602 70.8157L96.3676 70.8186L96.375 70.8214C97.638 71.2867 98.9649 71.668 100.355 71.9658L100.358 71.9665C101.741 72.2559 103.041 72.5609 104.259 72.8814L104.267 72.8836L104.275 72.8855C105.446 73.1629 106.362 73.5546 107.048 74.0403C107.631 74.4536 107.923 75.015 107.923 75.8097C107.923 76.4834 107.738 76.9766 107.413 77.3476C107.038 77.7761 106.567 78.1019 105.986 78.3233L105.981 78.3253L105.975 78.3274C105.382 78.5649 104.756 78.729 104.098 78.8188C103.403 78.9135 102.838 78.9582 102.394 78.9582C100.903 78.9582 99.7526 78.7403 98.9047 78.3467C98.0295 77.9077 97.4099 77.3731 97.0053 76.759C96.5998 76.0597 96.3615 75.3607 96.2773 74.6589L96.2044 74.052H91.0665L91.1167 74.7879C91.2221 76.335 91.7159 77.7765 92.5886 79.103L92.5909 79.1066L92.5933 79.1101C93.4812 80.4241 94.7474 81.4692 96.3589 82.2579ZM119.793 82.2579L119.798 82.2603C121.469 83.0609 123.472 83.4452 125.78 83.4452C128.878 83.4452 131.427 82.8129 133.361 81.4772L133.363 81.4757C135.376 80.0736 136.378 78.0406 136.378 75.4697C136.378 73.8333 135.959 72.4559 135.043 71.4218C134.185 70.4233 133.086 69.6669 131.765 69.1453C130.493 68.6433 129.142 68.2597 127.712 67.9932C126.363 67.704 125.078 67.4149 123.858 67.126C122.68 66.8153 121.755 66.4209 121.061 65.9582C120.485 65.5739 120.202 65.0492 120.202 64.297C120.202 63.3619 120.567 62.7162 121.315 62.2634C122.119 61.7769 123.414 61.4886 125.294 61.4886C127.285 61.4886 128.535 61.8586 129.219 62.4413L129.224 62.4453L129.228 62.4492C130.017 63.0971 130.432 63.8348 130.537 64.674L130.612 65.2775H135.68L135.597 64.5144C135.455 63.2001 134.993 61.977 134.221 60.8525C133.46 59.6954 132.337 58.7813 130.894 58.0928C129.437 57.3493 127.589 57.0015 125.391 57.0015C122.177 57.0015 119.623 57.6283 117.834 58.9873C116.055 60.331 115.181 62.2459 115.181 64.6371C115.181 66.2479 115.604 67.6089 116.521 68.6409L116.525 68.6458L116.53 68.6505C117.387 69.5797 118.483 70.2978 119.795 70.8157L119.802 70.8186L119.809 70.8214C121.072 71.2867 122.399 71.668 123.789 71.9658L123.793 71.9665C125.175 72.2559 126.475 72.5609 127.693 72.8814L127.701 72.8836L127.71 72.8855C128.881 73.1629 129.796 73.5546 130.482 74.0403C131.066 74.4536 131.357 75.015 131.357 75.8097C131.357 76.4834 131.172 76.9766 130.847 77.3476C130.473 77.7761 130.002 78.1019 129.421 78.3233L129.415 78.3253L129.41 78.3274C128.816 78.5649 128.191 78.729 127.533 78.8188C126.838 78.9135 126.272 78.9582 125.828 78.9582C124.338 78.9582 123.187 78.7403 122.339 78.3467C121.464 77.9077 120.844 77.3731 120.44 76.759C120.034 76.0597 119.796 75.3607 119.712 74.6589L119.639 74.052H114.501L114.551 74.7879C114.657 76.335 115.15 77.7765 116.023 79.103L116.025 79.1066L116.028 79.1101C116.916 80.4241 118.182 81.4692 119.793 82.2579ZM139.71 76.8507L139.713 76.8548L139.715 76.8589C140.773 78.8734 142.247 80.4864 144.132 81.6859L144.136 81.6883L144.14 81.6907C146.046 82.8692 148.281 83.4452 150.817 83.4452C153.823 83.4452 156.417 82.6662 158.561 81.0762C160.718 79.5005 162.185 77.45 162.941 74.9398L163.209 74.052H157.878L157.706 74.4877C157.205 75.7551 156.399 76.7819 155.276 77.5797L155.272 77.5822L155.269 77.5848C154.206 78.3601 152.897 78.7639 151.303 78.7639C149.635 78.7639 148.212 78.3711 147.009 77.608C145.785 76.8323 144.85 75.8084 144.194 74.5276C143.532 73.2026 143.2 71.7711 143.2 70.2234C143.2 68.64 143.534 67.2105 144.193 65.9224C144.849 64.6401 145.784 63.6152 147.009 62.8387C148.212 62.0757 149.635 61.6829 151.303 61.6829C152.897 61.6829 154.206 62.0867 155.269 62.862L155.272 62.8646L155.276 62.8671C156.399 63.6649 157.205 64.6916 157.706 65.9591L157.878 66.3948H163.209L162.941 65.5069C162.185 62.9967 160.718 60.9462 158.561 59.3705C156.417 57.7805 153.823 57.0015 150.817 57.0015C148.279 57.0015 146.043 57.5947 144.136 58.8069C142.249 59.9746 140.773 61.5729 139.715 63.5879L139.713 63.5918C138.685 65.5777 138.178 67.793 138.178 70.2234C138.178 72.6231 138.686 74.8363 139.71 76.8507ZM170.56 81.6889L170.564 81.6913L170.568 81.6936C172.505 82.87 174.771 83.4452 177.337 83.4452C179.934 83.4452 182.203 82.8709 184.112 81.6907L184.115 81.6889C186.035 80.4889 187.513 78.8727 188.541 76.8507C189.566 74.8363 190.074 72.6231 190.074 70.2234C190.074 67.7938 189.567 65.5792 188.54 63.5938C187.512 61.5732 186.034 59.973 184.113 58.8054C182.204 57.5924 179.935 57.0015 177.337 57.0015C174.769 57.0015 172.502 57.5938 170.564 58.8038C168.642 59.9715 167.163 61.5723 166.135 63.5938C165.108 65.5792 164.601 67.7938 164.601 70.2234C164.601 72.6231 165.109 74.8363 166.133 76.8507C167.162 78.8727 168.64 80.4889 170.56 81.6889ZM181.521 77.6166L181.518 77.6189L181.515 77.6213C180.421 78.3693 179.043 78.7639 177.337 78.7639C175.668 78.7639 174.285 78.3708 173.153 77.6166C171.998 76.8461 171.126 75.8278 170.531 74.5495C169.927 73.22 169.623 71.7808 169.623 70.2234C169.623 68.63 169.929 67.1922 170.53 65.8992C171.125 64.62 171.997 63.6011 173.153 62.8301C174.285 62.0759 175.668 61.6829 177.337 61.6829C179.043 61.6829 180.421 62.0775 181.515 62.8255L181.518 62.8278L181.521 62.8301C182.678 63.6011 183.55 64.62 184.145 65.8992C184.746 67.1922 185.052 68.63 185.052 70.2234C185.052 71.7808 184.748 73.22 184.144 74.5495C183.549 75.8278 182.677 76.8461 181.521 77.6166ZM193.527 57.3901V92.6748H198.548V80.322C199.27 81.0424 200.093 81.665 201.016 82.1894L201.024 82.194L201.032 82.1983C202.609 83.0391 204.457 83.4452 206.554 83.4452C209.029 83.4452 211.217 82.8675 213.09 81.6877L213.093 81.6859C214.98 80.4852 216.44 78.8695 217.467 76.8507C218.491 74.8363 218.999 72.6231 218.999 70.2234C218.999 67.7938 218.492 65.5792 217.465 63.5938C216.439 61.5766 214.979 59.9769 213.092 58.8086C211.218 57.5961 209.03 57.0015 206.554 57.0015C204.458 57.0015 202.611 57.4072 201.035 58.247C200.103 58.7343 199.274 59.3393 198.548 60.0604V57.3901H193.527ZM210.308 77.6122L210.304 77.6144L210.301 77.6166C209.172 78.3695 207.773 78.7639 206.068 78.7639C204.399 78.7639 203.016 78.3708 201.884 77.6166C200.728 76.8461 199.857 75.8278 199.262 74.5495C198.658 73.22 198.354 71.7808 198.354 70.2234C198.354 68.63 198.659 67.1922 199.261 65.8992C199.856 64.62 200.728 63.6011 201.884 62.8301C203.016 62.0759 204.399 61.6829 206.068 61.6829C207.773 61.6829 209.172 62.0773 210.301 62.8301L210.304 62.8324L210.308 62.8345C211.498 63.6083 212.402 64.6302 213.027 65.911C213.657 67.2014 213.977 68.635 213.977 70.2234C213.977 71.776 213.659 73.2112 213.026 74.5383C212.4 75.8179 211.497 76.839 210.308 77.6122ZM227.068 81.6918L227.072 81.6941L227.076 81.6963C229.043 82.8699 231.322 83.4452 233.889 83.4452C236.88 83.4452 239.385 82.7385 241.346 81.2672L241.348 81.266C243.297 79.7958 244.719 77.9102 245.607 75.6218L245.971 74.6835H240.571L240.375 75.0449C239.784 76.1392 238.957 77.0423 237.885 77.7584C236.855 78.415 235.552 78.7639 233.938 78.7639C232.42 78.7639 231.115 78.4465 230.003 77.8331C228.871 77.1766 227.969 76.3179 227.287 75.2538C226.758 74.3617 226.382 73.4014 226.16 72.3697H246.383V70.2234C246.383 67.7938 245.876 65.5792 244.849 63.5938C243.821 61.5732 242.343 59.973 240.422 58.8054C238.513 57.5924 236.244 57.0015 233.647 57.0015C231.078 57.0015 228.811 57.5938 226.874 58.8038C224.952 59.9715 223.472 61.5723 222.444 63.5938C221.417 65.5792 220.91 67.7938 220.91 70.2234C220.91 72.6268 221.436 74.8429 222.495 76.8589L222.498 76.8629L222.5 76.8669C223.593 78.8834 225.119 80.4948 227.068 81.6918ZM228.496 63.5725C227.395 64.6746 226.641 66.0085 226.239 67.5913H241.066C240.684 66.0107 239.928 64.678 238.8 63.5754C237.525 62.33 235.831 61.6829 233.647 61.6829C231.464 61.6829 229.77 62.329 228.496 63.5725Z" fill="white"/>
<defs>
<linearGradient id="paint0_linear_1353_5409" x1="128.455" y1="3.52693" x2="136.531" y2="33.6663" gradientUnits="userSpaceOnUse">
<stop stop-color="#B4A1FF"/>
<stop offset="0.0001" stop-color="#7795FE" stop-opacity="0.88"/>
<stop offset="1" stop-color="#98AFFF" stop-opacity="0"/>
</linearGradient>
<linearGradient id="paint1_linear_1353_5409" x1="138.807" y1="8.43818" x2="146.882" y2="38.5767" gradientUnits="userSpaceOnUse">
<stop stop-color="#7795FE"/>
<stop offset="0.927083" stop-color="#98AFFF" stop-opacity="0"/>
</linearGradient>
<clipPath id="clip0_1353_5409">
<rect x="116.208" width="40" height="40" rx="2" fill="white"/>
</clipPath>
</defs>
</svg>
