<svg width="17" height="16" viewBox="0 0 17 16" fill="none" xmlns="http://www.w3.org/2000/svg">
<path d="M13.2155 12.6667H3.88216V3.33333H13.2155M13.2155 2H3.88216C3.52854 2 3.1894 2.14048 2.93935 2.39052C2.6893 2.64057 2.54883 2.97971 2.54883 3.33333V12.6667C2.54883 13.0203 2.6893 13.3594 2.93935 13.6095C3.1894 13.8595 3.52854 14 3.88216 14H13.2155C13.5691 14 13.9083 13.8595 14.1583 13.6095C14.4084 13.3594 14.5488 13.0203 14.5488 12.6667V3.33333C14.5488 2.97971 14.4084 2.64057 14.1583 2.39052C13.9083 2.14048 13.5691 2 13.2155 2ZM7.88216 10H9.2155V11.3333H7.88216V10ZM7.88216 4.66667H9.2155V8.66667H7.88216V4.66667Z" fill="black"/>
</svg>
