<svg width="16" height="16" viewBox="0 0 16 16" fill="none" xmlns="http://www.w3.org/2000/svg">
<path d="M10.9997 8.00004C12.6663 8.00004 13.9997 9.33337 13.9997 11C13.9997 11.5867 13.833 12.14 13.5397 12.6L15.593 14.6667L14.6663 15.5934L12.5863 13.5467C12.1263 13.8334 11.5797 14 10.9997 14C9.33301 14 7.99967 12.6667 7.99967 11C7.99967 9.33337 9.33301 8.00004 10.9997 8.00004ZM10.9997 9.33337C10.5576 9.33337 10.1337 9.50897 9.82116 9.82153C9.5086 10.1341 9.33301 10.558 9.33301 11C9.33301 11.4421 9.5086 11.866 9.82116 12.1786C10.1337 12.4911 10.5576 12.6667 10.9997 12.6667C11.4417 12.6667 11.8656 12.4911 12.1782 12.1786C12.4907 11.866 12.6663 11.4421 12.6663 11C12.6663 10.558 12.4907 10.1341 12.1782 9.82153C11.8656 9.50897 11.4417 9.33337 10.9997 9.33337ZM6.66634 1.33337H9.33301C9.68663 1.33337 10.0258 1.47385 10.2758 1.7239C10.5259 1.97395 10.6663 2.31309 10.6663 2.66671V4.00004H13.333C13.6866 4.00004 14.0258 4.14052 14.2758 4.39056C14.5259 4.64061 14.6663 4.97975 14.6663 5.33337V8.68671C14.2759 8.06736 13.7347 7.55718 13.0935 7.2039C12.4522 6.85062 11.7318 6.66579 10.9997 6.66671C9.8504 6.66671 8.7482 7.12325 7.93554 7.93591C7.12289 8.74857 6.66634 9.85077 6.66634 11C6.66634 12.1667 7.12634 13.22 7.87301 14H2.66634C2.31272 14 1.97358 13.8596 1.72353 13.6095C1.47348 13.3595 1.33301 13.0203 1.33301 12.6667V5.33337C1.33301 4.59337 1.92634 4.00004 2.66634 4.00004H5.33301V2.66671C5.33301 1.92671 5.92634 1.33337 6.66634 1.33337ZM9.33301 4.00004V2.66671H6.66634V4.00004H9.33301Z" fill="#7795FE"/>
</svg>
