<svg width="16" height="16" viewBox="0 0 16 16" fill="none" xmlns="http://www.w3.org/2000/svg">
<path d="M7.99989 10.3333C7.38105 10.3333 6.78756 10.0875 6.34998 9.64991C5.91239 9.21233 5.66656 8.61883 5.66656 8C5.66656 7.38116 5.91239 6.78767 6.34998 6.35008C6.78756 5.9125 7.38105 5.66666 7.99989 5.66666C8.61873 5.66666 9.21222 5.9125 9.64981 6.35008C10.0874 6.78767 10.3332 7.38116 10.3332 8C10.3332 8.61883 10.0874 9.21233 9.64981 9.64991C9.21222 10.0875 8.61873 10.3333 7.99989 10.3333ZM12.9532 8.64666C12.9799 8.43333 12.9999 8.22 12.9999 8C12.9999 7.78 12.9799 7.56 12.9532 7.33333L14.3599 6.24666C14.4866 6.14666 14.5199 5.96666 14.4399 5.82L13.1066 3.51333C13.0266 3.36666 12.8466 3.30666 12.6999 3.36666L11.0399 4.03333C10.6932 3.77333 10.3332 3.54666 9.91323 3.38L9.66656 1.61333C9.65302 1.53481 9.61212 1.46361 9.5511 1.41236C9.49009 1.36111 9.41291 1.33312 9.33323 1.33333H6.66656C6.49989 1.33333 6.35989 1.45333 6.33323 1.61333L6.08656 3.38C5.66656 3.54666 5.30656 3.77333 4.95989 4.03333L3.29989 3.36666C3.15323 3.30666 2.97323 3.36666 2.89323 3.51333L1.55989 5.82C1.47323 5.96666 1.51323 6.14666 1.63989 6.24666L3.04656 7.33333C3.01989 7.56 2.99989 7.78 2.99989 8C2.99989 8.22 3.01989 8.43333 3.04656 8.64666L1.63989 9.75333C1.51323 9.85333 1.47323 10.0333 1.55989 10.18L2.89323 12.4867C2.97323 12.6333 3.15323 12.6867 3.29989 12.6333L4.95989 11.96C5.30656 12.2267 5.66656 12.4533 6.08656 12.62L6.33323 14.3867C6.35989 14.5467 6.49989 14.6667 6.66656 14.6667H9.33323C9.49989 14.6667 9.63989 14.5467 9.66656 14.3867L9.91323 12.62C10.3332 12.4467 10.6932 12.2267 11.0399 11.96L12.6999 12.6333C12.8466 12.6867 13.0266 12.6333 13.1066 12.4867L14.4399 10.18C14.5199 10.0333 14.4866 9.85333 14.3599 9.75333L12.9532 8.64666Z" fill="#6C6C80"/>
</svg>
