<svg width="16" height="16" viewBox="0 0 16 16" fill="none" xmlns="http://www.w3.org/2000/svg">
<path d="M13.8063 3.08675L12.913 2.19341C12.6663 1.93341 12.233 1.93341 11.973 2.19341L5.99967 8.16675L7.83301 10.0001L13.8063 4.02675C14.0663 3.76675 14.0663 3.33341 13.8063 3.08675ZM4.66634 9.33341C4.13591 9.33341 3.6272 9.54413 3.25213 9.9192C2.87705 10.2943 2.66634 10.803 2.66634 11.3334C2.66634 12.2067 1.89301 12.6667 1.33301 12.6667C1.94634 13.4801 2.99967 14.0001 3.99967 14.0001C4.70692 14.0001 5.3852 13.7191 5.88529 13.219C6.38539 12.7189 6.66634 12.0407 6.66634 11.3334C6.66634 10.803 6.45563 10.2943 6.08055 9.9192C5.70548 9.54413 5.19677 9.33341 4.66634 9.33341Z" fill="#7795FE"/>
</svg>
