<svg width="16" height="16" viewBox="0 0 16 16" fill="none" xmlns="http://www.w3.org/2000/svg">
<path d="M15.3337 3.99997H0.666992V12H15.3337V3.99997ZM7.33366 8.66664H5.33366V10.6666H4.00033V8.66664H2.00033V7.3333H4.00033V5.3333H5.33366V7.3333H7.33366V8.66664ZM10.3337 9.99997C9.78033 9.99997 9.33366 9.5533 9.33366 8.99997C9.33366 8.44664 9.78033 7.99997 10.3337 7.99997C10.887 7.99997 11.3337 8.44664 11.3337 8.99997C11.3337 9.5533 10.887 9.99997 10.3337 9.99997ZM13.0003 7.99997C12.447 7.99997 12.0003 7.5533 12.0003 6.99997C12.0003 6.44664 12.447 5.99997 13.0003 5.99997C13.5537 5.99997 14.0003 6.44664 14.0003 6.99997C14.0003 7.5533 13.5537 7.99997 13.0003 7.99997Z" fill="#7795FE"/>
</svg>
