<svg width="24" height="24" viewBox="0 0 24 24" fill="none" xmlns="http://www.w3.org/2000/svg">
<g clip-path="url(#clip0_1348_3747)">
<path d="M23.738 12.2748C23.738 11.4848 23.668 10.7348 23.548 10.0048H12.248V14.5148H18.718C18.428 15.9948 17.578 17.2448 16.318 18.0948V21.0948H20.178C22.438 19.0048 23.738 15.9248 23.738 12.2748Z" fill="#696CFF"/>
<path d="M12.2549 23.9998C15.4949 23.9998 18.2049 22.9198 20.1849 21.0898L16.3249 18.0898C15.2449 18.8098 13.8749 19.2498 12.2549 19.2498C9.12492 19.2498 6.47492 17.1398 5.52492 14.2898H1.54492V17.3798C3.51492 21.2998 7.56492 23.9998 12.2549 23.9998Z" fill="#34A853"/>
<path d="M5.52488 14.2899C5.27488 13.5699 5.14488 12.7999 5.14488 11.9999C5.14488 11.1999 5.28488 10.4299 5.52488 9.70992V6.61992H1.54488C0.724882 8.23992 0.254883 10.0599 0.254883 11.9999C0.254883 13.9399 0.724882 15.7599 1.54488 17.3799L5.52488 14.2899Z" fill="#FBBC05"/>
<path d="M12.2549 4.75C14.0249 4.75 15.6049 5.36 16.8549 6.55L20.2749 3.13C18.2049 1.19 15.4949 0 12.2549 0C7.56492 0 3.51492 2.7 1.54492 6.62L5.52492 9.71C6.47492 6.86 9.12492 4.75 12.2549 4.75Z" fill="#EA4335"/>
</g>
<defs>
<clipPath id="clip0_1348_3747">
<rect width="24" height="24" fill="white"/>
</clipPath>
</defs>
</svg>
