<svg width="16" height="17" viewBox="0 0 16 17" fill="none" xmlns="http://www.w3.org/2000/svg">
<path d="M8.06634 12.7166L7.99967 12.7833L7.92634 12.7166C4.75968 9.84331 2.66634 7.94331 2.66634 6.01664C2.66634 4.68331 3.66634 3.68331 4.99967 3.68331C6.02634 3.68331 7.02634 4.34998 7.37967 5.25664H8.61968C8.97301 4.34998 9.97301 3.68331 10.9997 3.68331C12.333 3.68331 13.333 4.68331 13.333 6.01664C13.333 7.94331 11.2397 9.84331 8.06634 12.7166ZM10.9997 2.34998C9.83967 2.34998 8.72634 2.88998 7.99967 3.73664C7.27301 2.88998 6.15967 2.34998 4.99967 2.34998C2.94634 2.34998 1.33301 3.95664 1.33301 6.01664C1.33301 8.52998 3.59967 10.59 7.03301 13.7033L7.99967 14.5833L8.96634 13.7033C12.3997 10.59 14.6663 8.52998 14.6663 6.01664C14.6663 3.95664 13.053 2.34998 10.9997 2.34998Z" fill="current"/>
</svg>
