<svg width="24" height="24" viewBox="0 0 24 24" fill="none" xmlns="http://www.w3.org/2000/svg">
<g clip-path="url(#clip0_1348_3746)">
<path fill-rule="evenodd" clip-rule="evenodd" d="M9.7394 1.67661C9.33485 1.73206 8.51042 1.91171 7.90739 2.07583C2.54769 3.53453 -0.697681 7.62683 0.127605 11.8857C0.524435 13.9336 2.14264 16.0881 4.29879 17.4392L5.24985 18.0352L4.96924 18.7713C4.63567 19.6463 4.0905 20.4853 3.21189 21.4758C2.21963 22.5943 2.33119 22.662 4.16148 22.0515C5.66433 21.5501 7.38552 20.7927 8.69737 20.055L9.7394 19.4691L11.4557 19.5045C14.0871 19.5587 16.1098 19.181 18.2216 18.2413C20.7946 17.0965 22.8697 15.0017 23.6577 12.7535C24.0265 11.7014 24.1097 10.0302 23.8465 8.95968C23.2279 6.44316 21.0829 4.10523 18.221 2.82818C17.0114 2.28841 15.4443 1.84237 14.1608 1.67229C13.0687 1.52777 10.8084 1.52988 9.7394 1.67661Z" fill="#47292B"/>
</g>
<defs>
<clipPath id="clip0_1348_3746">
<rect width="24" height="24" fill="white"/>
</clipPath>
</defs>
</svg>
