<svg width="16" height="16" viewBox="0 0 16 16" fill="none" xmlns="http://www.w3.org/2000/svg">
<path d="M8.58033 10.0467L6.88699 8.37337L6.90699 8.35337C8.03643 7.09811 8.88026 5.61288 9.38033 4.00004H11.3337V2.66671H6.66699V1.33337H5.33366V2.66671H0.666992V3.99337H8.11366C7.66699 5.28004 6.96033 6.50004 6.00033 7.56671C5.38033 6.88004 4.86699 6.12671 4.46033 5.33337H3.12699C3.61366 6.42004 4.28033 7.44671 5.11366 8.37337L1.72033 11.72L2.66699 12.6667L6.00033 9.33337L8.07366 11.4067L8.58033 10.0467ZM12.3337 6.66671H11.0003L8.00033 14.6667H9.33366L10.0803 12.6667H13.247L14.0003 14.6667H15.3337L12.3337 6.66671ZM10.587 11.3334L11.667 8.44671L12.747 11.3334H10.587Z" fill="#7795FE"/>
</svg>
