<svg width="16" height="16" viewBox="0 0 16 16" fill="none" xmlns="http://www.w3.org/2000/svg">
<path d="M1.55967 9.75339C1.95967 9.60672 2.37301 9.53339 2.81301 9.53339C3.70634 9.53339 4.48634 9.81339 5.15301 10.3734L3.05967 12.4667C2.36517 11.6843 1.85287 10.7576 1.55967 9.75339ZM10.373 6.53338C11.6863 7.51338 13.1063 7.75339 14.6263 7.25339C14.6463 7.39338 14.6663 7.64672 14.6663 8.00005C14.6663 8.68672 14.4997 9.45339 14.1863 10.3001C13.873 11.1401 13.4863 11.8201 13.033 12.3334L8.81301 8.12672L10.373 6.53338ZM5.84634 11.0934C6.55301 12.1134 6.69967 13.2267 6.27967 14.4401C5.33301 14.1667 4.48634 13.7401 3.77967 13.1534L5.84634 11.0934ZM8.12634 8.81339L12.333 13.0334C10.8863 14.3001 9.18634 14.8334 7.25301 14.6267C7.39301 14.1867 7.46634 13.7067 7.46634 13.1867C7.46634 12.7734 7.37301 12.2867 7.18634 11.7334C6.99967 11.1801 6.77968 10.7267 6.53301 10.3734L8.12634 8.81339ZM5.87301 9.66672C5.26548 9.12341 4.52077 8.75682 3.71967 8.60672C2.90634 8.45338 2.12634 8.50005 1.37301 8.75339C1.35301 8.60672 1.33301 8.35338 1.33301 8.00005C1.33301 7.31339 1.49967 6.54672 1.81301 5.70005C2.12634 4.86005 2.51301 4.18005 2.96634 3.66672L7.40634 8.12672L5.87301 9.66672ZM10.373 5.15338C9.47968 4.05338 9.27301 2.85338 9.75301 1.56005C10.1663 1.66672 10.6397 1.86672 11.173 2.17338C11.6997 2.47338 12.133 2.77338 12.4663 3.06005L10.373 5.15338ZM14.4397 6.25338C14.0397 6.39338 13.6263 6.46672 13.1863 6.46672C12.4597 6.46672 11.7597 6.25339 11.093 5.81339L13.153 3.78005C13.7397 4.51338 14.1663 5.33338 14.4397 6.25338ZM8.12634 7.40672L3.66634 2.96672C5.11301 1.70005 6.81301 1.16672 8.75301 1.37338C8.60634 1.81338 8.53301 2.29338 8.53301 2.81338C8.53301 3.29338 8.63967 3.83338 8.85967 4.44005C9.07967 5.04005 9.33301 5.52005 9.66634 5.87338L8.12634 7.40672Z" fill="#7795FE"/>
</svg>
