<svg xmlns="http://www.w3.org/2000/svg" width="91" height="20" viewBox="0 0 91 20" fill="none">
  <path fill-rule="evenodd" clip-rule="evenodd" d="M2.45891 14.546L2.46047 14.547L2.46205 14.548C3.24939 15.0347 4.17234 15.2726 5.21966 15.2726C6.46096 15.2726 7.53235 14.9509 8.4177 14.2943C9.30853 13.6435 9.91416 12.7967 10.2266 11.76L10.3371 11.3933H8.13567L8.06453 11.5733C7.85759 12.0967 7.52468 12.5207 7.06097 12.8502L7.0595 12.8512L7.05805 12.8523C6.61928 13.1725 6.07863 13.3393 5.42027 13.3393C4.73129 13.3393 4.1437 13.177 3.64678 12.8619C3.14152 12.5415 2.7554 12.1186 2.48448 11.5896C2.21112 11.0424 2.07374 10.4513 2.07374 9.81217C2.07374 9.15825 2.2117 8.5679 2.48386 8.03596C2.75481 7.50637 3.14114 7.08309 3.64678 6.76243C4.1437 6.44731 4.73129 6.28509 5.42027 6.28509C6.07863 6.28509 6.61928 6.45187 7.05805 6.77205L7.0595 6.77311L7.06097 6.77415C7.52468 7.10363 7.85759 7.52766 8.06453 8.05109L8.13567 8.23104H10.3371L10.2266 7.86436C9.91416 6.82761 9.3085 5.98075 8.41763 5.33C7.53229 4.67344 6.46093 4.35178 5.21966 4.35178C4.1715 4.35178 3.24793 4.59676 2.46048 5.09741C1.68099 5.57966 1.07171 6.23972 0.634491 7.07183L0.63365 7.07346C0.209443 7.89359 0 8.80848 0 9.81217C0 10.8032 0.209744 11.7172 0.632749 12.5491L0.633611 12.5508L0.634496 12.5525C1.07164 13.3845 1.68048 14.0506 2.45891 14.546ZM11.5342 0.5V15.1121H13.6079V0.5H11.5342ZM17.4432 14.5447L17.4458 14.5464L17.4483 14.548C18.2345 15.0339 19.1436 15.2726 20.1658 15.2726C21.031 15.2726 21.7886 15.1051 22.4275 14.757C22.8201 14.5474 23.1687 14.294 23.4722 13.9968V15.1121H25.546V4.51227H23.4722V5.63509C23.1689 5.33305 22.8203 5.07703 22.4274 4.86734C21.7886 4.51921 21.031 4.35178 20.1658 4.35178C19.1423 4.35178 18.2322 4.59776 17.4457 5.09808C16.6789 5.58105 16.083 6.24194 15.6596 7.07444C15.2357 7.89432 15.0264 8.80888 15.0264 9.81217C15.0264 10.8032 15.2362 11.7172 15.6592 12.5491C16.0824 13.3815 16.6777 14.0485 17.4432 14.5447ZM22.0944 12.8655L22.0929 12.8664L22.0915 12.8674C21.64 13.1763 21.0706 13.3393 20.3664 13.3393C19.6773 13.3393 19.0978 13.177 18.6157 12.8636C18.1245 12.5443 17.7514 12.1227 17.4931 11.5943C17.2318 11.0462 17.1002 10.4534 17.1002 9.81217C17.1002 9.15618 17.2323 8.56414 17.4926 8.03123C17.7509 7.5023 18.1241 7.08026 18.6157 6.76071C19.0978 6.44736 19.6773 6.28509 20.3664 6.28509C21.0706 6.28509 21.64 6.44806 22.0915 6.75697L22.0929 6.75794L22.0944 6.75889C22.5719 7.07728 22.9321 7.49806 23.1778 8.02636C23.4262 8.56035 23.5525 9.15413 23.5525 9.81217C23.5525 10.4555 23.4267 11.0499 23.1773 11.599C22.9316 12.1268 22.5716 12.5473 22.0944 12.8655ZM29.0428 14.7822L29.0449 14.7832C29.7349 15.1138 30.5618 15.2726 31.5151 15.2726C32.7947 15.2726 33.8475 15.0114 34.6459 14.4598L34.6468 14.4592C35.4782 13.8802 35.8921 13.0406 35.8921 11.9788C35.8921 11.303 35.7191 10.7342 35.3405 10.3071C34.9864 9.89473 34.5325 9.58235 33.9868 9.36693C33.4616 9.15962 32.9036 9.00122 32.3132 8.89116C31.7559 8.77171 31.2253 8.65233 30.7214 8.53301C30.235 8.40471 29.8531 8.2418 29.5665 8.05074C29.3284 7.89201 29.2117 7.67534 29.2117 7.36469C29.2117 6.9785 29.3622 6.71185 29.6713 6.52485C30.0034 6.32393 30.5381 6.20484 31.3144 6.20484C32.1366 6.20484 32.6529 6.35767 32.9354 6.59831L32.9374 6.59996L32.9393 6.60158C33.2651 6.86913 33.4362 7.1738 33.4796 7.52035L33.5107 7.76963H35.6036L35.5695 7.45447C35.5108 6.91167 35.3199 6.40656 35.0013 5.94218C34.6869 5.46431 34.2229 5.0868 33.6271 4.80246C33.0257 4.49539 32.2623 4.35178 31.3546 4.35178C30.0272 4.35178 28.9724 4.61062 28.2337 5.17185C27.499 5.72678 27.138 6.51762 27.138 7.50512C27.138 8.17038 27.3125 8.73244 27.6913 9.15865L27.6931 9.16065L27.6949 9.16261C28.0491 9.54632 28.5014 9.8429 29.0433 10.0568L29.0464 10.058L29.0494 10.0591C29.571 10.2513 30.119 10.4088 30.6931 10.5318L30.6944 10.5321C31.2653 10.6515 31.8022 10.7775 32.3053 10.9099L32.3087 10.9108L32.3121 10.9116C32.7958 11.0262 33.1738 11.1879 33.457 11.3885C33.698 11.5592 33.8184 11.791 33.8184 12.1192C33.8184 12.3975 33.742 12.6011 33.6079 12.7544C33.4531 12.9313 33.2586 13.0659 33.0187 13.1573L33.0165 13.1581L33.0143 13.159C32.7691 13.2571 32.5108 13.3249 32.2389 13.3619C31.952 13.4011 31.7184 13.4195 31.5351 13.4195C30.9195 13.4195 30.4443 13.3295 30.0942 13.167C29.7327 12.9857 29.4768 12.7649 29.3098 12.5113C29.1423 12.2225 29.0438 11.9338 29.0091 11.644L28.979 11.3933H26.8571L26.8778 11.6972C26.9214 12.3362 27.1253 12.9315 27.4857 13.4793L27.4867 13.4808L27.4877 13.4822C27.8543 14.0249 28.3773 14.4565 29.0428 14.7822ZM38.7208 14.7822L38.7229 14.7832C39.4129 15.1138 40.2398 15.2726 41.1931 15.2726C42.4728 15.2726 43.5255 15.0114 44.3239 14.4598L44.3248 14.4592C45.1562 13.8802 45.5702 13.0406 45.5702 11.9788C45.5702 11.303 45.3971 10.7342 45.0185 10.3071C44.6644 9.89473 44.2105 9.58235 43.6648 9.36693C43.1396 9.15962 42.5816 9.00122 41.9913 8.89116C41.434 8.77171 40.9034 8.65233 40.3995 8.53301C39.913 8.40471 39.5311 8.2418 39.2445 8.05074C39.0064 7.89201 38.8897 7.67534 38.8897 7.36469C38.8897 6.9785 39.0402 6.71185 39.3493 6.52485C39.6814 6.32393 40.2161 6.20484 40.9925 6.20484C41.8146 6.20484 42.331 6.35767 42.6135 6.59831L42.6154 6.59996L42.6174 6.60158C42.9431 6.86913 43.1143 7.1738 43.1576 7.52035L43.1887 7.76963H45.2816L45.2475 7.45447C45.1889 6.91167 44.998 6.40656 44.6793 5.94218C44.3649 5.46431 43.901 5.0868 43.3052 4.80246C42.7037 4.49539 41.9403 4.35178 41.0326 4.35178C39.7052 4.35178 38.6504 4.61062 37.9117 5.17185C37.177 5.72678 36.816 6.51762 36.816 7.50512C36.816 8.17038 36.9905 8.73244 37.3694 9.15865L37.3711 9.16065L37.3729 9.16261C37.7271 9.54632 38.1795 9.8429 38.7214 10.0568L38.7244 10.058L38.7275 10.0591C39.2491 10.2513 39.797 10.4088 40.3711 10.5318L40.3725 10.5321C40.9434 10.6515 41.4803 10.7775 41.9833 10.9099L41.9867 10.9108L41.9901 10.9116C42.4738 11.0262 42.8519 11.1879 43.135 11.3885C43.376 11.5592 43.4964 11.791 43.4964 12.1192C43.4964 12.3975 43.42 12.6011 43.286 12.7544C43.1311 12.9313 42.9366 13.0659 42.6967 13.1573L42.6945 13.1581L42.6923 13.159C42.4471 13.2571 42.1889 13.3249 41.917 13.3619C41.63 13.4011 41.3964 13.4195 41.2131 13.4195C40.5975 13.4195 40.1224 13.3295 39.7722 13.167C39.4107 12.9857 39.1549 12.7649 38.9878 12.5113C38.8203 12.2225 38.7219 11.9338 38.6871 11.644L38.657 11.3933H36.5351L36.5559 11.6972C36.5994 12.3362 36.8033 12.9315 37.1638 13.4793L37.1647 13.4808L37.1657 13.4822C37.5324 14.0249 38.0553 14.4565 38.7208 14.7822ZM46.9462 12.5491L46.9471 12.5508L46.948 12.5525C47.3851 13.3845 47.994 14.0506 48.7724 14.546L48.7739 14.547L48.7755 14.548C49.5629 15.0347 50.4858 15.2726 51.5331 15.2726C52.7745 15.2726 53.8459 14.9509 54.7313 14.2942C55.6221 13.6435 56.2277 12.7967 56.5401 11.76L56.6506 11.3933H54.4492L54.378 11.5733C54.1711 12.0967 53.8382 12.5207 53.3744 12.8502L53.373 12.8512L53.3715 12.8523C52.9328 13.1725 52.3921 13.3393 51.7337 13.3393C51.0448 13.3393 50.4572 13.177 49.9603 12.8619C49.455 12.5415 49.0689 12.1187 48.798 11.5897C48.5246 11.0425 48.3872 10.4514 48.3872 9.81217C48.3872 9.15825 48.5252 8.5679 48.7973 8.03596C49.0683 7.50637 49.4546 7.08309 49.9603 6.76243C50.4572 6.44731 51.0448 6.28509 51.7337 6.28509C52.3921 6.28509 52.9328 6.45187 53.3715 6.77205L53.373 6.77311L53.3744 6.77415C53.8382 7.10363 54.1711 7.52766 54.378 8.05109L54.4492 8.23104H56.6506L56.5401 7.86436C56.2276 6.82767 55.622 5.98085 54.7313 5.33011C53.8459 4.67347 52.7745 4.35178 51.5331 4.35178C50.485 4.35178 49.5615 4.59675 48.774 5.09737C47.9945 5.57962 47.3852 6.23969 46.948 7.07183L46.9471 7.07346C46.5229 7.89359 46.3135 8.80848 46.3135 9.81217C46.3135 10.8032 46.5232 11.7172 46.9462 12.5491ZM59.6866 14.5472L59.6882 14.5482L59.6897 14.5492C60.4899 15.035 61.4255 15.2726 62.4855 15.2726C63.558 15.2726 64.4948 15.0354 65.2833 14.548L65.2844 14.5472C66.0774 14.0517 66.688 13.3842 67.1126 12.5491C67.5356 11.7172 67.7453 10.8032 67.7453 9.81217C67.7453 8.80881 67.536 7.89419 67.1121 7.07426C66.6876 6.23981 66.077 5.57895 65.2838 5.09676C64.4954 4.59581 63.5583 4.35178 62.4855 4.35178C61.4247 4.35178 60.4887 4.59639 59.6884 5.09608C58.8946 5.57833 58.2837 6.23942 57.859 7.07426C57.4351 7.89419 57.2257 8.80881 57.2257 9.81217C57.2257 10.8032 57.4355 11.7172 57.8585 12.5491C58.2831 13.3842 58.8937 14.0517 59.6866 14.5472ZM64.2134 12.8655L64.212 12.8664L64.2106 12.8674C63.7591 13.1763 63.1897 13.3393 62.4855 13.3393C61.7962 13.3393 61.2248 13.1769 60.7576 12.8655C60.2803 12.5472 59.9203 12.1267 59.6745 11.5988C59.4252 11.0497 59.2995 10.4554 59.2995 9.81217C59.2995 9.15413 59.4258 8.56035 59.6742 8.02636C59.9199 7.49806 60.28 7.07728 60.7576 6.75889C61.2248 6.44742 61.7962 6.28509 62.4855 6.28509C63.1897 6.28509 63.7591 6.44806 64.2106 6.75697L64.212 6.75794L64.2134 6.75889C64.691 7.07728 65.0512 7.49806 65.2969 8.02636C65.5453 8.56035 65.6716 9.15413 65.6716 9.81217C65.6716 10.4554 65.5458 11.0497 65.2965 11.5988C65.0508 12.1267 64.6908 12.5472 64.2134 12.8655ZM69.1713 4.51227V19.0842H71.2451V13.9827C71.5431 14.2802 71.8831 14.5374 72.2643 14.7539L72.2676 14.7558L72.271 14.7576C72.922 15.1048 73.6855 15.2726 74.5515 15.2726C75.5735 15.2726 76.477 15.034 77.2509 14.5467L77.252 14.546C78.0313 14.0501 78.6342 13.3829 79.0581 12.5491C79.4811 11.7172 79.6909 10.8032 79.6909 9.81217C79.6909 8.80881 79.4816 7.89419 79.0577 7.07426C78.6339 6.2412 78.031 5.58057 77.2515 5.09806C76.4778 4.59731 75.574 4.35178 74.5515 4.35178C73.686 4.35178 72.9229 4.51932 72.2721 4.86614C71.8874 5.06738 71.5448 5.31723 71.2451 5.61505V4.51227H69.1713ZM76.1016 12.8636L76.1002 12.8645L76.0988 12.8655C75.6325 13.1764 75.0548 13.3393 74.3509 13.3393C73.6615 13.3393 73.0902 13.1769 72.623 12.8655C72.1456 12.5472 71.7856 12.1267 71.5399 11.5988C71.2906 11.0497 71.1648 10.4554 71.1648 9.81217C71.1648 9.15413 71.2911 8.56035 71.5395 8.02636C71.7852 7.49806 72.1454 7.07728 72.6229 6.75889C73.0902 6.44742 73.6615 6.28509 74.3509 6.28509C75.0548 6.28509 75.6325 6.44797 76.0988 6.75889L76.1002 6.75981L76.1016 6.76071C76.5932 7.08026 76.9664 7.5023 77.2247 8.03123C77.485 8.56414 77.6172 9.15618 77.6172 9.81217C77.6172 10.4534 77.4856 11.0461 77.2242 11.5942C76.9659 12.1226 76.5929 12.5443 76.1016 12.8636ZM83.0235 14.5484L83.025 14.5494L83.0266 14.5503C83.8391 15.035 84.7803 15.2726 85.8405 15.2726C87.0755 15.2726 88.11 14.9807 88.9202 14.3731L88.9208 14.3726C89.7257 13.7654 90.3131 12.9867 90.6798 12.0416L90.8302 11.6541H88.5998L88.5191 11.8034C88.2748 12.2553 87.9334 12.6283 87.4906 12.924C87.0652 13.1952 86.5271 13.3393 85.8606 13.3393C85.2338 13.3393 84.6949 13.2082 84.2353 12.9549C83.7679 12.6837 83.3954 12.3291 83.1137 11.8896C82.8952 11.5212 82.74 11.1247 82.6483 10.6986H91V9.81217C91 8.80881 90.7907 7.89419 90.3668 7.07426C89.9423 6.23981 89.3317 5.57895 88.5385 5.09676C87.7501 4.59581 86.813 4.35178 85.7402 4.35178C84.6794 4.35178 83.7434 4.59639 82.9431 5.09608C82.1493 5.57833 81.5384 6.23942 81.1137 7.07426C80.6898 7.89419 80.4804 8.80881 80.4804 9.81217C80.4804 10.8048 80.6976 11.72 81.135 12.5525L81.1359 12.5542L81.1368 12.5558C81.5884 13.3886 82.2185 14.0541 83.0235 14.5484ZM83.6132 7.06548C83.1585 7.52063 82.8471 8.07151 82.6808 8.72515H88.8045C88.6467 8.07239 88.3344 7.52201 87.8684 7.06668C87.3421 6.55234 86.6424 6.28509 85.7402 6.28509C84.8387 6.28509 84.1394 6.55192 83.6132 7.06548Z" fill="white"/>
</svg>