<svg width="91" height="19" viewBox="0 0 91 19" fill="none" xmlns="http://www.w3.org/2000/svg">
<g id="logo_type_white">
<path id="Union" fill-rule="evenodd" clip-rule="evenodd" d="M2.45891 14.046L2.46047 14.047L2.46205 14.048C3.24939 14.5347 4.17234 14.7726 5.21966 14.7726C6.46096 14.7726 7.53235 14.4509 8.4177 13.7943C9.30853 13.1435 9.91416 12.2967 10.2266 11.26L10.3371 10.8933H8.13567L8.06453 11.0733C7.85759 11.5967 7.52468 12.0207 7.06097 12.3502L7.0595 12.3512L7.05805 12.3523C6.61928 12.6725 6.07863 12.8393 5.42027 12.8393C4.73129 12.8393 4.1437 12.677 3.64678 12.3619C3.14152 12.0415 2.7554 11.6186 2.48448 11.0896C2.21112 10.5424 2.07374 9.95131 2.07374 9.31217C2.07374 8.65825 2.2117 8.0679 2.48386 7.53596C2.75481 7.00637 3.14114 6.58309 3.64678 6.26243C4.1437 5.94731 4.73129 5.78509 5.42027 5.78509C6.07863 5.78509 6.61928 5.95187 7.05805 6.27205L7.0595 6.27311L7.06097 6.27415C7.52468 6.60363 7.85759 7.02766 8.06453 7.55109L8.13567 7.73104H10.3371L10.2266 7.36436C9.91416 6.32761 9.3085 5.48075 8.41763 4.83C7.53229 4.17344 6.46093 3.85178 5.21966 3.85178C4.1715 3.85178 3.24793 4.09676 2.46048 4.59741C1.68099 5.07966 1.07171 5.73972 0.634491 6.57183L0.63365 6.57346C0.209443 7.39359 0 8.30848 0 9.31217C0 10.3032 0.209744 11.2172 0.632749 12.0491L0.633611 12.0508L0.634496 12.0525C1.07164 12.8845 1.68048 13.5506 2.45891 14.046ZM11.5342 0V14.6121H13.6079V0H11.5342ZM17.4432 14.0447L17.4458 14.0464L17.4483 14.048C18.2345 14.5339 19.1436 14.7726 20.1658 14.7726C21.031 14.7726 21.7886 14.6051 22.4275 14.257C22.8201 14.0474 23.1687 13.794 23.4722 13.4968V14.6121H25.546V4.01227H23.4722V5.13509C23.1689 4.83305 22.8203 4.57703 22.4274 4.36734C21.7886 4.01921 21.031 3.85178 20.1658 3.85178C19.1423 3.85178 18.2322 4.09776 17.4457 4.59808C16.6789 5.08105 16.083 5.74194 15.6596 6.57444C15.2357 7.39432 15.0264 8.30888 15.0264 9.31217C15.0264 10.3032 15.2362 11.2172 15.6592 12.0491C16.0824 12.8815 16.6777 13.5485 17.4432 14.0447ZM22.0944 12.3655L22.0929 12.3664L22.0915 12.3674C21.64 12.6763 21.0706 12.8393 20.3664 12.8393C19.6773 12.8393 19.0978 12.677 18.6157 12.3636C18.1245 12.0443 17.7514 11.6227 17.4931 11.0943C17.2318 10.5462 17.1002 9.95341 17.1002 9.31217C17.1002 8.65618 17.2323 8.06414 17.4926 7.53123C17.7509 7.0023 18.1241 6.58026 18.6157 6.26071C19.0978 5.94736 19.6773 5.78509 20.3664 5.78509C21.0706 5.78509 21.64 5.94806 22.0915 6.25697L22.0929 6.25794L22.0944 6.25889C22.5719 6.57728 22.9321 6.99806 23.1778 7.52636C23.4262 8.06035 23.5525 8.65413 23.5525 9.31217C23.5525 9.95545 23.4267 10.5499 23.1773 11.099C22.9316 11.6268 22.5716 12.0473 22.0944 12.3655ZM29.0428 14.2822L29.0449 14.2832C29.7349 14.6138 30.5618 14.7726 31.5151 14.7726C32.7947 14.7726 33.8475 14.5114 34.6459 13.9598L34.6468 13.9592C35.4782 13.3802 35.8921 12.5406 35.8921 11.4788C35.8921 10.803 35.7191 10.2342 35.3405 9.80709C34.9864 9.39473 34.5325 9.08235 33.9868 8.86693C33.4616 8.65962 32.9036 8.50122 32.3132 8.39116C31.7559 8.27171 31.2253 8.15233 30.7214 8.03301C30.235 7.90471 29.8531 7.7418 29.5665 7.55074C29.3284 7.39201 29.2117 7.17534 29.2117 6.86469C29.2117 6.4785 29.3622 6.21185 29.6713 6.02485C30.0034 5.82393 30.5381 5.70484 31.3144 5.70484C32.1366 5.70484 32.6529 5.85767 32.9354 6.09831L32.9374 6.09996L32.9393 6.10158C33.2651 6.36913 33.4362 6.6738 33.4796 7.02035L33.5107 7.26963H35.6036L35.5695 6.95447C35.5108 6.41167 35.3199 5.90656 35.0013 5.44218C34.6869 4.96431 34.2229 4.5868 33.6271 4.30246C33.0257 3.99539 32.2623 3.85178 31.3546 3.85178C30.0272 3.85178 28.9724 4.11062 28.2337 4.67185C27.499 5.22678 27.138 6.01762 27.138 7.00512C27.138 7.67038 27.3125 8.23244 27.6913 8.65865L27.6931 8.66065L27.6949 8.66261C28.0491 9.04632 28.5014 9.3429 29.0433 9.55681L29.0464 9.55801L29.0494 9.55914C29.571 9.7513 30.119 9.90876 30.6931 10.0318L30.6944 10.0321C31.2653 10.1515 31.8022 10.2775 32.3053 10.4099L32.3087 10.4108L32.3121 10.4116C32.7958 10.5262 33.1738 10.6879 33.457 10.8885C33.698 11.0592 33.8184 11.291 33.8184 11.6192C33.8184 11.8975 33.742 12.1011 33.6079 12.2544C33.4531 12.4313 33.2586 12.5659 33.0187 12.6573L33.0165 12.6581L33.0143 12.659C32.7691 12.7571 32.5108 12.8249 32.2389 12.8619C31.952 12.9011 31.7184 12.9195 31.5351 12.9195C30.9195 12.9195 30.4443 12.8295 30.0942 12.667C29.7327 12.4857 29.4768 12.2649 29.3098 12.0113C29.1423 11.7225 29.0438 11.4338 29.0091 11.144L28.979 10.8933H26.8571L26.8778 11.1972C26.9214 11.8362 27.1253 12.4315 27.4857 12.9793L27.4867 12.9808L27.4877 12.9822C27.8543 13.5249 28.3773 13.9565 29.0428 14.2822ZM38.7208 14.2822L38.7229 14.2832C39.4129 14.6138 40.2398 14.7726 41.1931 14.7726C42.4728 14.7726 43.5255 14.5114 44.3239 13.9598L44.3248 13.9592C45.1562 13.3802 45.5702 12.5406 45.5702 11.4788C45.5702 10.803 45.3971 10.2342 45.0185 9.80709C44.6644 9.39473 44.2105 9.08235 43.6648 8.86693C43.1396 8.65962 42.5816 8.50122 41.9913 8.39116C41.434 8.27171 40.9034 8.15233 40.3995 8.03301C39.913 7.90471 39.5311 7.7418 39.2445 7.55074C39.0064 7.39201 38.8897 7.17534 38.8897 6.86469C38.8897 6.4785 39.0402 6.21185 39.3493 6.02485C39.6814 5.82393 40.2161 5.70484 40.9925 5.70484C41.8146 5.70484 42.331 5.85767 42.6135 6.09831L42.6154 6.09996L42.6174 6.10158C42.9431 6.36913 43.1143 6.6738 43.1576 7.02035L43.1887 7.26963H45.2816L45.2475 6.95447C45.1889 6.41167 44.998 5.90656 44.6793 5.44218C44.3649 4.96431 43.901 4.5868 43.3052 4.30246C42.7037 3.99539 41.9403 3.85178 41.0326 3.85178C39.7052 3.85178 38.6504 4.11062 37.9117 4.67185C37.177 5.22678 36.816 6.01762 36.816 7.00512C36.816 7.67038 36.9905 8.23244 37.3694 8.65865L37.3711 8.66065L37.3729 8.66261C37.7271 9.04632 38.1795 9.3429 38.7214 9.55681L38.7244 9.55801L38.7275 9.55914C39.2491 9.7513 39.797 9.90876 40.3711 10.0318L40.3725 10.0321C40.9434 10.1515 41.4803 10.2775 41.9833 10.4099L41.9867 10.4108L41.9901 10.4116C42.4738 10.5262 42.8519 10.6879 43.135 10.8885C43.376 11.0592 43.4964 11.291 43.4964 11.6192C43.4964 11.8975 43.42 12.1011 43.286 12.2544C43.1311 12.4313 42.9366 12.5659 42.6967 12.6573L42.6945 12.6581L42.6923 12.659C42.4471 12.7571 42.1889 12.8249 41.917 12.8619C41.63 12.9011 41.3964 12.9195 41.2131 12.9195C40.5975 12.9195 40.1224 12.8295 39.7722 12.667C39.4107 12.4857 39.1549 12.2649 38.9878 12.0113C38.8203 11.7225 38.7219 11.4338 38.6871 11.144L38.657 10.8933H36.5351L36.5559 11.1972C36.5994 11.8362 36.8033 12.4315 37.1638 12.9793L37.1647 12.9808L37.1657 12.9822C37.5324 13.5249 38.0553 13.9565 38.7208 14.2822ZM46.9462 12.0491L46.9471 12.0508L46.948 12.0525C47.3851 12.8845 47.994 13.5506 48.7724 14.046L48.7739 14.047L48.7755 14.048C49.5629 14.5347 50.4858 14.7726 51.5331 14.7726C52.7745 14.7726 53.8459 14.4509 54.7313 13.7942C55.6221 13.1435 56.2277 12.2967 56.5401 11.26L56.6506 10.8933H54.4492L54.378 11.0733C54.1711 11.5967 53.8382 12.0207 53.3744 12.3502L53.373 12.3512L53.3715 12.3523C52.9328 12.6725 52.3921 12.8393 51.7337 12.8393C51.0448 12.8393 50.4572 12.677 49.9603 12.3619C49.455 12.0415 49.0689 11.6187 48.798 11.0897C48.5246 10.5425 48.3872 9.95136 48.3872 9.31217C48.3872 8.65825 48.5252 8.0679 48.7973 7.53596C49.0683 7.00637 49.4546 6.58309 49.9603 6.26243C50.4572 5.94731 51.0448 5.78509 51.7337 5.78509C52.3921 5.78509 52.9328 5.95187 53.3715 6.27205L53.373 6.27311L53.3744 6.27415C53.8382 6.60363 54.1711 7.02766 54.378 7.55109L54.4492 7.73104H56.6506L56.5401 7.36436C56.2276 6.32767 55.622 5.48085 54.7313 4.83011C53.8459 4.17347 52.7745 3.85178 51.5331 3.85178C50.485 3.85178 49.5615 4.09675 48.774 4.59737C47.9945 5.07962 47.3852 5.73969 46.948 6.57183L46.9471 6.57346C46.5229 7.39359 46.3135 8.30848 46.3135 9.31217C46.3135 10.3032 46.5232 11.2172 46.9462 12.0491ZM59.6866 14.0472L59.6882 14.0482L59.6897 14.0492C60.4899 14.535 61.4255 14.7726 62.4855 14.7726C63.558 14.7726 64.4948 14.5354 65.2833 14.048L65.2844 14.0472C66.0774 13.5517 66.688 12.8842 67.1126 12.0491C67.5356 11.2172 67.7453 10.3032 67.7453 9.31217C67.7453 8.30881 67.536 7.39419 67.1121 6.57426C66.6876 5.73981 66.077 5.07895 65.2838 4.59676C64.4954 4.09581 63.5583 3.85178 62.4855 3.85178C61.4247 3.85178 60.4887 4.09639 59.6884 4.59608C58.8946 5.07833 58.2837 5.73942 57.859 6.57426C57.4351 7.39419 57.2257 8.30881 57.2257 9.31217C57.2257 10.3032 57.4355 11.2172 57.8585 12.0491C58.2831 12.8842 58.8937 13.5517 59.6866 14.0472ZM64.2134 12.3655L64.212 12.3664L64.2106 12.3674C63.7591 12.6763 63.1897 12.8393 62.4855 12.8393C61.7962 12.8393 61.2248 12.6769 60.7576 12.3655C60.2803 12.0472 59.9203 11.6267 59.6745 11.0988C59.4252 10.5497 59.2995 9.95535 59.2995 9.31217C59.2995 8.65413 59.4258 8.06035 59.6742 7.52636C59.9199 6.99806 60.28 6.57728 60.7576 6.25889C61.2248 5.94742 61.7962 5.78509 62.4855 5.78509C63.1897 5.78509 63.7591 5.94806 64.2106 6.25697L64.212 6.25794L64.2134 6.25889C64.691 6.57728 65.0512 6.99806 65.2969 7.52636C65.5453 8.06035 65.6716 8.65413 65.6716 9.31217C65.6716 9.95535 65.5458 10.5497 65.2965 11.0988C65.0508 11.6267 64.6908 12.0472 64.2134 12.3655ZM69.1713 4.01227V18.5842H71.2451V13.4827C71.5431 13.7802 71.8831 14.0374 72.2643 14.2539L72.2676 14.2558L72.271 14.2576C72.922 14.6048 73.6855 14.7726 74.5515 14.7726C75.5735 14.7726 76.477 14.534 77.2509 14.0467L77.252 14.046C78.0313 13.5501 78.6342 12.8829 79.0581 12.0491C79.4811 11.2172 79.6909 10.3032 79.6909 9.31217C79.6909 8.30881 79.4816 7.39419 79.0577 6.57426C78.6339 5.7412 78.031 5.08057 77.2515 4.59806C76.4778 4.09731 75.574 3.85178 74.5515 3.85178C73.686 3.85178 72.9229 4.01932 72.2721 4.36614C71.8874 4.56738 71.5448 4.81723 71.2451 5.11505V4.01227H69.1713ZM76.1016 12.3636L76.1002 12.3645L76.0988 12.3655C75.6325 12.6764 75.0548 12.8393 74.3509 12.8393C73.6615 12.8393 73.0902 12.6769 72.623 12.3655C72.1456 12.0472 71.7856 11.6267 71.5399 11.0988C71.2906 10.5497 71.1648 9.95535 71.1648 9.31217C71.1648 8.65413 71.2911 8.06035 71.5395 7.52636C71.7852 6.99806 72.1454 6.57728 72.6229 6.25889C73.0902 5.94742 73.6615 5.78509 74.3509 5.78509C75.0548 5.78509 75.6325 5.94797 76.0988 6.25889L76.1002 6.25981L76.1016 6.26071C76.5932 6.58026 76.9664 7.0023 77.2247 7.53123C77.485 8.06414 77.6172 8.65618 77.6172 9.31217C77.6172 9.95336 77.4856 10.5461 77.2242 11.0942C76.9659 11.6226 76.5929 12.0443 76.1016 12.3636ZM83.0235 14.0484L83.025 14.0494L83.0266 14.0503C83.8391 14.535 84.7803 14.7726 85.8405 14.7726C87.0755 14.7726 88.11 14.4807 88.9202 13.8731L88.9208 13.8726C89.7257 13.2654 90.3131 12.4867 90.6798 11.5416L90.8302 11.1541H88.5998L88.5191 11.3034C88.2748 11.7553 87.9334 12.1283 87.4906 12.424C87.0652 12.6952 86.5271 12.8393 85.8606 12.8393C85.2338 12.8393 84.6949 12.7082 84.2353 12.4549C83.7679 12.1837 83.3954 11.8291 83.1137 11.3896C82.8952 11.0212 82.74 10.6247 82.6483 10.1986H91V9.31217C91 8.30881 90.7907 7.39419 90.3668 6.57426C89.9423 5.73981 89.3317 5.07895 88.5385 4.59676C87.7501 4.09581 86.813 3.85178 85.7402 3.85178C84.6794 3.85178 83.7434 4.09639 82.9431 4.59608C82.1493 5.07833 81.5384 5.73942 81.1137 6.57426C80.6898 7.39419 80.4804 8.30881 80.4804 9.31217C80.4804 10.3048 80.6976 11.22 81.135 12.0525L81.1359 12.0542L81.1368 12.0558C81.5884 12.8886 82.2185 13.5541 83.0235 14.0484ZM83.6132 6.56548C83.1585 7.02063 82.8471 7.57151 82.6808 8.22515H88.8045C88.6467 7.57239 88.3344 7.02201 87.8684 6.56668C87.3421 6.05234 86.6424 5.78509 85.7402 5.78509C84.8387 5.78509 84.1394 6.05192 83.6132 6.56548Z" fill="#0B0B0D"/>
</g>
</svg>
