<svg width="16" height="16" viewBox="0 0 16 16" fill="none" xmlns="http://www.w3.org/2000/svg">
<path d="M7.99967 1.33331C4.31967 1.33331 1.33301 4.31998 1.33301 7.99998C1.33301 11.68 4.31967 14.6666 7.99967 14.6666C11.6797 14.6666 14.6663 11.68 14.6663 7.99998C14.6663 4.31998 11.6797 1.33331 7.99967 1.33331ZM8.58634 11.84V12.6666H7.41967V11.8066C6.92634 11.6866 5.82634 11.2933 5.40634 9.83331L6.50634 9.38665C6.54634 9.53331 6.89301 10.78 8.10634 10.78C8.72634 10.78 9.42634 10.46 9.42634 9.70665C9.42634 9.06665 8.95967 8.73331 7.90634 8.35331C7.17301 8.09331 5.67301 7.66665 5.67301 6.14665C5.67301 6.07998 5.67967 4.54665 7.41967 4.17331V3.33331H8.58634V4.15998C9.81301 4.37331 10.2597 5.35331 10.3597 5.64665L9.30634 6.09331C9.23301 5.85998 8.91301 5.19998 8.03967 5.19998C7.57301 5.19998 6.83301 5.44665 6.83301 6.12665C6.83301 6.75998 7.40634 6.99998 8.59301 7.39331C10.193 7.94665 10.5997 8.75998 10.5997 9.69331C10.5997 11.4466 8.93301 11.78 8.58634 11.84Z" fill="#7795FE"/>
</svg>
