<svg width="16" height="16" viewBox="0 0 16 16" fill="none" xmlns="http://www.w3.org/2000/svg">
<path d="M12.0003 2V3.33333H10.667V2H5.33366V3.33333H4.00033V2H2.66699V14H4.00033V12.6667H5.33366V14H10.667V12.6667H12.0003V14H13.3337V2H12.0003ZM5.33366 11.3333H4.00033V10H5.33366V11.3333ZM5.33366 8.66667H4.00033V7.33333H5.33366V8.66667ZM5.33366 6H4.00033V4.66667H5.33366V6ZM12.0003 11.3333H10.667V10H12.0003V11.3333ZM12.0003 8.66667H10.667V7.33333H12.0003V8.66667ZM12.0003 6H10.667V4.66667H12.0003V6Z" fill="#7795FE"/>
</svg>
