<svg width="16" height="16" viewBox="0 0 16 16" fill="none" xmlns="http://www.w3.org/2000/svg">
<path d="M12.6667 2H3.33333C2.6 2 2 2.6 2 3.33333V12.6667C2 13.4 2.6 14 3.33333 14H12.6667C13.4 14 14 13.4 14 12.6667V3.33333C14 2.6 13.4 2 12.6667 2ZM7.33333 5.33333H6V6.66667C6 7.4 5.4 8 4.66667 8C5.4 8 6 8.6 6 9.33333V10.6667H7.33333V12H6C5.26667 12 4.66667 11.4 4.66667 10.6667V10C4.66667 9.26667 4.06667 8.66667 3.33333 8.66667V7.33333C4.06667 7.33333 4.66667 6.73333 4.66667 6V5.33333C4.66667 4.6 5.26667 4 6 4H7.33333V5.33333ZM12.6667 8.66667C11.9333 8.66667 11.3333 9.26667 11.3333 10V10.6667C11.3333 11.4 10.7333 12 10 12H8.66667V10.6667H10V9.33333C10 8.6 10.6 8 11.3333 8C10.6 8 10 7.4 10 6.66667V5.33333H8.66667V4H10C10.7333 4 11.3333 4.6 11.3333 5.33333V6C11.3333 6.73333 11.9333 7.33333 12.6667 7.33333V8.66667Z" fill="#7795FE"/>
</svg>
