<svg width="24" height="24" viewBox="0 0 24 24" fill="none" xmlns="http://www.w3.org/2000/svg">
<path d="M0 2C0 0.89543 0.895431 0 2 0H22C23.1046 0 24 0.895431 24 2V22C24 23.1046 23.1046 24 22 24H2C0.89543 24 0 23.1046 0 22V2Z" fill="#7795FE"/>
<path d="M16.6667 6H7.33333C6.6 6 6 6.6 6 7.33333V16.6667C6 17.4 6.6 18 7.33333 18H16.6667C17.4 18 18 17.4 18 16.6667V7.33333C18 6.6 17.4 6 16.6667 6ZM11.3333 9.33333H10V10.6667C10 11.4 9.4 12 8.66667 12C9.4 12 10 12.6 10 13.3333V14.6667H11.3333V16H10C9.26667 16 8.66667 15.4 8.66667 14.6667V14C8.66667 13.2667 8.06667 12.6667 7.33333 12.6667V11.3333C8.06667 11.3333 8.66667 10.7333 8.66667 10V9.33333C8.66667 8.6 9.26667 8 10 8H11.3333V9.33333ZM16.6667 12.6667C15.9333 12.6667 15.3333 13.2667 15.3333 14V14.6667C15.3333 15.4 14.7333 16 14 16H12.6667V14.6667H14V13.3333C14 12.6 14.6 12 15.3333 12C14.6 12 14 11.4 14 10.6667V9.33333H12.6667V8H14C14.7333 8 15.3333 8.6 15.3333 9.33333V10C15.3333 10.7333 15.9333 11.3333 16.6667 11.3333V12.6667Z" fill="white"/>
</svg>
