<svg width="24" height="24" viewBox="0 0 24 24" fill="none" xmlns="http://www.w3.org/2000/svg">
<g clip-path="url(#clip0_1252_4694)">
<path d="M17.4586 18.5936L12.3508 13.4859C11.9454 13.8102 11.4792 14.0669 10.9522 14.2561C10.4252 14.4453 9.86448 14.5398 9.26992 14.5398C7.79704 14.5398 6.55064 14.0296 5.53071 13.0091C4.51078 11.9887 4.00054 10.7423 4 9.26992C4 7.79704 4.51024 6.55064 5.53071 5.53071C6.55118 4.51078 7.79759 4.00054 9.26992 4C10.7428 4 11.9892 4.51024 13.0091 5.53071C14.0291 6.55118 14.5393 7.79759 14.5398 9.26992C14.5398 9.86448 14.4453 10.4252 14.2561 10.9522C14.0669 11.4792 13.8102 11.9454 13.4859 12.3508L18.5936 17.4586L17.4586 18.5936ZM9.26992 12.9183C10.2834 12.9183 11.1449 12.5635 11.8546 11.8538C12.5643 11.1441 12.9189 10.2828 12.9183 9.26992C12.9183 8.25647 12.5635 7.39491 11.8538 6.68523C11.1441 5.97554 10.2828 5.62097 9.26992 5.62151C8.25647 5.62151 7.39491 5.97636 6.68523 6.68604C5.97554 7.39572 5.62097 8.25701 5.62151 9.26992C5.62151 10.2834 5.97636 11.1449 6.68604 11.8546C7.39572 12.5643 8.25701 12.9189 9.26992 12.9183Z" fill="black"/>
</g>
<defs>
<clipPath id="clip0_1252_4694">
<rect width="24" height="24" fill="white"/>
</clipPath>
</defs>
</svg>
