<svg width="32" height="32" viewBox="0 0 32 32" fill="none" xmlns="http://www.w3.org/2000/svg">
<path d="M0 2C0 0.895431 0.895431 0 2 0H30C31.1046 0 32 0.895431 32 2V30C32 31.1046 31.1046 32 30 32H2C0.895431 32 0 31.1046 0 30V2Z" fill="white"/>
<path d="M21.6877 12.1491C23.0336 12.5509 24.0975 13.3507 24.8757 14.537C25.6314 15.6923 25.9698 16.9751 25.7968 18.3622C25.5149 20.6303 24.3118 22.2068 22.2741 23.1109C21.6463 23.3891 20.9846 23.5553 20.2929 23.5359C20.1651 23.5321 20.1726 23.6055 20.1726 23.6905C20.1726 24.1658 20.1688 24.641 20.1763 25.1163C20.1801 25.3906 20.135 25.6302 19.8793 25.7731C19.6162 25.92 19.3906 25.8156 19.165 25.6611C18.18 24.981 17.1913 24.3087 16.2025 23.6287C16.1048 23.5591 16.007 23.5321 15.8905 23.5321C14.9017 23.5205 13.9129 23.5862 12.9279 23.5012C11.3151 23.3582 9.99175 22.6202 8.98043 21.3219C8.03303 20.1048 7.63452 18.7022 7.79242 17.1489C7.93152 15.7618 8.50297 14.5756 9.47293 13.6058C10.4391 12.6321 11.6046 12.0795 12.958 11.9559C12.9881 11.952 13.0182 11.9404 13.0482 11.9288C15.5483 11.9288 18.0522 11.9288 20.5523 11.9288C20.9282 11.9984 21.3117 12.037 21.6877 12.1491Z" fill="url(#paint0_linear_1815_28532)"/>
<g filter="url(#filter0_bi_1815_28532)">
<path d="M11.9176 6.15613C14.4177 6.15613 16.9216 6.15613 19.4217 6.15613C19.4518 6.16386 19.4818 6.17931 19.5119 6.18318C20.8653 6.30682 22.027 6.85935 22.997 7.83305C23.967 8.80675 24.5384 9.9891 24.6775 11.3762C24.8317 12.9295 24.4369 14.3321 23.4857 15.5531C22.4744 16.8475 21.1548 17.5894 19.5382 17.7323C18.5532 17.8212 17.5645 17.7555 16.5757 17.7632C16.4592 17.7632 16.3614 17.7903 16.2637 17.8598C15.2787 18.5399 14.2862 19.2122 13.3012 19.8922C13.0756 20.0468 12.85 20.155 12.5868 20.0043C12.3312 19.8613 12.2861 19.6179 12.2898 19.3474C12.2974 18.8722 12.2898 18.3969 12.2936 17.9216C12.2936 17.8328 12.3011 17.7632 12.1733 17.7671C11.4815 17.7825 10.8161 17.6203 10.192 17.3421C8.15435 16.4341 6.94754 14.8576 6.66934 12.5856C6.4964 11.2024 6.83476 9.91569 7.59042 8.76038C8.36865 7.57417 9.43635 6.77435 10.7785 6.37251C11.1507 6.26432 11.5379 6.22568 11.9176 6.15613Z" fill="#C7B9FF" fill-opacity="0.4"/>
</g>
<ellipse cx="11.3125" cy="11.9192" rx="1.40625" ry="1.44076" fill="white"/>
<ellipse cx="15.5312" cy="11.9192" rx="1.40625" ry="1.44076" fill="white"/>
<ellipse cx="19.75" cy="11.9192" rx="1.40625" ry="1.44076" fill="white"/>
<defs>
<filter id="filter0_bi_1815_28532" x="5.025" y="4.55613" width="21.285" height="17.1204" filterUnits="userSpaceOnUse" color-interpolation-filters="sRGB">
<feFlood flood-opacity="0" result="BackgroundImageFix"/>
<feGaussianBlur in="BackgroundImageFix" stdDeviation="0.8"/>
<feComposite in2="SourceAlpha" operator="in" result="effect1_backgroundBlur_1815_28532"/>
<feBlend mode="normal" in="SourceGraphic" in2="effect1_backgroundBlur_1815_28532" result="shape"/>
<feColorMatrix in="SourceAlpha" type="matrix" values="0 0 0 0 0 0 0 0 0 0 0 0 0 0 0 0 0 0 127 0" result="hardAlpha"/>
<feOffset dx="0.08" dy="0.04"/>
<feGaussianBlur stdDeviation="0.2"/>
<feComposite in2="hardAlpha" operator="arithmetic" k2="-1" k3="1"/>
<feColorMatrix type="matrix" values="0 0 0 0 1 0 0 0 0 1 0 0 0 0 1 0 0 0 0.6 0"/>
<feBlend mode="normal" in2="shape" result="effect2_innerShadow_1815_28532"/>
</filter>
<linearGradient id="paint0_linear_1815_28532" x1="-86.5413" y1="25.8437" x2="119.066" y2="2.46789" gradientUnits="userSpaceOnUse">
<stop stop-color="#8D70FF"/>
<stop offset="1" stop-color="#B4A1FF"/>
</linearGradient>
</defs>
</svg>
